<svg xmlns="http://www.w3.org/2000/svg" xmlns:xlink="http://www.w3.org/1999/xlink" width="295" height="246" viewBox="0 0 295 246">
  <defs>
    <clipPath id="clip-path">
      <rect id="Rectángulo_431763" data-name="Rectángulo 431763" width="279.933" height="237.893" fill="none"/>
    </clipPath>
    <clipPath id="clip-path-2">
      <path id="Trazado_1001163" data-name="Trazado 1001163" d="M72.443,166.3,49.2,226.3,34.234,279.067H182.283s1.818-18.529,1.554-19.453S164.1,234.789,164.1,234.789l2.979-36.117-11.547-11.418L139.716,193.4l-13.048-15.941L96.647,165.4Z" transform="translate(-34.234 -165.402)" fill="none"/>
    </clipPath>
    <clipPath id="clip-path-3">
      <rect id="Rectángulo_431769" data-name="Rectángulo 431769" width="279.933" height="142.682" fill="none"/>
    </clipPath>
  </defs>
  <g id="Grupo_1156618" data-name="Grupo 1156618" transform="translate(-1124.711 -775)">
    <rect id="Rectángulo_35929" data-name="Rectángulo 35929" width="295" height="246" transform="translate(1124.711 775)" fill="#3571c7"/>
    <g id="Grupo_1156209" data-name="Grupo 1156209" transform="translate(1132.549 778.965)">
      <g id="Grupo_1156204" data-name="Grupo 1156204">
        <g id="Grupo_1156203" data-name="Grupo 1156203" clip-path="url(#clip-path)">
          <path id="Trazado_1001062" data-name="Trazado 1001062" d="M226.824,69.944c-24.378,19.033-57.982,5.244-69.157-8.079-33-39.336,93.539-10.954,69.157,8.079" transform="translate(-39.319 -10.883)" fill="#ecf2fa"/>
          <path id="Trazado_1001063" data-name="Trazado 1001063" d="M231.346,198.754c-15.995,27.411-47.5,50.843-82.363,56.829a101.007,101.007,0,0,1-17.1,1.479c-1.361,0-2.722-.027-4.087-.09-23.193-.981-46.773-10.457-67.421-32.109-31.891-33.446-41.362-66.146-35.53-94.285a81.035,81.035,0,0,1,8.8-23.31c36.114-64.279,73.577-16.38,124.089-9.328,34.843,4.861,78.256,10.96,86.7,42.507,4.042,15.073.981,34.192-13.088,58.307" transform="translate(-6.002 -19.169)" fill="#ecf2fa"/>
          <path id="Trazado_1001064" data-name="Trazado 1001064" d="M250.391,303.134H232.447l-6.509-33.9a8.812,8.812,0,1,1,17.307-3.323Z" transform="translate(-58.351 -66.877)" fill="#491d7b"/>
          <path id="Trazado_1001065" data-name="Trazado 1001065" d="M250.617,303.306H232.139l-.043-.213-6.507-33.9a9.074,9.074,0,1,1,17.823-3.423Zm-18.045-.526h17.409L242.9,265.874A8.548,8.548,0,0,0,226.1,269.1Z" transform="translate(-58.26 -66.786)" fill="#101c3a"/>
          <path id="Trazado_1001066" data-name="Trazado 1001066" d="M232.6,295.973l.719-.139-5.1-26.545a6.9,6.9,0,1,1,13.553-2.6l3.046,15.86.719-.139-3.045-15.86a7.633,7.633,0,0,0-14.992,2.879Z" transform="translate(-58.763 -67.288)" fill="#101c3a"/>
          <rect id="Rectángulo_431760" data-name="Rectángulo 431760" width="47.524" height="3.023" transform="translate(140.663 233.234)" fill="#391760"/>
          <path id="Trazado_1001067" data-name="Trazado 1001067" d="M237.382,317.716h-48.05v-3.549h48.05Zm-47.525-.526h47v-2.5h-47Z" transform="translate(-48.932 -81.195)" fill="#101c3a"/>
          <rect id="Rectángulo_431761" data-name="Rectángulo 431761" width="38.98" height="0.732" transform="translate(140.663 232.869)" fill="#101c3a"/>
          <path id="Trazado_1001068" data-name="Trazado 1001068" d="M274.242,208.644l-2.256,25.887-2.641,30.288-.5,5.711a5.214,5.214,0,0,1-5.227,4.779H161.174a5.449,5.449,0,0,1-5.431-5.6,2.07,2.07,0,0,1,.016-.3l.036-.4.122-1.395.058-.693.432-4.906,1.946-22.41,2.8-32.083a5.228,5.228,0,0,1,5.227-4.786H268.826a5.533,5.533,0,0,1,.906.076,5.459,5.459,0,0,1,4.51,5.824" transform="translate(-40.25 -52.398)" fill="#512189"/>
          <path id="Trazado_1001069" data-name="Trazado 1001069" d="M263.532,275.48H161.082a5.711,5.711,0,0,1-5.694-5.872,2.515,2.515,0,0,1,.018-.317L158,239.5l2.8-32.083a5.45,5.45,0,0,1,1.45-3.275,5.531,5.531,0,0,1,4.04-1.751H268.736a5.707,5.707,0,0,1,5.677,6.185h0l-5.391,61.887a5.468,5.468,0,0,1-5.49,5.019m-97.244-72.566a4.992,4.992,0,0,0-3.654,1.584,4.925,4.925,0,0,0-1.311,2.961l-5.393,61.888a1.982,1.982,0,0,0-.015.267,5.187,5.187,0,0,0,5.169,5.341H263.532a4.944,4.944,0,0,0,4.965-4.538l5.392-61.888h0a5.2,5.2,0,0,0-4.293-5.542,5.092,5.092,0,0,0-.86-.073Z" transform="translate(-40.159 -52.306)" fill="#101c3a"/>
          <path id="Trazado_1001070" data-name="Trazado 1001070" d="M267.51,268.6l5.17-59.342a2.886,2.886,0,0,0-2.868-3.123H167.358a2.761,2.761,0,0,0-2.768,2.535L159.369,268.6Z" transform="translate(-41.188 -53.274)" fill="#ebf1fd"/>
          <path id="Trazado_1001071" data-name="Trazado 1001071" d="M161.818,274.042H264.271a3.22,3.22,0,0,0,.339-.018l-.086-.727a2.628,2.628,0,0,1-.266.013H161.805a2.716,2.716,0,0,1-2.7-2.935l5.393-61.888a2.593,2.593,0,0,1,2.6-2.381l-.013-.733a3.307,3.307,0,0,0-3.315,3.037L158.381,270.3a3.46,3.46,0,0,0,3.438,3.743" transform="translate(-40.93 -53.078)" fill="#101c3a"/>
          <path id="Trazado_1001072" data-name="Trazado 1001072" d="M182.934,260.383l.1-1.553h-11.99l-.1,1.553Z" transform="translate(-44.18 -66.894)" fill="#101c3a"/>
          <path id="Trazado_1001073" data-name="Trazado 1001073" d="M191.927,254.085l.1-1.552H171.38l-.1,1.552Z" transform="translate(-44.266 -65.266)" fill="#101c3a"/>
          <path id="Trazado_1001074" data-name="Trazado 1001074" d="M188.937,247.786l.1-1.552h-17.4l-.1,1.552Z" transform="translate(-44.333 -63.638)" fill="#425fec"/>
          <path id="Trazado_1001075" data-name="Trazado 1001075" d="M190.549,260.383l.1-1.553h-2.358l-.1,1.553Z" transform="translate(-48.637 -66.894)" fill="#101c3a"/>
          <path id="Trazado_1001076" data-name="Trazado 1001076" d="M213.233,260.383l.1-1.553h-11.99l-.1,1.553Z" transform="translate(-52.011 -66.894)" fill="#101c3a"/>
          <path id="Trazado_1001077" data-name="Trazado 1001077" d="M222.227,254.085l.1-1.552H201.68l-.1,1.552Z" transform="translate(-52.097 -65.266)" fill="#101c3a"/>
          <path id="Trazado_1001078" data-name="Trazado 1001078" d="M219.237,247.786l.1-1.552h-17.4l-.1,1.552Z" transform="translate(-52.163 -63.638)" fill="#101c3a"/>
          <path id="Trazado_1001079" data-name="Trazado 1001079" d="M220.848,260.383l.1-1.553h-2.359l-.1,1.553Z" transform="translate(-56.468 -66.894)" fill="#101c3a"/>
          <path id="Trazado_1001080" data-name="Trazado 1001080" d="M184.418,241.715l.1-1.552h-11.99l-.1,1.552Z" transform="translate(-44.563 -62.069)" fill="#101c3a"/>
          <path id="Trazado_1001081" data-name="Trazado 1001081" d="M193.411,235.417l.1-1.553h-20.65l-.1,1.553Z" transform="translate(-44.649 -60.441)" fill="#101c3a"/>
          <path id="Trazado_1001082" data-name="Trazado 1001082" d="M190.421,229.118l.1-1.553h-17.4l-.1,1.553Z" transform="translate(-44.716 -58.813)" fill="#101c3a"/>
          <path id="Trazado_1001083" data-name="Trazado 1001083" d="M192.033,241.715l.1-1.552h-2.359l-.1,1.552Z" transform="translate(-49.021 -62.069)" fill="#101c3a"/>
          <path id="Trazado_1001084" data-name="Trazado 1001084" d="M214.717,241.715l.1-1.552h-11.99l-.1,1.552Z" transform="translate(-52.394 -62.069)" fill="#fb5415"/>
          <path id="Trazado_1001085" data-name="Trazado 1001085" d="M223.71,235.417l.1-1.553H203.163l-.1,1.553Z" transform="translate(-52.48 -60.441)" fill="#101c3a"/>
          <path id="Trazado_1001086" data-name="Trazado 1001086" d="M220.721,229.118l.1-1.553h-17.4l-.1,1.553Z" transform="translate(-52.547 -58.813)" fill="#101c3a"/>
          <path id="Trazado_1001087" data-name="Trazado 1001087" d="M222.332,241.715l.1-1.552h-2.358l-.1,1.552Z" transform="translate(-56.851 -62.069)" fill="#101c3a"/>
          <path id="Trazado_1001088" data-name="Trazado 1001088" d="M185.9,223.048l.1-1.552h-11.99l-.1,1.552Z" transform="translate(-44.947 -57.245)" fill="#101c3a"/>
          <path id="Trazado_1001089" data-name="Trazado 1001089" d="M194.895,216.75l.1-1.552H174.348l-.1,1.552Z" transform="translate(-45.033 -55.617)" fill="#101c3a"/>
          <path id="Trazado_1001090" data-name="Trazado 1001090" d="M193.517,223.048l.1-1.552h-2.358l-.1,1.552Z" transform="translate(-49.404 -57.245)" fill="#101c3a"/>
          <path id="Trazado_1001091" data-name="Trazado 1001091" d="M216.2,223.048l.1-1.552h-11.99l-.1,1.552Z" transform="translate(-52.778 -57.245)" fill="#3571c7"/>
          <path id="Trazado_1001092" data-name="Trazado 1001092" d="M225.194,216.75l.1-1.552h-20.65l-.1,1.552Z" transform="translate(-52.864 -55.617)" fill="#101c3a"/>
          <path id="Trazado_1001093" data-name="Trazado 1001093" d="M223.816,223.048l.1-1.552h-2.359l-.1,1.552Z" transform="translate(-57.235 -57.245)" fill="#3571c7"/>
          <path id="Trazado_1001094" data-name="Trazado 1001094" d="M249.9,260.383l.1-1.553h-11.99l-.1,1.553Z" transform="translate(-61.487 -66.894)" fill="#101c3a"/>
          <path id="Trazado_1001095" data-name="Trazado 1001095" d="M258.893,254.085l.1-1.552h-20.65l-.1,1.552Z" transform="translate(-61.573 -65.266)" fill="#101c3a"/>
          <path id="Trazado_1001096" data-name="Trazado 1001096" d="M255.9,247.786l.1-1.552H238.6l-.1,1.552Z" transform="translate(-61.64 -63.638)" fill="#101c3a"/>
          <path id="Trazado_1001097" data-name="Trazado 1001097" d="M257.515,260.383l.1-1.553H255.26l-.1,1.553Z" transform="translate(-65.944 -66.894)" fill="#101c3a"/>
          <path id="Trazado_1001098" data-name="Trazado 1001098" d="M280.2,260.383l.1-1.553h-11.99l-.1,1.553Z" transform="translate(-69.318 -66.894)" fill="#101c3a"/>
          <path id="Trazado_1001099" data-name="Trazado 1001099" d="M289.193,254.085l.1-1.552H268.646l-.1,1.552Z" transform="translate(-69.404 -65.266)" fill="#101c3a"/>
          <path id="Trazado_1001100" data-name="Trazado 1001100" d="M286.2,247.786l.1-1.552H268.9l-.1,1.552Z" transform="translate(-69.47 -63.638)" fill="#101c3a"/>
          <path id="Trazado_1001101" data-name="Trazado 1001101" d="M287.815,260.383l.1-1.553H285.56l-.1,1.553Z" transform="translate(-73.775 -66.894)" fill="#101c3a"/>
          <path id="Trazado_1001102" data-name="Trazado 1001102" d="M251.385,241.715l.1-1.552H239.5l-.1,1.552Z" transform="translate(-61.871 -62.069)" fill="#101c3a"/>
          <path id="Trazado_1001103" data-name="Trazado 1001103" d="M260.377,235.417l.1-1.553H239.83l-.1,1.553Z" transform="translate(-61.957 -60.441)" fill="#101c3a"/>
          <path id="Trazado_1001104" data-name="Trazado 1001104" d="M257.387,229.118l.1-1.553h-17.4l-.1,1.553Z" transform="translate(-62.023 -58.813)" fill="#101c3a"/>
          <path id="Trazado_1001105" data-name="Trazado 1001105" d="M259,241.715l.1-1.552h-2.358l-.1,1.552Z" transform="translate(-66.328 -62.069)" fill="#101c3a"/>
          <path id="Trazado_1001106" data-name="Trazado 1001106" d="M281.684,241.715l.1-1.552H269.8l-.1,1.552Z" transform="translate(-69.701 -62.069)" fill="#101c3a"/>
          <path id="Trazado_1001107" data-name="Trazado 1001107" d="M290.677,235.417l.1-1.553H270.13l-.1,1.553Z" transform="translate(-69.787 -60.441)" fill="#fb5415"/>
          <path id="Trazado_1001108" data-name="Trazado 1001108" d="M287.687,229.118l.1-1.553h-17.4l-.1,1.553Z" transform="translate(-69.854 -58.813)" fill="#101c3a"/>
          <path id="Trazado_1001109" data-name="Trazado 1001109" d="M289.3,241.715l.1-1.552h-2.359l-.1,1.552Z" transform="translate(-74.159 -62.069)" fill="#101c3a"/>
          <path id="Trazado_1001110" data-name="Trazado 1001110" d="M252.868,223.048l.1-1.552h-11.99l-.1,1.552Z" transform="translate(-62.254 -57.245)" fill="#101c3a"/>
          <path id="Trazado_1001111" data-name="Trazado 1001111" d="M261.861,216.75l.1-1.552H241.314l-.1,1.552Z" transform="translate(-62.34 -55.617)" fill="#101c3a"/>
          <path id="Trazado_1001112" data-name="Trazado 1001112" d="M260.484,223.048l.1-1.552h-2.359l-.1,1.552Z" transform="translate(-66.711 -57.245)" fill="#101c3a"/>
          <path id="Trazado_1001113" data-name="Trazado 1001113" d="M283.167,223.048l.1-1.552h-11.99l-.1,1.552Z" transform="translate(-70.085 -57.245)" fill="#101c3a"/>
          <path id="Trazado_1001114" data-name="Trazado 1001114" d="M292.161,216.75l.1-1.552H271.614l-.1,1.552Z" transform="translate(-70.171 -55.617)" fill="#101c3a"/>
          <path id="Trazado_1001115" data-name="Trazado 1001115" d="M290.782,223.048l.1-1.552h-2.358l-.1,1.552Z" transform="translate(-74.542 -57.245)" fill="#101c3a"/>
          <path id="Trazado_1001116" data-name="Trazado 1001116" d="M252.628,285.226l.1-1.552h-17.4l-.1,1.552Z" transform="translate(-60.793 -73.314)" fill="#101c3a"/>
          <path id="Trazado_1001117" data-name="Trazado 1001117" d="M282.927,285.226l.1-1.552h-17.4l-.1,1.552Z" transform="translate(-68.624 -73.314)" fill="#101c3a"/>
          <path id="Trazado_1001118" data-name="Trazado 1001118" d="M248.109,279.156l.1-1.552h-11.99l-.1,1.552Z" transform="translate(-61.024 -71.746)" fill="#101c3a"/>
          <path id="Trazado_1001119" data-name="Trazado 1001119" d="M257.1,272.858l.1-1.553H236.555l-.1,1.553Z" transform="translate(-61.11 -70.118)" fill="#101c3a"/>
          <path id="Trazado_1001120" data-name="Trazado 1001120" d="M254.112,266.559l.1-1.553h-17.4l-.1,1.553Z" transform="translate(-61.176 -68.49)" fill="#3571c7"/>
          <path id="Trazado_1001121" data-name="Trazado 1001121" d="M255.724,279.156l.1-1.552h-2.358l-.1,1.552Z" transform="translate(-65.481 -71.746)" fill="#101c3a"/>
          <path id="Trazado_1001122" data-name="Trazado 1001122" d="M278.408,279.156l.1-1.552H266.522l-.1,1.552Z" transform="translate(-68.855 -71.746)" fill="#101c3a"/>
          <path id="Trazado_1001123" data-name="Trazado 1001123" d="M287.4,272.858l.1-1.553H266.854l-.1,1.553Z" transform="translate(-68.941 -70.118)" fill="#fb5415"/>
          <path id="Trazado_1001124" data-name="Trazado 1001124" d="M284.411,266.559l.1-1.553h-17.4l-.1,1.553Z" transform="translate(-69.007 -68.49)" fill="#101c3a"/>
          <path id="Trazado_1001125" data-name="Trazado 1001125" d="M286.023,279.156l.1-1.552h-2.359l-.1,1.552Z" transform="translate(-73.312 -71.746)" fill="#101c3a"/>
          <path id="Trazado_1001126" data-name="Trazado 1001126" d="M284.4,21.681l5.939-.634v0l-.021-.369a5.455,5.455,0,0,0-1.611-3.33Z" transform="translate(-73.503 -4.483)" fill="#390d9f"/>
          <rect id="Rectángulo_431762" data-name="Rectángulo 431762" width="224.7" height="1.569" transform="translate(25.386 236.324)" fill="#131313"/>
          <path id="Trazado_1001127" data-name="Trazado 1001127" d="M238.341,70.646a23.85,23.85,0,0,0-6.561.695,25.614,25.614,0,0,0-24.47-30.22,25.666,25.666,0,0,0-17.355,5.935,37.688,37.688,0,0,0-72.714,12.514,38.348,38.348,0,0,0,.057,3.846,26.8,26.8,0,1,0-13.975,50.212L239,118.454l.005-.119a23.876,23.876,0,0,0-.66-47.689" transform="translate(-20.02 -6.001)" fill="#07326c"/>
          <path id="Trazado_1001128" data-name="Trazado 1001128" d="M249.521,94.774A23.878,23.878,0,0,1,228,118.533v.118H92.237a26.812,26.812,0,1,1,0-53.625c.16,0,.317,0,.475.007h0a26.633,26.633,0,0,1,11.7,2.941,37.989,37.989,0,0,1-.2-3.842c0-1.057.045-2.105.132-3.14a37.684,37.684,0,0,1,37.556-34.548q1.2,0,2.368.077h0A37.7,37.7,0,0,1,176.45,49.041a25.75,25.75,0,0,1,24.092-5.594h0a25.8,25.8,0,0,1,18.834,24.845,26.22,26.22,0,0,1-.269,3.534,23.823,23.823,0,0,1,30.411,22.948" transform="translate(-16.909 -6.835)" fill="#3571c7"/>
          <path id="Trazado_1001129" data-name="Trazado 1001129" d="M215.273,67.343l.276-.047,3.813,22.712-21.154-7.875L198.544,81a21.826,21.826,0,0,1,16.729-13.654" transform="translate(-51.226 -17.392)" fill="#fb5415"/>
          <path id="Trazado_1001130" data-name="Trazado 1001130" d="M233.492,125.655c.373-.062.739-.136,1.1-.215a22.1,22.1,0,0,0,3.969-1.292,22.455,22.455,0,0,0,5.789-3.651,21.739,21.739,0,0,0,1.7-1.645c.07-.079.142-.154.213-.237a20.328,20.328,0,0,0,5.392-15.049A32.174,32.174,0,0,0,250.13,95.6c-.051-.156-.1-.313-.159-.469-3.669-10.24-12.325-13.755-19.857-13.788-.162,0-.326,0-.487.006a23.646,23.646,0,0,0-2.8.2c-.325.039-.653.088-.98.142l3.261,19.55.081.478.213,1.27-16.225,5.448-.457.153-.156.052-1.238.415-2.539.856.532,1.364a21.714,21.714,0,0,0,21.478,14.665,22.739,22.739,0,0,0,2.7-.288" transform="translate(-53.959 -21.022)" fill="#07326c"/>
          <path id="Trazado_1001131" data-name="Trazado 1001131" d="M223.878,104.743l-22.324,7.44v-.007l-.531-1.358a21.475,21.475,0,0,1,.331-14.566Z" transform="translate(-51.665 -24.876)" fill="#cfe0fa"/>
          <path id="Trazado_1001132" data-name="Trazado 1001132" d="M117.955,133.191l-.038-1.8H104.023l.038,1.8Z" transform="translate(-26.884 -33.958)" fill="#fff"/>
          <path id="Trazado_1001133" data-name="Trazado 1001133" d="M127.738,125.893l-.038-1.8H103.77l.038,1.8Z" transform="translate(-26.819 -32.071)" fill="#fff"/>
          <path id="Trazado_1001134" data-name="Trazado 1001134" d="M123.634,118.594l-.038-1.8H103.43l.038,1.8Z" transform="translate(-26.731 -30.185)" fill="#fff"/>
          <path id="Trazado_1001135" data-name="Trazado 1001135" d="M126.78,133.191l-.038-1.8h-2.733l.037,1.8Z" transform="translate(-32.05 -33.958)" fill="#fff"/>
          <path id="Trazado_1001136" data-name="Trazado 1001136" d="M153.066,133.191l-.038-1.8H139.134l.038,1.8Z" transform="translate(-35.959 -33.958)" fill="#fff"/>
          <path id="Trazado_1001137" data-name="Trazado 1001137" d="M162.849,125.893l-.038-1.8h-23.93l.038,1.8Z" transform="translate(-35.893 -32.071)" fill="#fff"/>
          <path id="Trazado_1001138" data-name="Trazado 1001138" d="M158.745,118.594l-.038-1.8H138.541l.038,1.8Z" transform="translate(-35.805 -30.185)" fill="#fff"/>
          <path id="Trazado_1001139" data-name="Trazado 1001139" d="M161.89,133.191l-.038-1.8H159.12l.037,1.8Z" transform="translate(-41.124 -33.958)" fill="#fff"/>
          <path id="Trazado_1001140" data-name="Trazado 1001140" d="M117.782,111.56l-.038-1.8H103.85l.038,1.8Z" transform="translate(-26.84 -28.367)" fill="#fff"/>
          <path id="Trazado_1001141" data-name="Trazado 1001141" d="M126.606,111.56l-.037-1.8h-2.733l.037,1.8Z" transform="translate(-32.005 -28.367)" fill="#fff"/>
          <path id="Trazado_1001142" data-name="Trazado 1001142" d="M152.893,111.56l-.038-1.8H138.961l.039,1.8Z" transform="translate(-35.914 -28.367)" fill="#fff"/>
          <path id="Trazado_1001143" data-name="Trazado 1001143" d="M161.717,111.56l-.037-1.8h-2.733l.038,1.8Z" transform="translate(-41.079 -28.367)" fill="#fff"/>
          <path id="Trazado_1001144" data-name="Trazado 1001144" d="M175.341,57.076l-3.164-.01c0-.123-.01-.225-.02-.348a3.639,3.639,0,0,0-3.615-3.267V50.277a6.81,6.81,0,0,1,6.768,6.113c.021.235.031.45.031.686" transform="translate(-43.559 -12.994)" fill="#fff"/>
          <path id="Trazado_1001145" data-name="Trazado 1001145" d="M168.356,58.926a3.63,3.63,0,1,1-3.628-3.629V52.119a6.806,6.806,0,1,0,6.807,6.807Z" transform="translate(-40.814 -13.47)" fill="#390d9f"/>
          <path id="Trazado_1001146" data-name="Trazado 1001146" d="M139.128,85.62h-.512V77.741l14.156-10.6.306.409L139.128,78Z" transform="translate(-35.825 -17.353)" fill="#fff"/>
          <path id="Trazado_1001147" data-name="Trazado 1001147" d="M138.13,96.482a2.384,2.384,0,1,1,2.385-2.384,2.388,2.388,0,0,1-2.385,2.384m0-4.257A1.872,1.872,0,1,0,140,94.1a1.874,1.874,0,0,0-1.872-1.872" transform="translate(-35.083 -23.703)" fill="#fff"/>
        </g>
      </g>
      <g id="Grupo_1156206" data-name="Grupo 1156206" transform="translate(25.386 122.654)">
        <g id="Grupo_1156205" data-name="Grupo 1156205" clip-path="url(#clip-path-2)">
          <path id="Trazado_1001148" data-name="Trazado 1001148" d="M185.331,221.1c-1.847-1.8-2.335-4.675-5.05-5.456A12.945,12.945,0,0,1,175.593,213a37.6,37.6,0,0,0,6.377-10.644c.993-2.972.533-4.85-.483-3.638-2.307,2.751-9.848,9.981-12.1,13.661a.443.443,0,0,0-.046.1c-1.938,2.323-2.343,7.507-2.383,9.611-.059,3.138-.326,12.281-.4,14.813-4.727,12.619-23.486,27.051-25.35,31.8-5.984,15.237,17.6,26.8,27.138,14.19,7.6-10.042,6.639-27.971,8-40.487l.009,0c.7-6.513,5.746-9.552,7.76-12.684s3.057-6.824,1.211-8.621" transform="translate(-61.634 -173.915)" fill="#ffc4a3"/>
          <path id="Trazado_1001149" data-name="Trazado 1001149" d="M104.886,185.981c-.139-7,7.059-7.179,7.059-7.179-7.3-19.5-20.531-7.667-23.519-1.115-3.906,8.566-3.482,25.232,1.023,27.2l1.313-1.185,1.026,2.331c2.515,1.808,9.246,4.133,11.192,3.707,0,0,1.916-23.324,1.907-23.756" transform="translate(-47.551 -166.098)" fill="#101c3a"/>
          <path id="Trazado_1001150" data-name="Trazado 1001150" d="M129.957,218.509l-3.351,12.8c-.976,1.037-6-.5-13.961-6.844l4.561-11.266a96.972,96.972,0,0,0,12.751,5.311" transform="translate(-54.499 -177.755)" fill="#ffc4a3"/>
          <path id="Trazado_1001151" data-name="Trazado 1001151" d="M132.257,224.433l-1.487,5.679c-7.534.15-4.8-9.075-4.794-9.064,3.009,2.308,5.2,3.5,6.281,3.385" transform="translate(-57.818 -179.783)" fill="#101c3a"/>
          <path id="Trazado_1001152" data-name="Trazado 1001152" d="M132.229,216.432c-4.068-.028-11.491-5.571-13.136-9.292-.587-1.327,1.118-22.233,5.259-23.694,1.746-.613,12.57,1.275,14.21,1.275,3.755,0,3.8,9.4,3.829,14.806.037,6.061-2.988,16.955-10.162,16.905" transform="translate(-56.136 -170.034)" fill="#ffc4a3"/>
          <path id="Trazado_1001153" data-name="Trazado 1001153" d="M115.934,209.955a43.522,43.522,0,0,1,4.449-1.589c2.071-3.779,6.4-11.6,7.829-13.442,1.412-1.829,3.585,9.217,3.585,9.217,2.8-6.342,1.993-12.547,4.962-13.983,3.175-1.536,7.78-11.856-4.353-11.856-6.567,0-14.5-4.807-20.3,3.073-8.107,11.008,5.126,24.988,3.828,28.58" transform="translate(-53.676 -168.361)" fill="#101c3a"/>
          <path id="Trazado_1001154" data-name="Trazado 1001154" d="M133.96,202.3a3.8,3.8,0,1,1-4.781-2.462,3.8,3.8,0,0,1,4.781,2.462" transform="translate(-58.089 -174.256)" fill="#ffc4a3"/>
          <path id="Trazado_1001155" data-name="Trazado 1001155" d="M130.543,206.494a2.779,2.779,0,0,1-1.2-.309l.318-.627c.011.005,1.074.519,1.383-.007.09-.154.093-.156-.148-.385a1.491,1.491,0,0,1-.547-1.542,2.436,2.436,0,0,1,.661-1.192c.32-.358.4-.443-.069-1.022a.585.585,0,0,0-.475-.242h-.006c-.759,0-1.869,1.126-2.2,1.522l-.54-.449c.152-.182,1.514-1.776,2.739-1.776h.01a1.287,1.287,0,0,1,1.017.5c.779.966.5,1.428.045,1.931a1.759,1.759,0,0,0-.5.864.819.819,0,0,0,.341.891.907.907,0,0,1,.27,1.252,1.21,1.21,0,0,1-1.111.584" transform="translate(-58.397 -174.464)" fill="#101c3a"/>
          <path id="Trazado_1001156" data-name="Trazado 1001156" d="M123.375,302.106c30.342,28.493,49.307,57.59,42.358,64.991S128.553,357.4,98.21,328.9s-49.306-57.59-42.357-64.99,37.18,9.7,67.522,38.191" transform="translate(-39.45 -190.417)" fill="#101c3a"/>
          <path id="Trazado_1001157" data-name="Trazado 1001157" d="M107.248,344.574c-4.782,2.4-36.763,48.766,16.537,48.766,11.995,0,45.756-14.131,47.049-11.081,5.243,12.376-14.836,31.63-5.593,55.051,8.525,1.211,30.186-1.264,32.721.05,7.745-3.777,12.1-8.543,13.834-17.638,2.2-11.564,7.972-32.644,7.717-57.428-.417-40.541-105.349-20.6-112.265-17.719" transform="translate(-49.52 -209.787)" fill="#e6e6e6"/>
          <path id="Trazado_1001158" data-name="Trazado 1001158" d="M127.044,288.866c3.264-18.152-8.035-52.626-9.093-54.258C114.358,229.067,102,222.044,97.672,223.3c-21.226,6.17-46.541,43.31-46.541,68.794,0,30.509,7.058,56.289,23.33,66.58,0,0,25.151-20.992,34.711-36.4,2.392-3.229,12.642-14.9,6.51-13.518.306-.393,1.275-2.093-.6-2,.5-1.353,10.853-11.7,11.965-17.886" transform="translate(-38.601 -180.328)" fill="#7a4bb0"/>
          <path id="Trazado_1001159" data-name="Trazado 1001159" d="M171.005,295.375c8.156-.134,17.208.073,25.363-.059,2.5-.042,5.017.077,7.234-1.225,4.029-2.369-2.271-17.692-4.721-20.85-13.989-18.034-62.11-40.524-73.265-46.659-1.7,1.992-.385,36.326,6.069,42.966,2.314,2.382,33.363,25.924,39.32,25.828" transform="translate(-57.676 -181.214)" fill="#7a4bb0"/>
          <path id="Trazado_1001160" data-name="Trazado 1001160" d="M158.56,371.707c-31.813,37.086-75.065,20.29-92.742,3.739-38.232-35.806-29.234-81.063-15.3-107.671-2.312,10.064,15.9,36.573,43.591,62.574,24.368,22.889,61,39.859,61.054,39.887,1.127.5,2.267.986,3.4,1.472" transform="translate(-35.345 -191.86)" fill="#512189"/>
          <path id="Trazado_1001161" data-name="Trazado 1001161" d="M131.123,291.964c1.975,1.143,13.087,7.525,15.194,8.375.57-2.87.779-4.008.284-6.567-8.42-6.877-14.884-11.752-21.819-17.66,1.592,2.718,1.858,13.258,6.34,15.852" transform="translate(-57.636 -194.015)" fill="#101c3a"/>
          <path id="Trazado_1001162" data-name="Trazado 1001162" d="M183.777,296.108c-.227,0-22.746-.348-33.014-9.662l.472-.521c10.07,9.134,32.325,9.477,32.548,9.48Z" transform="translate(-64.35 -196.551)" fill="#fff"/>
        </g>
      </g>
      <g id="Grupo_1156208" data-name="Grupo 1156208">
        <g id="Grupo_1156207" data-name="Grupo 1156207" clip-path="url(#clip-path-3)">
          <path id="Trazado_1001164" data-name="Trazado 1001164" d="M330.672,142.622a12.833,12.833,0,0,0-3.526.373,13.841,13.841,0,0,0-22.478-13.051,20.255,20.255,0,0,0-39.078,6.726,20.6,20.6,0,0,0,.03,2.067,14.406,14.406,0,1,0-7.511,26.986l72.915,2.593,0-.064a12.832,12.832,0,0,0-.354-25.63" transform="translate(-63.116 -30.273)" fill="#07326c"/>
          <path id="Trazado_1001165" data-name="Trazado 1001165" d="M335.926,155.589a12.834,12.834,0,0,1-11.569,12.77v.064H251.4a14.41,14.41,0,1,1,0-28.82c.086,0,.17,0,.254,0h0a14.309,14.309,0,0,1,6.291,1.581,20.2,20.2,0,0,1-.105-2.065c0-.568.024-1.132.07-1.688a20.253,20.253,0,0,1,20.184-18.566q.643,0,1.272.042h0a20.262,20.262,0,0,1,17.288,12.1,13.808,13.808,0,0,1,7.415-3.4,13.629,13.629,0,0,1,1.793-.117,13.808,13.808,0,0,1,3.74.512h0a13.867,13.867,0,0,1,10.121,13.352,14.089,14.089,0,0,1-.145,1.9,12.8,12.8,0,0,1,16.344,12.333" transform="translate(-61.248 -30.721)" fill="#cfe0fa"/>
          <path id="Trazado_1001166" data-name="Trazado 1001166" d="M299.5,157.913a17.97,17.97,0,0,0-7.333,1.554,2.01,2.01,0,1,0,1.653,3.665,14.046,14.046,0,0,1,11.361,0,2.01,2.01,0,1,0,1.653-3.665,17.967,17.967,0,0,0-7.333-1.554" transform="translate(-75.203 -40.812)" fill="#3571c7"/>
          <path id="Trazado_1001167" data-name="Trazado 1001167" d="M297.64,143.548a28.619,28.619,0,0,0-12.757,2.97,2.012,2.012,0,0,0-.848,2.806l.008.015a2,2,0,0,0,2.621.8,24.695,24.695,0,0,1,21.952,0,2,2,0,0,0,2.621-.8l.008-.015a2.01,2.01,0,0,0-.848-2.806,28.619,28.619,0,0,0-12.757-2.97" transform="translate(-73.338 -37.099)" fill="#3571c7"/>
          <path id="Trazado_1001168" data-name="Trazado 1001168" d="M304.2,173.026a2.642,2.642,0,1,1-2.642-2.642,2.643,2.643,0,0,1,2.642,2.642" transform="translate(-77.253 -44.035)" fill="#3571c7"/>
          <rect id="Rectángulo_431764" data-name="Rectángulo 431764" width="5.538" height="13.301" transform="translate(155.11 119.994)" fill="#101c3a"/>
          <path id="Trazado_1001169" data-name="Trazado 1001169" d="M218.3,177.184l-8.285,11.291h-1.984v-2.7l-6.3-8.587Z" transform="translate(-52.137 -45.793)" fill="#101c3a"/>
          <rect id="Rectángulo_431765" data-name="Rectángulo 431765" width="5.538" height="13.301" transform="translate(153.126 119.994)" fill="#fb5415"/>
          <path id="Trazado_1001170" data-name="Trazado 1001170" d="M215.626,177.184l-8.285,11.291-8.284-11.291Z" transform="translate(-51.446 -45.793)" fill="#fb5415"/>
          <rect id="Rectángulo_431766" data-name="Rectángulo 431766" width="5.538" height="13.301" transform="translate(135.298 124.688)" fill="#101c3a"/>
          <path id="Trazado_1001171" data-name="Trazado 1001171" d="M191.583,166.775,183.3,155.484h-1.984v2.7l-6.3,8.587Z" transform="translate(-45.232 -40.184)" fill="#101c3a"/>
          <rect id="Rectángulo_431767" data-name="Rectángulo 431767" width="5.538" height="13.301" transform="translate(133.314 124.688)" fill="#fb5415"/>
          <path id="Trazado_1001172" data-name="Trazado 1001172" d="M188.908,166.775l-8.285-11.291-8.283,11.291Z" transform="translate(-44.541 -40.184)" fill="#fb5415"/>
          <path id="Trazado_1001180" data-name="Trazado 1001180" d="M0,0H15.348V15.348H0Z" transform="translate(0 79.281) rotate(-50.942)" fill="#7a4bb0"/>
          <path id="Trazado_1001173" data-name="Trazado 1001173" d="M12.652,107.322.524,97.481l9.84-12.128,12.127,9.84ZM.9,97.441l11.708,9.5,9.5-11.708L10.4,85.733Z" transform="translate(-0.135 -22.059)" fill="#101c3a"/>
          <path id="Trazado_1001174" data-name="Trazado 1001174" d="M87.078.192a1.647,1.647,0,1,1-2.226.684A1.648,1.648,0,0,1,87.078.192" transform="translate(-21.88 0)" fill="#390d9f"/>
          <path id="Trazado_1001175" data-name="Trazado 1001175" d="M235.422,2.414A1.647,1.647,0,1,1,233.2,3.1a1.648,1.648,0,0,1,2.226-.684" transform="translate(-60.219 -0.574)" fill="#fb5415"/>
          <path id="Trazado_1001176" data-name="Trazado 1001176" d="M89.256,42.81a1.279,1.279,0,1,1-1.73.532,1.279,1.279,0,0,1,1.73-.532" transform="translate(-22.582 -11.026)" fill="#425fec"/>
          <path id="Trazado_1001177" data-name="Trazado 1001177" d="M315.367,67.14a1.279,1.279,0,1,1-1.729.532,1.28,1.28,0,0,1,1.729-.532" transform="translate(-81.02 -17.314)" fill="#425fec"/>
          <path id="Trazado_1001178" data-name="Trazado 1001178" d="M35.432,183a2.559,2.559,0,1,1-3.459,1.063A2.558,2.558,0,0,1,35.432,183" transform="translate(-8.186 -47.219)" fill="#fb5415"/>
          <path id="Trazado_1001179" data-name="Trazado 1001179" d="M30.465,39.508a2.559,2.559,0,1,1-3.459,1.063,2.558,2.558,0,0,1,3.459-1.063" transform="translate(-6.903 -10.134)" fill="#fb5415"/>
        </g>
      </g>
    </g>
  </g>
</svg>
