<svg xmlns="http://www.w3.org/2000/svg" xmlns:xlink="http://www.w3.org/1999/xlink" width="85" height="79.809" viewBox="0 0 85 79.809">
  <defs>
    <clipPath id="clip-path">
      <path id="Trazado_1001181" data-name="Trazado 1001181" d="M86.564,20.565a9.491,9.491,0,1,0,18.982,0c-.26-6.312-4.876-9.466-9.491-9.466s-9.231,3.156-9.491,9.466" transform="translate(-86.564 -11.099)" fill="none"/>
    </clipPath>
    <linearGradient id="linear-gradient" x1="-2.272" y1="2.85" x2="-2.244" y2="2.85" gradientUnits="objectBoundingBox">
      <stop offset="0" stop-color="#283180"/>
      <stop offset="1" stop-color="#6e77c6"/>
    </linearGradient>
    <clipPath id="clip-path-2">
      <rect id="Rectángulo_431787" data-name="Rectángulo 431787" width="85" height="79.809" fill="none"/>
    </clipPath>
    <clipPath id="clip-path-3">
      <path id="Trazado_1001183" data-name="Trazado 1001183" d="M83.374,40.4l3.485,36.733c9.191,3.47,19.625-3.821,19.458-13.662V45.213a4.788,4.788,0,0,0-4.844-4.811Zm-.007,0h.007l-.007-.074Z" transform="translate(-83.367 -40.328)" fill="none"/>
    </clipPath>
    <linearGradient id="linear-gradient-2" x1="-1.236" y1="1.146" x2="-1.219" y2="1.146" xlink:href="#linear-gradient"/>
    <clipPath id="clip-path-5">
      <path id="Trazado_1001185" data-name="Trazado 1001185" d="M45.172,13.849A13.007,13.007,0,1,0,58.179.842,13.007,13.007,0,0,0,45.172,13.849" transform="translate(-45.172 -0.842)" fill="none"/>
    </clipPath>
    <linearGradient id="linear-gradient-3" x1="-0.778" y1="2.327" x2="-0.757" y2="2.327" gradientUnits="objectBoundingBox">
      <stop offset="0" stop-color="#575d9a"/>
      <stop offset="1" stop-color="#9da3e0"/>
    </linearGradient>
    <clipPath id="clip-path-7">
      <path id="Trazado_1001187" data-name="Trazado 1001187" d="M51.6,40.429a1.194,1.194,0,0,0-1.247,1.219V67.915a2.206,2.206,0,0,1-2.234,2.164H33.035a1.3,1.3,0,0,0-1.262,1.569A22.617,22.617,0,0,0,53.508,89.827,22.72,22.72,0,0,0,75.645,66.572V45.339a4.67,4.67,0,0,0-4.7-4.91Z" transform="translate(-31.745 -40.429)" fill="none"/>
    </clipPath>
    <linearGradient id="linear-gradient-4" x1="-0.203" y1="0.884" x2="-0.191" y2="0.884" xlink:href="#linear-gradient-3"/>
    <clipPath id="clip-path-9">
      <path id="Trazado_1001189" data-name="Trazado 1001189" d="M5.56,24.516A4.7,4.7,0,0,0,.842,29.155v34.01A4.78,4.78,0,0,0,5.56,67.9H39.572a4.728,4.728,0,0,0,4.657-4.736V29.155a4.644,4.644,0,0,0-4.656-4.639Z" transform="translate(-0.842 -24.516)" fill="none"/>
    </clipPath>
    <linearGradient id="linear-gradient-5" x1="0.131" y1="1.163" x2="0.143" y2="1.163" xlink:href="#linear-gradient"/>
    <clipPath id="clip-path-11">
      <path id="Trazado_1001191" data-name="Trazado 1001191" d="M17.863,37.246a1.385,1.385,0,0,0-1.334,1.329v3.172a1.271,1.271,0,0,0,1.334,1.2H23.4V60.68a1.275,1.275,0,0,0,1.34,1.192h3.732a1.233,1.233,0,0,0,1.293-1.192V42.942h5.506a1.151,1.151,0,0,0,1.194-1.2V38.575a1.266,1.266,0,0,0-1.194-1.329Z" transform="translate(-16.529 -37.246)" fill="none"/>
    </clipPath>
    <linearGradient id="linear-gradient-6" x1="-0.227" y1="1.765" x2="-0.203" y2="1.765" gradientUnits="objectBoundingBox">
      <stop offset="0" stop-color="#dcdcdc"/>
      <stop offset="1" stop-color="#fff"/>
    </linearGradient>
  </defs>
  <g id="Grupo_1156619" data-name="Grupo 1156619" transform="translate(-180 -1046.596)">
    <g id="Grupo_1156248" data-name="Grupo 1156248" transform="translate(180 1046.597)">
      <g id="Grupo_1156225" data-name="Grupo 1156225" transform="translate(63.784 8.178)">
        <g id="Grupo_1156224" data-name="Grupo 1156224" clip-path="url(#clip-path)">
          <rect id="Rectángulo_431786" data-name="Rectángulo 431786" width="26.437" height="26.437" transform="matrix(0.819, -0.574, 0.574, 0.819, -8.918, 6.245)" fill="url(#linear-gradient)"/>
        </g>
      </g>
      <g id="Grupo_1156227" data-name="Grupo 1156227" transform="translate(0 -0.001)">
        <g id="Grupo_1156226" data-name="Grupo 1156226" clip-path="url(#clip-path-2)">
          <path id="Trazado_1001182" data-name="Trazado 1001182" d="M95.834,30.479A10.135,10.135,0,0,1,85.722,20.344c.285-6.939,5.442-10.087,10.112-10.087s9.826,3.148,10.112,10.061A10.14,10.14,0,0,1,95.834,30.479m0-18.982c-4.1,0-8.62,2.776-8.871,8.872a8.871,8.871,0,1,0,17.742-.026c-.251-6.069-4.774-8.846-8.871-8.846" transform="translate(-22.559 -2.699)"/>
        </g>
      </g>
      <g id="Grupo_1156229" data-name="Grupo 1156229" transform="translate(61.428 29.715)">
        <g id="Grupo_1156228" data-name="Grupo 1156228" clip-path="url(#clip-path-3)">
          <rect id="Rectángulo_431788" data-name="Rectángulo 431788" width="42.038" height="46.253" transform="matrix(0.819, -0.574, 0.574, 0.819, -18.924, 13.251)" fill="url(#linear-gradient-2)"/>
        </g>
      </g>
      <g id="Grupo_1156231" data-name="Grupo 1156231" transform="translate(0 -0.001)">
        <g id="Grupo_1156230" data-name="Grupo 1156230" clip-path="url(#clip-path-2)">
          <path id="Trazado_1001184" data-name="Trazado 1001184" d="M91.447,78.411h0a14.165,14.165,0,0,1-5.027-.918.619.619,0,0,1-.4-.522L82.543,40.332a.644.644,0,0,1-.019-.152v-.074a.621.621,0,0,1,.592-.62.6.6,0,0,1,.326.074H101.25a5.389,5.389,0,0,1,5.465,5.43V63.25a14.515,14.515,0,0,1-4.275,10.462,15.56,15.56,0,0,1-10.993,4.7m-4.229-1.949a12.955,12.955,0,0,0,4.227.707h0a14.31,14.31,0,0,0,10.108-4.327,13.292,13.292,0,0,0,3.919-9.582V44.991a4.163,4.163,0,0,0-4.224-4.19H83.834Z" transform="translate(-21.717 -10.39)"/>
        </g>
      </g>
      <g id="Grupo_1156233" data-name="Grupo 1156233" transform="translate(33.284 0.62)">
        <g id="Grupo_1156232" data-name="Grupo 1156232" clip-path="url(#clip-path-5)">
          <rect id="Rectángulo_431790" data-name="Rectángulo 431790" width="36.229" height="36.229" transform="matrix(0.819, -0.574, 0.574, 0.819, -12.222, 8.558)" fill="url(#linear-gradient-3)"/>
        </g>
      </g>
      <g id="Grupo_1156235" data-name="Grupo 1156235" transform="translate(0 -0.001)">
        <g id="Grupo_1156234" data-name="Grupo 1156234" clip-path="url(#clip-path-2)">
          <path id="Trazado_1001186" data-name="Trazado 1001186" d="M57.957,27.254A13.627,13.627,0,1,1,71.585,13.627,13.642,13.642,0,0,1,57.957,27.254m0-26.013A12.386,12.386,0,1,0,70.343,13.627,12.4,12.4,0,0,0,57.957,1.241" transform="translate(-11.666 0.001)"/>
        </g>
      </g>
      <g id="Grupo_1156237" data-name="Grupo 1156237" transform="translate(23.391 29.789)">
        <g id="Grupo_1156236" data-name="Grupo 1156236" clip-path="url(#clip-path-7)">
          <rect id="Rectángulo_431792" data-name="Rectángulo 431792" width="64.681" height="65.915" transform="matrix(0.819, -0.574, 0.574, 0.819, -23.347, 16.251)" fill="url(#linear-gradient-4)"/>
        </g>
      </g>
      <g id="Grupo_1156239" data-name="Grupo 1156239" transform="translate(0 -0.001)">
        <g id="Grupo_1156238" data-name="Grupo 1156238" clip-path="url(#clip-path-2)">
          <path id="Trazado_1001188" data-name="Trazado 1001188" d="M53.286,90.226h-.015a23.263,23.263,0,0,1-22.33-18.674,1.926,1.926,0,0,1,.4-1.61,1.892,1.892,0,0,1,1.473-.7H47.894a1.582,1.582,0,0,0,1.614-1.544V41.427a1.813,1.813,0,0,1,1.868-1.839h19.35a5.384,5.384,0,0,1,3.91,1.69,5.14,5.14,0,0,1,1.406,3.878V66.351A23.339,23.339,0,0,1,53.3,90.226h-.015M32.813,70.479a.653.653,0,0,0-.511.247.688.688,0,0,0-.144.576A22.028,22.028,0,0,0,53.286,88.985,22.1,22.1,0,0,0,74.8,66.368V45.118a3.941,3.941,0,0,0-1.071-2.99,4.139,4.139,0,0,0-3.006-1.3H51.376a.574.574,0,0,0-.626.6V67.694a2.824,2.824,0,0,1-2.855,2.785Z" transform="translate(-8.132 -10.417)"/>
        </g>
      </g>
      <g id="Grupo_1156241" data-name="Grupo 1156241" transform="translate(0.62 18.064)">
        <g id="Grupo_1156240" data-name="Grupo 1156240" clip-path="url(#clip-path-9)">
          <path id="Trazado_1001193" data-name="Trazado 1001193" d="M0,1.455,71.248,0V60.425H10.823Z" transform="matrix(0.819, -0.574, 0.574, 0.819, -29.25, 20.481)" fill="url(#linear-gradient-5)"/>
        </g>
      </g>
      <g id="Grupo_1156243" data-name="Grupo 1156243" transform="translate(0 -0.001)">
        <g id="Grupo_1156242" data-name="Grupo 1156242" clip-path="url(#clip-path-2)">
          <path id="Trazado_1001190" data-name="Trazado 1001190" d="M39.35,68.3H5.338A5.419,5.419,0,0,1,0,62.943V28.933a5.306,5.306,0,0,1,5.338-5.26H39.351a5.275,5.275,0,0,1,5.277,5.26v34.01A5.324,5.324,0,0,1,39.35,68.3M5.338,24.915a4.063,4.063,0,0,0-4.1,4.019v34.01a4.161,4.161,0,0,0,4.1,4.116H39.35a4.132,4.132,0,0,0,4.036-4.116V28.933a4.032,4.032,0,0,0-4.036-4.019Z" transform="translate(0 -6.229)"/>
        </g>
      </g>
      <g id="Grupo_1156245" data-name="Grupo 1156245" transform="translate(12.179 27.444)">
        <g id="Grupo_1156244" data-name="Grupo 1156244" clip-path="url(#clip-path-11)">
          <rect id="Rectángulo_431796" data-name="Rectángulo 431796" width="30.454" height="31.606" transform="matrix(0.819, -0.574, 0.574, 0.819, -11.57, 8.101)" fill="url(#linear-gradient-6)"/>
        </g>
      </g>
      <g id="Grupo_1156247" data-name="Grupo 1156247" transform="translate(0 -0.001)">
        <g id="Grupo_1156246" data-name="Grupo 1156246" clip-path="url(#clip-path-2)">
          <path id="Trazado_1001192" data-name="Trazado 1001192" d="M28.249,62.271H24.516a1.894,1.894,0,0,1-1.961-1.813V43.341H17.642a1.892,1.892,0,0,1-1.955-1.816V38.353A2,2,0,0,1,17.642,36.4H35.047a1.887,1.887,0,0,1,1.815,1.949v3.172a1.776,1.776,0,0,1-1.815,1.816H30.161V60.458a1.845,1.845,0,0,1-1.913,1.813M17.642,37.646a.769.769,0,0,0-.713.707v3.172a.668.668,0,0,0,.713.575h5.534a.621.621,0,0,1,.62.621V60.458c0,.341.372.571.72.571h3.733a.618.618,0,0,0,.672-.571V42.721a.621.621,0,0,1,.62-.621h5.506a.532.532,0,0,0,.573-.575V38.353a.656.656,0,0,0-.573-.707Z" transform="translate(-4.128 -9.579)"/>
        </g>
      </g>
    </g>
  </g>
</svg>
