<svg xmlns="http://www.w3.org/2000/svg" width="75.496" height="70.797" viewBox="0 0 75.496 70.797">
  <g id="video-conference_9287766" transform="translate(-6.5 -22.562)">
    <g id="Grupo_1156256" data-name="Grupo 1156256" transform="translate(7.5 23.562)">
      <g id="Grupo_1156255" data-name="Grupo 1156255" transform="translate(0 0)">
        <g id="Grupo_1156254" data-name="Grupo 1156254">
          <path id="Trazado_1001195" data-name="Trazado 1001195" d="M206.133,189.23h-9.317l-31.18,17.817v10.43a9.614,9.614,0,0,0,9.614,9.614h2.635v3.118a3.262,3.262,0,0,0,5.6,2.276l5.26-5.394h17.389a9.614,9.614,0,0,0,9.614-9.614V198.844A9.614,9.614,0,0,0,206.133,189.23Z" transform="translate(-142.251 -164.731)" fill="#b4e6d2"/>
          <path id="Trazado_1001196" data-name="Trazado 1001196" d="M192.363,189.23l-26.726,13.363v4.454h1.741l3.95,4.052a7.713,7.713,0,0,0,13.142-4.159,14.064,14.064,0,0,0,12.347-13.962V189.23Z" transform="translate(-142.252 -164.731)" fill="#2a8d71"/>
          <path id="Trazado_1001197" data-name="Trazado 1001197" d="M139.2,66.819a3.262,3.262,0,0,0,5.6-2.278V61.423h2.635a9.613,9.613,0,0,0,9.614-9.614V33.176a9.614,9.614,0,0,0-9.614-9.614H129.668C121.948,35.4,121.7,50.2,133.454,61.423h.491Z" transform="translate(-106.94 -23.562)" fill="#eeecff"/>
          <path id="Trazado_1001198" data-name="Trazado 1001198" d="M30.227,23.563H17.114A9.614,9.614,0,0,0,7.5,33.177V51.811a9.614,9.614,0,0,0,9.614,9.614h16.9C28.46,50.207,26.646,35.4,30.227,23.563Z" transform="translate(-7.5 -23.563)" fill="#d3d3ff"/>
          <path id="Trazado_1001199" data-name="Trazado 1001199" d="M213.568,119.871v3.618a3.375,3.375,0,0,1-4.561,3.161l-4.347-1.63q-4.751-3.34,0-6.681l4.347-1.63A3.377,3.377,0,0,1,213.568,119.871Z" transform="translate(-173.48 -102.749)" fill="#7a4bb0"/>
          <path id="Trazado_1001200" data-name="Trazado 1001200" d="M147.038,104.254V96.237a4.9,4.9,0,0,0-4.9-4.9h-5.3c-3.231,5.968-3.051,12.1,1.81,17.817h3.49A4.9,4.9,0,0,0,147.038,104.254Z" transform="translate(-115.858 -81.315)" fill="#cbbfda"/>
          <path id="Trazado_1001201" data-name="Trazado 1001201" d="M112.464,91.336h-4.277c-2.743,6.13-2.933,12.083,0,17.817h6.087A56.758,56.758,0,0,1,112.464,91.336Z" transform="translate(-91.484 -81.314)" fill="#7a4bb0"/>
          <path id="Trazado_1001202" data-name="Trazado 1001202" d="M81.954,91.336v17.817H80.173a4.9,4.9,0,0,1-4.9-4.9V96.236a4.9,4.9,0,0,1,4.9-4.9h1.782Z" transform="translate(-65.251 -81.314)" fill="#512189"/>
        </g>
      </g>
    </g>
    <g id="Grupo_1156258" data-name="Grupo 1156258" transform="translate(7.5 23.562)">
      <g id="Grupo_1156257" data-name="Grupo 1156257" transform="translate(0 0)">
        <path id="Trazado_1001203" data-name="Trazado 1001203" d="M96.431,103.585v.668a4.9,4.9,0,0,1-4.9,4.9H80.173a4.9,4.9,0,0,1-4.9-4.9V96.236a4.9,4.9,0,0,1,4.9-4.9H91.531a4.9,4.9,0,0,1,4.9,4.9V96.9" transform="translate(-65.251 -81.314)" fill="none" stroke="#000" stroke-linecap="round" stroke-linejoin="round" stroke-miterlimit="10" stroke-width="2"/>
        <path id="Trazado_1001204" data-name="Trazado 1001204" d="M218.348,118.34l4.347-1.63a3.377,3.377,0,0,1,4.561,3.163v3.618a3.375,3.375,0,0,1-4.561,3.161l-4.347-1.63Z" transform="translate(-187.168 -102.75)" fill="none" stroke="#000" stroke-linecap="round" stroke-linejoin="round" stroke-miterlimit="10" stroke-width="2"/>
        <line id="Línea_4397" data-name="Línea 4397" y2="17.817" transform="translate(16.703 10.022)" fill="none" stroke="#000" stroke-linecap="round" stroke-linejoin="round" stroke-miterlimit="10" stroke-width="2"/>
        <path id="Trazado_1001205" data-name="Trazado 1001205" d="M24.564,23.562H48a9.613,9.613,0,0,1,9.614,9.614V51.81A9.612,9.612,0,0,1,48,61.423H45.361v3.119a3.262,3.262,0,0,1-5.6,2.277l-5.26-5.4H17.114A9.614,9.614,0,0,1,7.5,51.81V33.176a9.614,9.614,0,0,1,9.614-9.614h2.274" transform="translate(-7.5 -23.562)" fill="none" stroke="#000" stroke-linecap="round" stroke-linejoin="round" stroke-miterlimit="10" stroke-width="2"/>
        <path id="Trazado_1001206" data-name="Trazado 1001206" d="M215.75,285.979v8.5a9.614,9.614,0,0,1-9.614,9.614H188.747l-5.262,5.393a3.262,3.262,0,0,1-5.6-2.276v-3.117h-2.635a9.613,9.613,0,0,1-9.614-9.614V279.592" transform="translate(-142.254 -241.731)" fill="none" stroke="#000" stroke-linecap="round" stroke-linejoin="round" stroke-miterlimit="10" stroke-width="2"/>
        <path id="Trazado_1001207" data-name="Trazado 1001207" d="M346.36,189.232h13.772a9.614,9.614,0,0,1,9.614,9.614v4.96" transform="translate(-296.25 -164.733)" fill="none" stroke="#000" stroke-linecap="round" stroke-linejoin="round" stroke-miterlimit="10" stroke-width="2"/>
        <line id="Línea_4398" data-name="Línea 4398" x1="19.049" transform="translate(46.651 35.634)" fill="none" stroke="#000" stroke-linecap="round" stroke-linejoin="round" stroke-miterlimit="10" stroke-width="2"/>
        <path id="Trazado_1001208" data-name="Trazado 1001208" d="M285.021,317.245H256.08" transform="translate(-219.32 -273.816)" fill="none" stroke="#000" stroke-linecap="round" stroke-linejoin="round" stroke-miterlimit="10" stroke-width="2"/>
        <line id="Línea_4399" data-name="Línea 4399" x2="34.521" transform="translate(31.18 51.224)" fill="none" stroke="#000" stroke-linecap="round" stroke-linejoin="round" stroke-miterlimit="10" stroke-width="2"/>
      </g>
    </g>
  </g>
</svg>
