<svg id="Grupo_1150957" data-name="Grupo 1150957" xmlns="http://www.w3.org/2000/svg" width="85" height="71.554" viewBox="0 0 85 71.554">
  <g id="Grupo_1150935" data-name="Grupo 1150935">
    <path id="Trazado_987198" data-name="Trazado 987198" d="M83.447,111.553H18.726C7.025,111.553,0,109.362,0,100.026V41.239A1.423,1.423,0,0,1,1.553,40H66.36C78.061,40,85,44.06,85,53.4v56.918a1.423,1.423,0,0,1-1.553,1.239" transform="translate(0 -40)" fill="#4db593"/>
  </g>
  <g id="Grupo_1150956" data-name="Grupo 1150956" transform="translate(13.707 13.593)">
    <path id="Trazado_888390" data-name="Trazado 888390" d="M216.491,110.266l-7.1-4.387v17.547l7.1-4.387,7.1-4.387Zm0,0" transform="translate(-185.367 -93.731)" fill="#fff" fill-rule="evenodd"/>
    <path id="Trazado_888391" data-name="Trazado 888391" d="M32.852,21l7.1,4.387,7.1,4.387-7.1,4.387-7.1,4.387V21ZM10.414,39.747c.6,5.751,2.91,8.045,7.583,8.773,8.8,1.372,31.6,1.372,40.407,0,4.672-.729,6.981-3.022,7.583-8.773a112.855,112.855,0,0,0,0-19.942c-.6-5.751-2.91-8.045-7.583-8.773-8.8-1.372-31.6-1.372-40.407,0-4.673.729-6.982,3.023-7.583,8.773A112.941,112.941,0,0,0,10.414,39.747Zm0,0" transform="translate(-8.828 -8.854)" fill="#ffc4a3" fill-rule="evenodd"/>
    <path id="Trazado_888392" data-name="Trazado 888392" d="M37.844,44.884c-2.7.091-5.546.138-8.473.138A152.427,152.427,0,0,1,9.345,44.006c-4.358-.679-6.09-2.71-6.619-7.759a112.216,112.216,0,0,1,0-19.7c.528-5.049,2.26-7.079,6.619-7.759.708-.111,1.539-.216,2.472-.312A1.147,1.147,0,1,0,11.58,6.19c-.972.1-1.842.211-2.589.327a9.538,9.538,0,0,0-6,2.873C1.583,10.969.772,13.166.444,16.3a114.954,114.954,0,0,0,0,20.18c.329,3.139,1.139,5.336,2.551,6.915a9.536,9.536,0,0,0,6,2.872,154.478,154.478,0,0,0,20.38,1.043c2.953,0,5.829-.047,8.55-.139a1.148,1.148,0,0,0-.078-2.294Zm0,0" transform="translate(0 -5.474)"/>
    <path id="Trazado_888393" data-name="Trazado 888393" d="M210.4,10.831c-.328-3.138-1.139-5.336-2.551-6.915a9.538,9.538,0,0,0-6-2.872A154.488,154.488,0,0,0,181.473,0c-2.953,0-5.829.047-8.55.139A1.148,1.148,0,1,0,173,2.433c2.695-.091,5.546-.138,8.473-.138A152.442,152.442,0,0,1,201.5,3.311c4.358.68,6.09,2.71,6.618,7.759a112.128,112.128,0,0,1,0,19.7c-.528,5.049-2.26,7.079-6.618,7.759-.708.11-1.539.215-2.472.312a1.147,1.147,0,0,0,.117,2.289c.04,0,.08,0,.12-.006.971-.1,1.842-.211,2.588-.327a9.54,9.54,0,0,0,6-2.872c1.412-1.58,2.222-3.777,2.551-6.915A114.961,114.961,0,0,0,210.4,10.831Zm0,0" transform="translate(-152.102 0)"/>
    <path id="Trazado_888394" data-name="Trazado 888394" d="M215.342,104.82l-14.2-8.774a1.147,1.147,0,0,0-1.751.976v17.547a1.148,1.148,0,0,0,1.751.976l14.2-8.773a1.147,1.147,0,0,0,0-1.952Zm-13.656,7.692V99.08l10.87,6.716Zm0,0" transform="translate(-176.514 -84.875)"/>
    <path id="Trazado_888395" data-name="Trazado 888395" d="M133,5.327l.078,0a1.148,1.148,0,0,0-.153-2.29h0A1.147,1.147,0,0,0,133,5.327Zm0,0" transform="translate(-116.721 -2.684)"/>
    <path id="Trazado_888396" data-name="Trazado 888396" d="M361.217,341.664a1.147,1.147,0,0,0,.075,2.292l.078,0h0a1.147,1.147,0,0,0-.153-2.29Zm0,0" transform="translate(-318.825 -302.462)"/>
  </g>
</svg>
