<svg xmlns="http://www.w3.org/2000/svg" xmlns:xlink="http://www.w3.org/1999/xlink" width="49.002" height="47.238" viewBox="0 0 49.002 47.238">
  <defs>
    <linearGradient id="linear-gradient" x1="0.5" x2="0.5" y2="1" gradientUnits="objectBoundingBox">
      <stop offset="0" stop-color="#0eaed4"/>
      <stop offset="1" stop-color="#822cd6"/>
    </linearGradient>
  </defs>
  <g id="Grupo_1156621" data-name="Grupo 1156621" transform="translate(-180 -3326.834)">
    <g id="Grupo_1150907" data-name="Grupo 1150907" transform="translate(0.332 2498.834)">
      <rect id="Rect치ngulo_429207" data-name="Rect치ngulo 429207" width="45.847" height="42.32" transform="translate(179.668 828)" fill="#391760"/>
      <path id="Uni칩n_7" data-name="Uni칩n 7" d="M19051.8,8187v-1.533a3.514,3.514,0,0,1,3.516-3.511h16.395a3.51,3.51,0,0,1,3.516,3.511V8187Zm8.354-6.725a1.683,1.683,0,0,1-1.682-1.681v-1.681h-11.77a5.047,5.047,0,0,1-5.043-5.043v-23.537a5.048,5.048,0,0,1,5.043-5.044h33.625a5.048,5.048,0,0,1,5.045,5.044v23.537a5.048,5.048,0,0,1-5.045,5.043h-11.768v1.681a1.763,1.763,0,0,1-1.682,1.681Zm19.418-6.725a1.219,1.219,0,1,0,1.217-1.222A1.215,1.215,0,0,0,19079.576,8173.553Zm-34.549-25.218v20.174a1.686,1.686,0,0,0,1.68,1.682h33.625a1.687,1.687,0,0,0,1.682-1.682v-20.174a1.687,1.687,0,0,0-1.682-1.681h-33.625A1.686,1.686,0,0,0,19045.027,8148.334Zm17.031,17.138,1.787-6.141c1.566,1.054,3.176,1.83,6.859.57l-1.725,5.982a9.073,9.073,0,0,1-3.455.81A5.863,5.863,0,0,1,19062.059,8165.472Zm-7.859-.958,1.762-6.14.025-.01c3.605-1.485,5.35-.694,6.916.369l-1.807,6.208C19059.525,8163.882,19057.82,8163.01,19054.2,8164.514Zm9.943-6.217,1.781-6.188c1.563,1.059,3.3,1.9,6.918.407l-1.783,6.16a8.4,8.4,0,0,1-3.414.84A5.988,5.988,0,0,1,19064.143,8158.3Zm-4.344-1.926a9.264,9.264,0,0,0-3.525.857l1.787-6.174c3.615-1.5,5.354-.651,6.926.412l-1.787,6.146A5.907,5.907,0,0,0,19059.8,8156.372Z" transform="translate(-18856.707 -7311.764)" fill="url(#linear-gradient)"/>
    </g>
  </g>
</svg>
