<svg xmlns="http://www.w3.org/2000/svg" xmlns:xlink="http://www.w3.org/1999/xlink" width="160" height="161.333" viewBox="0 0 160 161.333">
  <defs>
    <clipPath id="clip-path">
      <rect id="Rect치ngulo_431806" data-name="Rect치ngulo 431806" width="125.821" height="115.906" fill="#7a4bb0" stroke="#12263f" stroke-width="3"/>
    </clipPath>
  </defs>
  <g id="Grupo_1156624" data-name="Grupo 1156624" transform="translate(-462.379 -6156.533)">
    <g id="Grupo_1142194" data-name="Grupo 1142194" transform="translate(72.051 5024.326)">
      <path id="Rect치ngulo_403519" data-name="Rect치ngulo 403519" d="M80,0h0a80,80,0,0,1,80,80v81.333a0,0,0,0,1,0,0H0a0,0,0,0,1,0,0V80A80,80,0,0,1,80,0Z" transform="translate(390.328 1132.207)" fill="#32deff"/>
    </g>
    <g id="Grupo_1156259" data-name="Grupo 1156259" transform="translate(479.8 6195.16)">
      <g id="Grupo_1156259-2" data-name="Grupo 1156259" transform="translate(0 0)" clip-path="url(#clip-path)">
        <path id="Trazado_1001209" data-name="Trazado 1001209" d="M47.423,35.452a13.5,13.5,0,0,1-27,0A13.073,13.073,0,0,1,21.46,30.3a13.475,13.475,0,0,1,24.922,0A13.073,13.073,0,0,1,47.423,35.452Z" transform="translate(28.989 31.161)" fill="#7a4bb0" stroke="#12263f" stroke-linecap="round" stroke-linejoin="round" stroke-width="3"/>
        <path id="Trazado_1001210" data-name="Trazado 1001210" d="M63.471,56.716c0,13.042-47.231,13.042-47.231,0a23.6,23.6,0,0,1,45.392-9.1A23.321,23.321,0,0,1,63.471,56.716Z" transform="translate(23.055 46.99)" fill="#7a4bb0" stroke="#12263f" stroke-linecap="round" stroke-linejoin="round" stroke-width="3"/>
        <path id="Trazado_1001211" data-name="Trazado 1001211" d="M47.408,14.492A13.492,13.492,0,1,1,33.916,1,13.492,13.492,0,0,1,47.408,14.492Z" transform="translate(28.995 1.419)" fill="#7a4bb0" stroke="#12263f" stroke-linecap="round" stroke-linejoin="round" stroke-width="3"/>
        <path id="Trazado_1001212" data-name="Trazado 1001212" d="M63.471,35.766c0,4.113-4.694,6.944-11.155,8.445a13.475,13.475,0,0,0-24.922,0c-6.46-1.5-11.155-4.331-11.155-8.445,0-.387,0-.75.024-1.113.024-.024.024-.048,0-.1a12.179,12.179,0,0,0,.194-1.912,23.611,23.611,0,0,1,46.8-.1v.024c.1.726.169,1.476.194,2.226C63.471,35.112,63.471,35.427,63.471,35.766Z" transform="translate(23.055 17.248)" fill="#7a4bb0" stroke="#12263f" stroke-linecap="round" stroke-linejoin="round" stroke-width="3"/>
        <path id="Trazado_1001213" data-name="Trazado 1001213" d="M62.648,28.492A13.491,13.491,0,1,1,49.156,15,13.492,13.492,0,0,1,62.648,28.492Z" transform="translate(50.634 21.294)" fill="#7a4bb0" stroke="#12263f" stroke-linecap="round" stroke-linejoin="round" stroke-width="3"/>
        <path id="Trazado_1001214" data-name="Trazado 1001214" d="M78.612,49.766c0,9.509-25.14,12.1-38.714,7.719A23.632,23.632,0,0,0,31.55,47.152a23.6,23.6,0,0,1,47.062,2.613Z" transform="translate(44.79 37.123)" fill="#7a4bb0" stroke="#12263f" stroke-linecap="round" stroke-linejoin="round" stroke-width="3"/>
        <path id="Trazado_1001215" data-name="Trazado 1001215" d="M32.163,28.441A13.491,13.491,0,1,1,18.671,14.949,13.492,13.492,0,0,1,32.163,28.441Z" transform="translate(7.357 21.222)" fill="#7a4bb0" stroke="#12263f" stroke-linecap="round" stroke-linejoin="round" stroke-width="3"/>
        <path id="Trazado_1001216" data-name="Trazado 1001216" d="M48.086,47.223A23.519,23.519,0,0,0,39.763,57.41C26.188,61.814,1,59.249,1,49.716a23.609,23.609,0,0,1,47.086-2.492Z" transform="translate(1.42 37.052)" fill="#7a4bb0" stroke="#12263f" stroke-linecap="round" stroke-linejoin="round" stroke-width="3"/>
      </g>
    </g>
  </g>
</svg>
