<svg xmlns="http://www.w3.org/2000/svg" xmlns:xlink="http://www.w3.org/1999/xlink" width="295.289" height="246" viewBox="0 0 295.289 246">
  <defs>
    <clipPath id="clip-path">
      <rect id="Rectángulo_431934" data-name="Rectángulo 431934" width="295.289" height="227.095" fill="none"/>
    </clipPath>
  </defs>
  <g id="Grupo_1156635" data-name="Grupo 1156635" transform="translate(-1124.711 -5662)">
    <rect id="Rectángulo_431932" data-name="Rectángulo 431932" width="295" height="246" transform="translate(1124.711 5662)" fill="#3571c7"/>
    <g id="Grupo_1156608" data-name="Grupo 1156608" transform="translate(1124.711 5680.906)">
      <g id="Grupo_1156607" data-name="Grupo 1156607" clip-path="url(#clip-path)">
        <path id="Trazado_1001527" data-name="Trazado 1001527" d="M127.62,435.5a70.136,70.136,0,0,0,13.087,40.415V395.088A70.137,70.137,0,0,0,127.62,435.5" transform="translate(-108.648 -336.354)" fill="#3e73b8"/>
        <path id="Trazado_1001528" data-name="Trazado 1001528" d="M483.029,122.725a119.733,119.733,0,0,0-28.762-3.47c-22.391,0-43.05,6.072-59.665,16.313h89.424Z" transform="translate(-335.94 -101.527)" fill="#3e73b8"/>
        <path id="Trazado_1001529" data-name="Trazado 1001529" d="M1387.807,508.106c0-.779.138-2.769.324-5.277h-1.964v62.622a69.731,69.731,0,0,0,11.614-38.223,67.623,67.623,0,0,0-.439-7.639c-4.462-2.519-9.536-6.482-9.536-11.483" transform="translate(-1180.1 -428.078)" fill="#3e73b8"/>
        <path id="Trazado_1001530" data-name="Trazado 1001530" d="M266.639,1393.539c36.718,0,69.482-5.927,90.944-15.2H175.694c21.463,9.272,54.227,15.2,90.945,15.2" transform="translate(-149.575 -1173.436)" fill="#c5d7f4"/>
        <path id="Trazado_1001531" data-name="Trazado 1001531" d="M1389.271,1029.416l21.333,31.937a16.894,16.894,0,0,0,3.219-9.586c0-10.187-10.6-19.506-28.129-26.68a16.3,16.3,0,0,1,3.577,4.329" transform="translate(-1179.697 -872.698)" fill="#c5d7f4"/>
        <path id="Trazado_1001532" data-name="Trazado 1001532" d="M1336.366,1011.291c-.318-.116-.64-.231-.961-.345a7.887,7.887,0,0,1-2.309.345Z" transform="translate(-1134.918 -860.659)" fill="#315d96"/>
        <path id="Trazado_1001533" data-name="Trazado 1001533" d="M36.369,1006.8h3.58a7.841,7.841,0,0,1-4.051-1.129C13.771,1013.141,0,1023.627,0,1035.242c0,4.3,1.889,8.44,5.384,12.333l23.168-34.685c2.119-3.585,5-6.086,7.817-6.086" transform="translate(0 -856.172)" fill="#c5d7f4"/>
        <path id="Trazado_1001534" data-name="Trazado 1001534" d="M379.981,269.7v67.628H225.329V238.779H332.436l-.759-9.788H223.54a7.89,7.89,0,0,0-7.89,7.89V337.692a7.911,7.911,0,0,0,7.89,7.89H381.77a7.889,7.889,0,0,0,7.89-7.89V269.7Zm-78.563-36.492a.763.763,0,1,1-.763.763.763.763,0,0,1,.763-.763m-6.442-1.237a2,2,0,1,1-2,2,2,2,0,0,1,2-2" transform="translate(-183.591 -194.949)" fill="#0b489b"/>
        <path id="Trazado_1001535" data-name="Trazado 1001535" d="M41.14,1013.267h-3.58c-2.819,0-5.7,2.5-7.817,6.086L6.576,1054.038,1.4,1061.787H239.11l-7.011-10.5-21.333-31.937a16.294,16.294,0,0,0-3.577-4.329,6.846,6.846,0,0,0-4.24-1.757H41.14Zm112.633,44.289H86.736a2.259,2.259,0,0,1-2.04-3l2.35-7.38a2.166,2.166,0,0,1,2.04-1.55h61.932a2.158,2.158,0,0,1,2,1.44l2.756,7.38a2.264,2.264,0,0,1-2,3.111m57.212-15.021H29.525L45.3,1017.2H194.952Z" transform="translate(-1.192 -862.635)" fill="#0b489b"/>
        <path id="Trazado_1001536" data-name="Trazado 1001536" d="M1.439,1339.646c.119,3.2,2.419,5.752,5.246,5.752H233.892c2.827,0,5.127-2.553,5.246-5.752Z" transform="translate(-1.225 -1140.494)" fill="#073473"/>
        <path id="Trazado_1001537" data-name="Trazado 1001537" d="M396.44,382.682H319.724V312.063a4.663,4.663,0,0,1,4.663-4.663h64.451l-.975-12.566H280.756v98.549H435.408V325.754H396.44Z" transform="translate(-239.019 -251.003)" fill="#c5d7f4"/>
        <path id="Trazado_1001538" data-name="Trazado 1001538" d="M206.369,1039.752l-15.779,25.331H372.05l-16.033-25.331Z" transform="translate(-162.257 -885.182)" fill="#073473"/>
        <path id="Trazado_1001539" data-name="Trazado 1001539" d="M629.38,1232.367a2.157,2.157,0,0,0-2-1.44H565.447a2.166,2.166,0,0,0-2.04,1.55l-2.35,7.38a2.259,2.259,0,0,0,2.04,3h67.037a2.264,2.264,0,0,0,2-3.111Z" transform="translate(-477.553 -1047.938)" fill="#073473"/>
        <path id="Trazado_1001540" data-name="Trazado 1001540" d="M737.8,253.037a2,2,0,1,0-2-2,2,2,0,0,0,2,2" transform="translate(-626.419 -212.015)" fill="#1e293c"/>
        <path id="Trazado_1001541" data-name="Trazado 1001541" d="M788.221,258.882a.763.763,0,1,0-.763-.763.763.763,0,0,0,.763.763" transform="translate(-670.395 -219.097)" fill="#fcdbce"/>
        <path id="Trazado_1001542" data-name="Trazado 1001542" d="M542.886,509.652H619.6V452.723h-4.014a2.445,2.445,0,0,1-2.358-2.523l-.483-6.227h-69.86Zm50.7-6.823a2.927,2.927,0,0,1-2.926,2.926H571a2.926,2.926,0,0,1-2.926-2.926v-.175A2.926,2.926,0,0,1,571,499.728h19.661a2.926,2.926,0,0,1,2.926,2.926Zm10.088-13.788a3.41,3.41,0,0,1,2.477,1.069l-.007-.018c.076.079.137.171.2.257s.126.145.18.226a3.366,3.366,0,0,1,.182.336c.042.081.092.156.127.24a3.436,3.436,0,0,1,.129.416c.021.074.051.144.066.22a3.427,3.427,0,0,1-3.359,4.111,3.39,3.39,0,0,1-.618-.063c-.056-.01-.11-.023-.166-.036a3.42,3.42,0,0,1-.462-.143c-.04-.016-.082-.028-.121-.045a3.435,3.435,0,0,1-.514-.279c-.039-.026-.074-.055-.112-.082a3.4,3.4,0,0,1-.357-.295c-.04-.038-.08-.075-.119-.114a3.485,3.485,0,0,1-.371-.449c-.008-.011-.013-.024-.02-.035a3.414,3.414,0,0,1-.214-.367c.009.009.02.015.029.024a3.389,3.389,0,0,1-.384-1.544,3.428,3.428,0,0,1,3.428-3.428m-22.428-39.785c5.6,0,10.132,4.985,10.132,11.135a11.745,11.745,0,0,1-2.434,7.228l0,.008c-.062.08-.134.151-.2.229-.148.179-.3.357-.454.525-.1.1-.2.2-.3.3-.155.153-.312.3-.475.444-.11.1-.223.186-.337.277-.164.131-.331.258-.5.378-.121.085-.243.166-.367.245-.175.111-.353.216-.535.316-.129.071-.258.142-.39.207-.187.093-.378.175-.571.255-.134.055-.267.113-.4.163-.2.074-.411.134-.62.194-.133.038-.264.081-.4.113-.233.055-.471.094-.71.131-.117.018-.23.045-.348.058a8.963,8.963,0,0,1-2.182,0c-.118-.014-.232-.04-.348-.058-.239-.037-.477-.076-.71-.131-.135-.032-.266-.075-.4-.113-.209-.059-.417-.12-.62-.194-.137-.05-.27-.107-.4-.163-.193-.08-.384-.163-.571-.255-.132-.065-.261-.135-.39-.206-.182-.1-.36-.2-.535-.316-.124-.079-.247-.161-.367-.245-.172-.121-.339-.247-.5-.379-.113-.091-.226-.181-.336-.276-.163-.142-.32-.292-.476-.445-.1-.1-.2-.195-.3-.3-.158-.168-.307-.346-.454-.525-.064-.078-.136-.149-.2-.229l0-.008a11.745,11.745,0,0,1-2.434-7.228c0-6.149,4.536-11.135,10.132-11.135M563.47,475.443a.913.913,0,0,1,.913-.913h33a.913.913,0,0,1,.913.913v7.66a.913.913,0,0,1-.913.913h-33a.913.913,0,0,1-.913-.913Zm0,13.216a.913.913,0,0,1,.913-.913h33a.913.913,0,0,1,.913.913v7.66a.913.913,0,0,1-.913.913h-33a.913.913,0,0,1-.913-.913Z" transform="translate(-462.181 -377.973)" fill="#fff"/>
        <path id="Trazado_1001543" data-name="Trazado 1001543" d="M794.663,628.922a9.3,9.3,0,0,1-1.091-.067,9.3,9.3,0,0,0,1.091.067" transform="translate(-675.6 -535.369)" fill="#008abe"/>
        <path id="Trazado_1001544" data-name="Trazado 1001544" d="M773.614,622.964c-.193-.08-.384-.163-.571-.255.187.092.378.175.571.255" transform="translate(-658.122 -530.137)" fill="#008abe"/>
        <path id="Trazado_1001545" data-name="Trazado 1001545" d="M787.164,627.709c-.238-.037-.477-.076-.709-.131.233.055.471.094.709.131" transform="translate(-669.541 -534.282)" fill="#008abe"/>
        <path id="Trazado_1001546" data-name="Trazado 1001546" d="M780.224,625.711c-.209-.059-.417-.12-.62-.194.2.074.411.134.62.194" transform="translate(-663.708 -532.528)" fill="#008abe"/>
        <path id="Trazado_1001547" data-name="Trazado 1001547" d="M767.352,619.508c-.181-.1-.36-.2-.535-.316.175.112.354.216.535.316" transform="translate(-652.822 -527.143)" fill="#008abe"/>
        <path id="Trazado_1001548" data-name="Trazado 1001548" d="M755.977,610.59c-.164-.142-.321-.292-.476-.445.155.153.312.3.476.445" transform="translate(-643.188 -519.441)" fill="#008abe"/>
        <path id="Trazado_1001549" data-name="Trazado 1001549" d="M761.464,615.376c-.172-.12-.339-.247-.5-.379.165.131.332.258.5.379" transform="translate(-647.836 -523.572)" fill="#008abe"/>
        <path id="Trazado_1001550" data-name="Trazado 1001550" d="M843.6,610.148c-.155.153-.312.3-.475.445.163-.142.32-.292.475-.445" transform="translate(-717.783 -519.443)" fill="#008abe"/>
        <path id="Trazado_1001551" data-name="Trazado 1001551" d="M802,628.855a9.3,9.3,0,0,1-1.091.067,9.3,9.3,0,0,0,1.091-.067" transform="translate(-681.847 -535.369)" fill="#008abe"/>
        <path id="Trazado_1001552" data-name="Trazado 1001552" d="M831.937,619.192c-.175.112-.354.216-.535.316.182-.1.36-.2.535-.316" transform="translate(-707.806 -527.143)" fill="#008abe"/>
        <path id="Trazado_1001553" data-name="Trazado 1001553" d="M750.9,605.142c-.158-.168-.307-.346-.454-.525.148.179.3.357.454.525" transform="translate(-638.882 -514.735)" fill="#008abe"/>
        <path id="Trazado_1001554" data-name="Trazado 1001554" d="M837.975,615c-.164.131-.332.258-.5.378.172-.12.339-.247.5-.378" transform="translate(-712.973 -523.573)" fill="#008abe"/>
        <path id="Trazado_1001555" data-name="Trazado 1001555" d="M825.5,622.709c-.187.092-.378.175-.571.255.193-.08.384-.163.571-.255" transform="translate(-702.298 -530.137)" fill="#008abe"/>
        <path id="Trazado_1001556" data-name="Trazado 1001556" d="M811.3,627.578c-.233.055-.471.094-.71.131.239-.038.477-.076.71-.131" transform="translate(-690.088 -534.282)" fill="#008abe"/>
        <path id="Trazado_1001557" data-name="Trazado 1001557" d="M818.664,625.518c-.2.073-.411.134-.62.194.209-.06.417-.12.62-.194" transform="translate(-696.434 -532.529)" fill="#008abe"/>
        <path id="Trazado_1001558" data-name="Trazado 1001558" d="M848.773,604.617c-.147.179-.3.357-.454.525.158-.168.307-.346.454-.525" transform="translate(-722.208 -514.735)" fill="#008abe"/>
        <path id="Trazado_1001559" data-name="Trazado 1001559" d="M742.885,492.777c3.637,0,6.709,1.765,7.7,5.087a11.748,11.748,0,0,0,2.434-7.229c0-6.149-4.536-11.135-10.132-11.135s-10.132,4.985-10.132,11.135a11.748,11.748,0,0,0,2.434,7.229c.989-3.323,4.06-5.087,7.7-5.087m0-9.2a4.331,4.331,0,1,1-4.331,4.331,4.331,4.331,0,0,1,4.331-4.331" transform="translate(-623.822 -408.218)" fill="#512189"/>
        <path id="Trazado_1001560" data-name="Trazado 1001560" d="M776.106,515.612a4.331,4.331,0,1,0-4.331-4.331,4.331,4.331,0,0,0,4.331,4.331" transform="translate(-657.043 -431.587)" fill="#cbbfda"/>
        <path id="Trazado_1001561" data-name="Trazado 1001561" d="M756.811,568.807c-3.637,0-6.709,1.765-7.7,5.087l0,.008c.062.08.134.151.2.229.148.179.3.357.454.525.1.1.2.2.3.3.155.153.312.3.476.445.11.1.223.186.336.276.164.131.332.258.5.378.121.085.243.166.367.245.175.111.354.216.535.316.129.071.258.141.39.206.187.092.378.175.571.255.134.055.267.113.4.162.2.074.411.134.62.193.133.038.264.081.4.113.233.055.471.094.709.131.117.018.231.045.349.058a8.966,8.966,0,0,0,2.181,0c.118-.014.232-.04.348-.058.239-.037.477-.076.71-.131.135-.032.266-.075.4-.113.209-.06.417-.12.62-.194.137-.049.27-.107.4-.162.193-.08.384-.163.571-.255.132-.065.261-.135.39-.207.181-.1.36-.2.535-.316.124-.079.247-.16.368-.245.172-.12.339-.247.5-.378.113-.091.227-.181.337-.277.163-.142.32-.292.475-.444.1-.1.2-.195.3-.3.158-.168.307-.346.454-.525.065-.078.136-.149.2-.229l0-.008c-.989-3.322-4.06-5.087-7.7-5.087" transform="translate(-637.748 -484.248)" fill="#cbbfda"/>
        <path id="Trazado_1001562" data-name="Trazado 1001562" d="M542.886,384.026v4.942h69.86l-.279-3.6-.8-.8-1.011,1.011a.451.451,0,1,1-.638-.638l1.011-1.012-1.011-1.011a.451.451,0,1,1,.638-.638l1.011,1.011.59-.59-.26-3.347H547.549a4.663,4.663,0,0,0-4.663,4.663m60.319-1.483a.451.451,0,0,1,.451-.451h2.876a.452.452,0,0,1,.451.451v2.876a.451.451,0,0,1-.451.451h-2.876a.451.451,0,0,1-.451-.451Zm-6.125.987h2.876a.451.451,0,1,1,0,.9H597.08a.451.451,0,1,1,0-.9" transform="translate(-462.181 -322.967)" fill="#512189"/>
        <rect id="Rectángulo_431933" data-name="Rectángulo 431933" width="1.974" height="1.974" transform="translate(141.926 60.027)" fill="#073473"/>
        <path id="Trazado_1001563" data-name="Trazado 1001563" d="M1009.922,409.939l-.007-.1-.044.044Z" transform="translate(-859.744 -348.916)" fill="#008abe"/>
        <path id="Trazado_1001564" data-name="Trazado 1001564" d="M994.366,398.288a.451.451,0,0,0-.638.638l1.011,1.012.638-.638Z" transform="translate(-845.888 -338.966)" fill="#fff"/>
        <path id="Trazado_1001565" data-name="Trazado 1001565" d="M1005.58,410.778l.8.8-.107-1.383-.052-.051Z" transform="translate(-856.09 -349.169)" fill="#fff"/>
        <path id="Trazado_1001566" data-name="Trazado 1001566" d="M994.74,403.107l-1.012,1.011a.451.451,0,0,0,.638.638l1.011-1.011.638-.638.044-.044-.092-1.184-.59.59Z" transform="translate(-845.888 -342.136)" fill="#fff"/>
        <path id="Trazado_1001567" data-name="Trazado 1001567" d="M949.087,401.5h2.876a.451.451,0,0,0,.451-.451v-2.876a.452.452,0,0,0-.451-.451h-2.876a.451.451,0,0,0-.451.451v2.876a.451.451,0,0,0,.451.451m2.425-.9h-1.974v-1.974h1.974Z" transform="translate(-807.612 -338.595)" fill="#fff"/>
        <path id="Trazado_1001568" data-name="Trazado 1001568" d="M904.851,408.3h2.876a.451.451,0,0,0,0-.9h-2.876a.451.451,0,1,0,0,.9" transform="translate(-769.952 -346.831)" fill="#fff"/>
        <path id="Trazado_1001569" data-name="Trazado 1001569" d="M682.265,659.005h33a.913.913,0,0,0,.913-.913v-7.66a.913.913,0,0,0-.913-.913h-33a.913.913,0,0,0-.913.913v7.66a.913.913,0,0,0,.913.913m0-7.714a.913.913,0,0,1,.913-.913h31.061a.913.913,0,0,1,.913.913v5.943a.913.913,0,0,1-.913.913H683.178a.913.913,0,0,1-.913-.913Z" transform="translate(-580.062 -552.962)" fill="#b0c0c9"/>
        <path id="Trazado_1001570" data-name="Trazado 1001570" d="M688.406,663.061h31.061a.913.913,0,0,0,.913-.913V656.2a.913.913,0,0,0-.913-.913H688.406a.913.913,0,0,0-.913.913v5.943a.913.913,0,0,0,.913.913m24.936-3.4h3.181a.351.351,0,1,1,0,.7h-3.181a.351.351,0,1,1,0-.7m-4.5,0h3.181a.351.351,0,0,1,0,.7h-3.181a.351.351,0,1,1,0-.7m-4.5,0h3.181a.351.351,0,0,1,0,.7h-3.181a.351.351,0,0,1,0-.7m-4.5,0h3.181a.351.351,0,1,1,0,.7H699.83a.351.351,0,0,1,0-.7m-4.5,0h3.181a.351.351,0,1,1,0,.7h-3.181a.351.351,0,0,1,0-.7m-4.5,0H694a.351.351,0,1,1,0,.7h-3.181a.351.351,0,1,1,0-.7" transform="translate(-585.29 -557.876)" fill="#cadfeb"/>
        <path id="Trazado_1001571" data-name="Trazado 1001571" d="M707.873,685.369h3.181a.351.351,0,1,0,0-.7h-3.181a.351.351,0,1,0,0,.7" transform="translate(-602.342 -582.884)" fill="#b0c0c9"/>
        <path id="Trazado_1001572" data-name="Trazado 1001572" d="M738.172,685.369h3.181a.351.351,0,1,0,0-.7h-3.181a.351.351,0,0,0,0,.7" transform="translate(-628.137 -582.884)" fill="#b0c0c9"/>
        <path id="Trazado_1001573" data-name="Trazado 1001573" d="M768.468,685.369h3.181a.351.351,0,1,0,0-.7h-3.181a.351.351,0,1,0,0,.7" transform="translate(-653.929 -582.884)" fill="#b0c0c9"/>
        <path id="Trazado_1001574" data-name="Trazado 1001574" d="M798.766,685.369h3.181a.351.351,0,1,0,0-.7h-3.181a.351.351,0,0,0,0,.7" transform="translate(-679.723 -582.884)" fill="#b0c0c9"/>
        <path id="Trazado_1001575" data-name="Trazado 1001575" d="M829.062,685.369h3.181a.351.351,0,1,0,0-.7h-3.181a.351.351,0,1,0,0,.7" transform="translate(-705.515 -582.884)" fill="#b0c0c9"/>
        <path id="Trazado_1001576" data-name="Trazado 1001576" d="M859.361,685.369h3.181a.351.351,0,1,0,0-.7h-3.181a.351.351,0,1,0,0,.7" transform="translate(-731.31 -582.884)" fill="#b0c0c9"/>
        <path id="Trazado_1001577" data-name="Trazado 1001577" d="M682.265,747.9h33a.913.913,0,0,0,.913-.913v-7.66a.913.913,0,0,0-.913-.913h-33a.913.913,0,0,0-.913.913v7.66a.913.913,0,0,0,.913.913m0-7.714a.913.913,0,0,1,.913-.913h31.061a.913.913,0,0,1,.913.913v5.943a.913.913,0,0,1-.913.913H683.178a.913.913,0,0,1-.913-.913Z" transform="translate(-580.062 -628.645)" fill="#b0c0c9"/>
        <path id="Trazado_1001578" data-name="Trazado 1001578" d="M688.4,751.959h31.061a.913.913,0,0,0,.913-.913V745.1a.913.913,0,0,0-.913-.913H688.4a.913.913,0,0,0-.913.913v5.943a.913.913,0,0,0,.913.913m25.276-4.185a.351.351,0,0,1,.283-.642l.6.264-.237-.609a.351.351,0,0,1,.654-.254l.237.609.263-.6a.351.351,0,0,1,.642.283l-.264.6.61-.237a.351.351,0,0,1,.254.654l-.609.237.6.264a.351.351,0,0,1-.283.642l-.6-.264.237.61a.351.351,0,1,1-.654.254l-.237-.61-.264.6a.351.351,0,1,1-.642-.283l.264-.6-.61.237a.351.351,0,1,1-.254-.654l.61-.237Zm-4.559,0a.351.351,0,1,1,.283-.642l.6.264-.237-.609a.351.351,0,0,1,.654-.254l.237.609.263-.6a.351.351,0,0,1,.642.283l-.264.6.61-.237a.351.351,0,0,1,.254.654l-.609.237.6.264a.351.351,0,0,1-.283.642l-.6-.264.237.61a.351.351,0,0,1-.654.254l-.237-.61-.264.6a.351.351,0,1,1-.642-.283l.264-.6-.61.237a.351.351,0,1,1-.254-.654l.61-.237Zm-4.559,0a.351.351,0,0,1,.283-.642l.6.264-.237-.609a.351.351,0,0,1,.654-.254l.237.61.264-.6a.351.351,0,0,1,.642.283l-.263.6.61-.237a.351.351,0,0,1,.254.654l-.609.237.6.264a.351.351,0,0,1-.283.642l-.6-.264.237.61a.351.351,0,0,1-.654.254l-.237-.61-.264.6a.351.351,0,1,1-.642-.283l.264-.6-.61.237a.351.351,0,1,1-.254-.654l.61-.237Zm-4.559,0a.351.351,0,0,1,.283-.642l.6.264-.237-.609a.351.351,0,1,1,.654-.254l.237.61.264-.6a.351.351,0,0,1,.642.283l-.264.6.609-.237a.351.351,0,1,1,.254.654l-.609.237.6.264a.351.351,0,1,1-.283.642l-.6-.264.237.61a.351.351,0,1,1-.654.254l-.237-.61-.264.6a.351.351,0,1,1-.642-.283l.264-.6-.61.237a.351.351,0,1,1-.254-.654l.61-.237Zm-4.559,0a.351.351,0,1,1,.283-.642l.6.264-.237-.609a.351.351,0,0,1,.654-.254l.237.61.263-.6a.351.351,0,1,1,.642.283l-.263.6.61-.237a.351.351,0,0,1,.254.654l-.61.237.6.264a.351.351,0,1,1-.283.642l-.6-.264.237.61a.351.351,0,1,1-.654.254l-.237-.61-.263.6a.351.351,0,1,1-.642-.283l.264-.6-.609.237a.351.351,0,1,1-.254-.654l.61-.237Zm-4.559,0a.351.351,0,0,1,.283-.642l.6.264-.237-.609a.351.351,0,0,1,.654-.254l.237.61.264-.6a.351.351,0,0,1,.642.283l-.264.6.61-.237a.351.351,0,0,1,.254.654l-.61.237.6.264a.351.351,0,0,1-.283.642l-.6-.264.237.61a.351.351,0,1,1-.654.254l-.237-.61-.264.6a.351.351,0,1,1-.642-.283l.264-.6-.609.237a.351.351,0,1,1-.254-.654l.61-.237Z" transform="translate(-585.289 -633.559)" fill="#cadfeb"/>
        <path id="Trazado_1001579" data-name="Trazado 1001579" d="M734.881,819.015H715.22a2.926,2.926,0,0,0-2.926,2.926v.175a2.926,2.926,0,0,0,2.926,2.926h19.661a2.926,2.926,0,0,0,2.926-2.926v-.175a2.926,2.926,0,0,0-2.926-2.926" transform="translate(-606.404 -697.26)" fill="#fb5415"/>
        <path id="Trazado_1001580" data-name="Trazado 1001580" d="M720.367,773.772l.237.61a.351.351,0,1,0,.654-.254l-.237-.61-.454-.2Z" transform="translate(-613.277 -658.357)" fill="#b0c0c9"/>
        <path id="Trazado_1001581" data-name="Trazado 1001581" d="M715.4,759.266l-.237-.61a.351.351,0,0,0-.654.254l.237.61.454.2Z" transform="translate(-608.271 -645.683)" fill="#b0c0c9"/>
        <path id="Trazado_1001582" data-name="Trazado 1001582" d="M724.069,765.1l.609-.237a.351.351,0,0,0-.254-.654l-.61.237-.2.454Z" transform="translate(-616.042 -650.584)" fill="#b0c0c9"/>
        <path id="Trazado_1001583" data-name="Trazado 1001583" d="M708.754,770.76a.351.351,0,0,0,.454.2l.61-.237.2-.454-.454-.2-.61.237a.351.351,0,0,0-.2.454" transform="translate(-603.371 -655.591)" fill="#b0c0c9"/>
        <path id="Trazado_1001584" data-name="Trazado 1001584" d="M721.713,769.64l.454.2.6.264a.351.351,0,1,0,.283-.642l-.6-.264L722,769Z" transform="translate(-614.423 -654.679)" fill="#b0c0c9"/>
        <path id="Trazado_1001585" data-name="Trazado 1001585" d="M710.447,764.267l-.454-.2-.6-.264a.351.351,0,0,0-.283.643l.6.263.454.2Z" transform="translate(-603.517 -650.23)" fill="#b0c0c9"/>
        <path id="Trazado_1001586" data-name="Trazado 1001586" d="M714.565,760.508l-.2.454-.264.6a.351.351,0,1,0,.642.283l.264-.6.2-.454.283-.642.2-.454.264-.6a.351.351,0,0,0-.642-.283l-.264.6-.2.454Z" transform="translate(-607.918 -645.83)" fill="#b0c0c9"/>
        <path id="Trazado_1001587" data-name="Trazado 1001587" d="M746.07,759.266l-.237-.61a.351.351,0,0,0-.654.254l.237.61.454.2Z" transform="translate(-634.381 -645.683)" fill="#b0c0c9"/>
        <path id="Trazado_1001588" data-name="Trazado 1001588" d="M751.036,773.772l.237.61a.351.351,0,1,0,.654-.254l-.237-.61-.454-.2Z" transform="translate(-639.387 -658.357)" fill="#b0c0c9"/>
        <path id="Trazado_1001589" data-name="Trazado 1001589" d="M739.424,770.76a.351.351,0,0,0,.454.2l.609-.237.2-.454-.454-.2-.61.237a.351.351,0,0,0-.2.454" transform="translate(-629.481 -655.591)" fill="#b0c0c9"/>
        <path id="Trazado_1001590" data-name="Trazado 1001590" d="M754.74,765.1l.609-.237a.351.351,0,0,0-.254-.654l-.609.237-.2.455Z" transform="translate(-642.154 -650.584)" fill="#b0c0c9"/>
        <path id="Trazado_1001591" data-name="Trazado 1001591" d="M741.116,764.267l-.454-.2-.6-.264a.351.351,0,0,0-.283.643l.6.263.454.2Z" transform="translate(-629.627 -650.23)" fill="#b0c0c9"/>
        <path id="Trazado_1001592" data-name="Trazado 1001592" d="M752.382,769.64l.454.2.6.264a.351.351,0,0,0,.283-.642l-.6-.264-.454-.2Z" transform="translate(-640.533 -654.679)" fill="#b0c0c9"/>
        <path id="Trazado_1001593" data-name="Trazado 1001593" d="M745.234,760.508l-.2.454-.264.6a.351.351,0,1,0,.642.283l.263-.6.2-.454.283-.642.2-.454.263-.6a.351.351,0,0,0-.642-.283l-.263.6-.2.454Z" transform="translate(-634.028 -645.83)" fill="#b0c0c9"/>
        <path id="Trazado_1001594" data-name="Trazado 1001594" d="M781.705,773.772l.237.609a.351.351,0,1,0,.654-.254l-.237-.61-.454-.2Z" transform="translate(-665.497 -658.357)" fill="#b0c0c9"/>
        <path id="Trazado_1001595" data-name="Trazado 1001595" d="M776.74,759.266l-.237-.61a.351.351,0,0,0-.654.254l.237.61.454.2Z" transform="translate(-660.491 -645.683)" fill="#b0c0c9"/>
        <path id="Trazado_1001596" data-name="Trazado 1001596" d="M785.409,765.1l.609-.237a.351.351,0,1,0-.254-.654l-.61.237-.2.455Z" transform="translate(-668.264 -650.584)" fill="#b0c0c9"/>
        <path id="Trazado_1001597" data-name="Trazado 1001597" d="M770.093,770.76a.351.351,0,0,0,.454.2l.61-.237.2-.454-.454-.2-.61.237a.351.351,0,0,0-.2.454" transform="translate(-655.59 -655.591)" fill="#b0c0c9"/>
        <path id="Trazado_1001598" data-name="Trazado 1001598" d="M783.052,769.64l.454.2.6.264a.351.351,0,1,0,.283-.642l-.6-.264-.454-.2Z" transform="translate(-666.644 -654.679)" fill="#b0c0c9"/>
        <path id="Trazado_1001599" data-name="Trazado 1001599" d="M771.785,764.267l-.454-.2-.6-.264a.351.351,0,0,0-.283.643l.6.263.454.2Z" transform="translate(-655.736 -650.231)" fill="#b0c0c9"/>
        <path id="Trazado_1001600" data-name="Trazado 1001600" d="M775.9,760.508l-.2.454-.264.6a.351.351,0,1,0,.642.283l.264-.6.2-.454.283-.642.2-.454.264-.6a.351.351,0,0,0-.642-.283l-.264.6-.2.454Z" transform="translate(-660.138 -645.83)" fill="#b0c0c9"/>
        <path id="Trazado_1001601" data-name="Trazado 1001601" d="M807.409,759.266l-.237-.61a.351.351,0,0,0-.654.254l.237.61.454.2Z" transform="translate(-686.6 -645.683)" fill="#b0c0c9"/>
        <path id="Trazado_1001602" data-name="Trazado 1001602" d="M812.375,773.772l.237.609a.351.351,0,1,0,.654-.254l-.237-.61-.454-.2Z" transform="translate(-691.607 -658.357)" fill="#b0c0c9"/>
        <path id="Trazado_1001603" data-name="Trazado 1001603" d="M800.761,770.76a.351.351,0,0,0,.454.2l.61-.237.2-.454-.454-.2-.61.237a.351.351,0,0,0-.2.454" transform="translate(-681.7 -655.591)" fill="#b0c0c9"/>
        <path id="Trazado_1001604" data-name="Trazado 1001604" d="M816.078,765.1l.609-.237a.351.351,0,1,0-.254-.654l-.61.237-.2.455Z" transform="translate(-694.373 -650.584)" fill="#b0c0c9"/>
        <path id="Trazado_1001605" data-name="Trazado 1001605" d="M813.72,769.64l.454.2.6.264a.351.351,0,0,0,.283-.642l-.6-.264L814,769Z" transform="translate(-692.752 -654.679)" fill="#b0c0c9"/>
        <path id="Trazado_1001606" data-name="Trazado 1001606" d="M802.455,764.267l-.454-.2-.6-.264a.351.351,0,0,0-.283.643l.6.263.454.2Z" transform="translate(-681.847 -650.231)" fill="#b0c0c9"/>
        <path id="Trazado_1001607" data-name="Trazado 1001607" d="M806.573,760.508l-.2.454-.264.6a.351.351,0,1,0,.642.283l.263-.6.2-.454.283-.642.2-.454.263-.6a.351.351,0,0,0-.642-.283l-.264.6-.2.454Z" transform="translate(-686.248 -645.83)" fill="#b0c0c9"/>
        <path id="Trazado_1001608" data-name="Trazado 1001608" d="M843.044,773.772l.237.61a.351.351,0,0,0,.654-.254l-.237-.61-.454-.2Z" transform="translate(-717.717 -658.357)" fill="#b0c0c9"/>
        <path id="Trazado_1001609" data-name="Trazado 1001609" d="M838.078,759.265l-.237-.609a.351.351,0,0,0-.654.254l.237.609.454.2Z" transform="translate(-712.711 -645.683)" fill="#b0c0c9"/>
        <path id="Trazado_1001610" data-name="Trazado 1001610" d="M831.431,770.76a.351.351,0,0,0,.454.2l.61-.237.2-.454-.454-.2-.609.237a.351.351,0,0,0-.2.454" transform="translate(-707.81 -655.591)" fill="#b0c0c9"/>
        <path id="Trazado_1001611" data-name="Trazado 1001611" d="M846.747,765.1l.609-.237a.351.351,0,0,0-.254-.654l-.61.237-.2.454Z" transform="translate(-720.483 -650.584)" fill="#b0c0c9"/>
        <path id="Trazado_1001612" data-name="Trazado 1001612" d="M844.39,769.64l.454.2.6.264a.351.351,0,1,0,.283-.642l-.6-.264-.454-.2Z" transform="translate(-718.863 -654.679)" fill="#b0c0c9"/>
        <path id="Trazado_1001613" data-name="Trazado 1001613" d="M833.123,764.267l-.454-.2-.6-.264a.351.351,0,0,0-.283.643l.6.263.454.2Z" transform="translate(-707.955 -650.231)" fill="#b0c0c9"/>
        <path id="Trazado_1001614" data-name="Trazado 1001614" d="M837.243,760.508l-.2.454-.264.6a.351.351,0,1,0,.642.283l.264-.6.2-.454.283-.642.2-.454.263-.6a.351.351,0,0,0-.642-.283l-.263.6-.2.455Z" transform="translate(-712.358 -645.83)" fill="#b0c0c9"/>
        <path id="Trazado_1001615" data-name="Trazado 1001615" d="M873.713,773.772l.237.61a.351.351,0,1,0,.654-.254l-.237-.61-.454-.2Z" transform="translate(-743.827 -658.357)" fill="#b0c0c9"/>
        <path id="Trazado_1001616" data-name="Trazado 1001616" d="M868.748,759.265l-.237-.609a.351.351,0,0,0-.654.254l.237.609.454.2Z" transform="translate(-738.821 -645.683)" fill="#b0c0c9"/>
        <path id="Trazado_1001617" data-name="Trazado 1001617" d="M877.416,765.1l.609-.237a.351.351,0,0,0-.254-.654l-.61.237-.2.454Z" transform="translate(-746.593 -650.584)" fill="#b0c0c9"/>
        <path id="Trazado_1001618" data-name="Trazado 1001618" d="M862.1,770.76a.351.351,0,0,0,.454.2l.61-.237.2-.454-.454-.2-.61.237a.351.351,0,0,0-.2.454" transform="translate(-733.92 -655.591)" fill="#b0c0c9"/>
        <path id="Trazado_1001619" data-name="Trazado 1001619" d="M875.059,769.64l.454.2.6.264a.351.351,0,0,0,.283-.642l-.6-.264-.454-.2Z" transform="translate(-744.973 -654.679)" fill="#b0c0c9"/>
        <path id="Trazado_1001620" data-name="Trazado 1001620" d="M863.792,764.267l-.454-.2-.6-.264a.351.351,0,0,0-.283.643l.6.263.454.2Z" transform="translate(-734.066 -650.231)" fill="#b0c0c9"/>
        <path id="Trazado_1001621" data-name="Trazado 1001621" d="M867.912,760.508l-.2.454-.264.6a.351.351,0,1,0,.642.283l.264-.6.2-.454.283-.642.2-.454.264-.6a.351.351,0,0,0-.643-.283l-.263.6-.2.455Z" transform="translate(-738.468 -645.83)" fill="#b0c0c9"/>
        <path id="Trazado_1001622" data-name="Trazado 1001622" d="M973.926,764.118c.021.074.051.144.066.22-.015-.076-.046-.145-.066-.22" transform="translate(-829.142 -650.524)" fill="#e1384d"/>
        <path id="Trazado_1001623" data-name="Trazado 1001623" d="M942.7,791.361c-.04-.016-.082-.028-.122-.045.04.017.081.029.122.045" transform="translate(-802.457 -673.679)" fill="#e1384d"/>
        <path id="Trazado_1001624" data-name="Trazado 1001624" d="M938.486,788.971c-.039-.026-.074-.055-.112-.082.038.027.073.056.112.082" transform="translate(-798.875 -671.613)" fill="#e1384d"/>
        <path id="Trazado_1001625" data-name="Trazado 1001625" d="M972.2,759.7c.042.081.092.156.127.24-.035-.084-.085-.16-.127-.24" transform="translate(-827.676 -646.763)" fill="#e1384d"/>
        <path id="Trazado_1001626" data-name="Trazado 1001626" d="M946.669,792.621c-.056-.01-.111-.023-.166-.036.055.013.11.026.166.036" transform="translate(-805.796 -674.759)" fill="#e1384d"/>
        <path id="Trazado_1001627" data-name="Trazado 1001627" d="M935.294,786.251c-.04-.038-.08-.075-.119-.115.039.04.078.077.119.115" transform="translate(-796.152 -669.269)" fill="#e1384d"/>
        <path id="Trazado_1001628" data-name="Trazado 1001628" d="M932.565,782.915c-.008-.011-.013-.024-.02-.035.008.011.013.023.02.035" transform="translate(-793.913 -666.497)" fill="#e1384d"/>
        <path id="Trazado_1001629" data-name="Trazado 1001629" d="M969.765,755.922c.06.076.127.145.18.226-.054-.081-.12-.15-.18-.226" transform="translate(-825.6 -643.547)" fill="#e1384d"/>
        <path id="Trazado_1001630" data-name="Trazado 1001630" d="M931.541,753.125a3.018,3.018,0,1,0-2.825-2.571,2.384,2.384,0,0,0,2.825,2.571m2.249-4.24a.354.354,0,0,1,0,.5l-1.152,1.168,1.154,1.167a.354.354,0,1,1-.5.5l-1.147-1.16L931,752.219a.354.354,0,1,1-.5-.5l1.152-1.168-1.153-1.167a.354.354,0,0,1,.5-.5l1.147,1.16,1.146-1.162a.353.353,0,0,1,.5,0m-1.834-1.285a2.809,2.809,0,0,1,.895.146q-.16-.016-.324-.016a3.209,3.209,0,0,0-3.156,3.779,2.81,2.81,0,0,1,2.586-3.909" transform="translate(-790.653 -636.058)" fill="#e1384d"/>
        <path id="Trazado_1001631" data-name="Trazado 1001631" d="M952.926,771.849a.354.354,0,1,0,.5-.5l-1.154-1.167-.5.5Z" transform="translate(-810.288 -655.689)" fill="#fff"/>
        <path id="Trazado_1001632" data-name="Trazado 1001632" d="M940.591,758.394a.354.354,0,1,0-.5.5l1.154,1.167.5-.5Z" transform="translate(-800.248 -645.561)" fill="#fff"/>
        <path id="Trazado_1001633" data-name="Trazado 1001633" d="M941.251,760.048l-1.152,1.168a.354.354,0,1,0,.5.5l1.146-1.162.5-.5,1.152-1.168a.354.354,0,0,0-.5-.5l-1.146,1.162Z" transform="translate(-800.257 -645.552)" fill="#fff"/>
        <path id="Trazado_1001634" data-name="Trazado 1001634" d="M933.574,759.143a3.413,3.413,0,0,1-2.441-1.026c-.009-.009-.02-.015-.029-.024a3.445,3.445,0,0,0,.214.367c.007.011.013.024.02.035a3.47,3.47,0,0,0,.371.449c.038.04.079.077.119.115a3.388,3.388,0,0,0,.357.295c.038.027.073.056.112.082a3.424,3.424,0,0,0,.514.279c.039.017.081.03.121.045a3.428,3.428,0,0,0,.462.143c.055.013.11.026.166.036a3.422,3.422,0,0,0,3.977-4.048c-.015-.076-.046-.145-.066-.22a3.409,3.409,0,0,0-.129-.416c-.035-.084-.086-.16-.127-.24a3.394,3.394,0,0,0-.182-.336c-.054-.08-.12-.15-.18-.226s-.129-.178-.2-.257l.007.018a3.427,3.427,0,0,1-3.081,4.931" transform="translate(-792.686 -642.076)" fill="#cc3547"/>
        <path id="Trazado_1001635" data-name="Trazado 1001635" d="M931.839,754.224A3.209,3.209,0,0,1,935,750.445q.164,0,.324.016a2.811,2.811,0,0,0-3.481,3.763" transform="translate(-793.122 -638.774)" fill="#e34658"/>
        <path id="Trazado_1001636" data-name="Trazado 1001636" d="M987.017,97.037l.975,12.566.26,3.347.092,1.184.007.1.108,1.383.279,3.6.483,6.227a2.445,2.445,0,0,0,2.358,2.523h1.647a2.358,2.358,0,0,1-2.358-2.358l4.688-56.478a2.358,2.358,0,0,1,2.358-2.358h3.274l.261-4.266H986.891a2.445,2.445,0,0,0-2.358,2.523l.728,9.385,1,12.843Z" transform="translate(-838.172 -53.207)" fill="#fc8b4c"/>
        <path id="Trazado_1001637" data-name="Trazado 1001637" d="M1142.548,13.557a2.358,2.358,0,0,0,2.358-2.358V9.453a2.358,2.358,0,0,1,2.358-2.358h16.846l.434-7.1H1097.4l-.568,9.291-.261,4.266Z" transform="translate(-933.55)" fill="#fff"/>
        <path id="Trazado_1001638" data-name="Trazado 1001638" d="M1085.805,50.084v1.745a2.358,2.358,0,0,1-2.358,2.358h-49.256a2.358,2.358,0,0,0-2.358,2.358l-4.688,56.478a2.358,2.358,0,0,0,2.358,2.358h52.978c.441-5.932,1.153-14.781.964-17.489,14.516-5.128,29.023-.251,29.717-.012l3.431-41.335a2.358,2.358,0,0,0-2.358-2.358,2.358,2.358,0,0,1-2.358-2.358V50.084a2.358,2.358,0,0,0-2.358-2.358h-21.354a2.358,2.358,0,0,0-2.358,2.358" transform="translate(-874.45 -40.631)" fill="#ffc4a3"/>
        <path id="Trazado_1001639" data-name="Trazado 1001639" d="M1413.358,406.065s-13.675-4.756-13.675-12.308c0-2.216,1.318-16,1.089-19.261,12.585-4.446,25.171,0,25.171,0,.254,7.485,1.089,17.045,1.089,19.261,0,2.9-2.019,5.387-4.5,7.352.01.035.021.066.03.1.248.9.527,1.79.819,2.671,3.3-2.41,6.144-5.569,6.144-9.312,0-2.62-.988-13.919-1.288-22.766l-.033-.012c-.693-.239-15.2-5.117-29.717.012.189,2.709-.523,11.557-.964,17.489-.186,2.508-.324,4.5-.324,5.277,0,5,5.073,8.964,9.536,11.483a45.579,45.579,0,0,0,6.627,3.065s.3-.1.8-.3c-.238-.922-.474-1.846-.7-2.788l-.1.036" transform="translate(-1189.488 -314.542)" fill="#008abe"/>
        <path id="Trazado_1001640" data-name="Trazado 1001640" d="M1441.282,411.239c0-2.216-.835-11.776-1.089-19.261,0,0-12.585-4.446-25.17,0,.228,3.261-1.09,17.045-1.09,19.261,0,7.552,13.675,12.308,13.675,12.308l.1-.036q-.415-1.734-.8-3.515c-.421-1.948-.892-4.455.54-6.26h-1.985a5.366,5.366,0,0,1-5.366-5.366v-4.783a2.1,2.1,0,0,1,1.709-2.06v-2.373a4.145,4.145,0,0,1,4.145-4.145h3.316a4.145,4.145,0,0,1,4.145,4.145v2.373a2.1,2.1,0,0,1,1.71,2.06v4.783a5.353,5.353,0,0,1-1.913,4.1c1.4.894,2.654,2.831,3.571,6.116,2.485-1.965,4.505-4.451,4.505-7.352" transform="translate(-1203.738 -332.024)" fill="#fff"/>
        <path id="Trazado_1001641" data-name="Trazado 1001641" d="M1488.887,441.661H1487.1a2.236,2.236,0,0,0-2.236,2.236v1.57h6.261V443.9a2.236,2.236,0,0,0-2.236-2.236" transform="translate(-1264.122 -376.004)" fill="#fff"/>
        <path id="Trazado_1001642" data-name="Trazado 1001642" d="M1469.558,430.164v-1.57a2.236,2.236,0,0,1,2.236-2.236h1.789a2.236,2.236,0,0,1,2.236,2.236v1.57h2.282a2.1,2.1,0,0,1,.39.039v-2.373a4.145,4.145,0,0,0-4.145-4.145h-3.316a4.145,4.145,0,0,0-4.145,4.145V430.2a2.1,2.1,0,0,1,.39-.039Z" transform="translate(-1248.818 -360.701)" fill="#b0c0c9"/>
        <path id="Trazado_1001643" data-name="Trazado 1001643" d="M1470.41,474.146v-4.784a2.115,2.115,0,0,0-2.1-2.1h-10.825a2.115,2.115,0,0,0-2.1,2.1v4.784a5.366,5.366,0,0,0,5.366,5.366h1.985a4.821,4.821,0,0,1,1.576-1.259h-3.12a4.263,4.263,0,0,1-4.263-4.263v-3.8a1.668,1.668,0,0,1,1.668-1.668h8.6a1.668,1.668,0,0,1,1.668,1.668v3.8a4.257,4.257,0,0,1-2.1,3.672,3.677,3.677,0,0,1,1.736.589,5.352,5.352,0,0,0,1.913-4.1" transform="translate(-1239.028 -397.8)" fill="#e6521b"/>
        <path id="Trazado_1001644" data-name="Trazado 1001644" d="M1477.709,481.2v-3.8a1.668,1.668,0,0,0-1.668-1.668h-8.6a1.668,1.668,0,0,0-1.668,1.668v3.8a4.263,4.263,0,0,0,4.263,4.263h3.12c.185-.1.375-.19.585-.276a4.132,4.132,0,0,1,1.864-.315,4.258,4.258,0,0,0,2.1-3.672m-5.1,1.165h-1.734a.3.3,0,0,1-.295-.378l.405-1.621a1.257,1.257,0,1,1,1.514,0l.405,1.621a.3.3,0,0,1-.3.378" transform="translate(-1247.871 -405.009)" fill="#fb5415"/>
        <path id="Trazado_1001645" data-name="Trazado 1001645" d="M1499.48,493.969a1.257,1.257,0,1,0-1.514,0l-.405,1.621a.3.3,0,0,0,.295.378h1.734a.3.3,0,0,0,.3-.378Z" transform="translate(-1274.853 -418.612)" fill="#12263f"/>
        <path id="Trazado_1001646" data-name="Trazado 1001646" d="M1725.883,740.134a7.542,7.542,0,0,0-1.035,1.464c-.163-.209-.312-.4-.45-.582.138.18.287.372.45.582a7.542,7.542,0,0,1,1.035-1.464" transform="translate(-1468.05 -630.106)" fill="#fab48a"/>
        <path id="Trazado_1001647" data-name="Trazado 1001647" d="M1506.38,607.371c-1.626-6.665-5.117-16.359-7.488-24.093a72.992,72.992,0,0,0-4.01-10.954c-3.859-5.871-10.643-5.753-12.164-2.779,0,0-7.127-3.351-10.727,3.7-1.461-1.726-3.62-4.291-8.042-3.173-4.458,1.126-4.391,4.639-4.226,5.673a.538.538,0,0,0-.021.343h0v0c-2.292-9.833-8.681-18.912-12.176-29.445-.292-.881-.571-1.769-.819-2.671-.01-.035-.021-.066-.03-.1-.917-3.285-2.173-5.222-3.571-6.116a3.675,3.675,0,0,0-1.736-.589,4.134,4.134,0,0,0-1.864.315c-.21.085-.4.179-.585.276a4.817,4.817,0,0,0-1.576,1.259c-1.432,1.805-.96,4.312-.54,6.26q.385,1.783.8,3.515c.225.941.462,1.865.7,2.788,4.285,16.613,10.471,30.267,15.451,47.406-4.517-5.413-7.579-7.546-11.332-9.636-9.55-5.315-13.753-2.234-15.284-.841-2.968,2.7-1.758,5.583,3.643,7.676,10.8,4.828,9.881,9.3,15.986,15.517,15.961,16.262,26.484,15.484,30.784,17.946s30.494,51.709,30.767,54.713c.2.018.4.025.6.038V613.149a35.025,35.025,0,0,1-2.545-5.778m-62.319-62.655a7.445,7.445,0,0,0-.822.12c-.274.052-.549.108-.821.183s-.545.151-.816.24-.539.187-.807.29-.534.215-.793.342c-.129.064-.26.126-.384.2s-.27.138-.315.275a.324.324,0,0,1,.071-.217,1.429,1.429,0,0,1,.138-.185,3.74,3.74,0,0,1,.322-.324,6.15,6.15,0,0,1,.723-.549,6.888,6.888,0,0,1,.786-.454,7.191,7.191,0,0,1,.835-.366,7.4,7.4,0,0,1,1.791-.436,5.793,5.793,0,0,1,1.209-.01,12.831,12.831,0,0,0-1.292-3,6.319,6.319,0,0,0-1.2-1.483,2.925,2.925,0,0,0-1.619-.775,2.053,2.053,0,0,0-.88.1,4.523,4.523,0,0,0-.861.4,3.108,3.108,0,0,0-1.25,1.387,4.577,4.577,0,0,0-.338,1.916,14.153,14.153,0,0,0,.214,2,12.238,12.238,0,0,1-.411-1.992,4.593,4.593,0,0,1,.2-2.062,3.429,3.429,0,0,1,1.313-1.662,4.977,4.977,0,0,1,.942-.506,2.632,2.632,0,0,1,1.108-.184,3.5,3.5,0,0,1,2.013.853,7.011,7.011,0,0,1,1.4,1.6,14.257,14.257,0,0,1,1.654,3.808l.185.638-.673-.113a6.376,6.376,0,0,0-1.625-.034m-7.969,50.442a.245.245,0,0,1-.086.058,3.429,3.429,0,0,0-.591.3,3.742,3.742,0,0,0-.538.424,3.008,3.008,0,0,0-.446.531,3.351,3.351,0,0,0-.327.633,2.77,2.77,0,0,1,.556-1.356,3.216,3.216,0,0,1,.521-.547c.1-.084.2-.163.314-.237-.258-.2-.517-.408-.768-.619-.342-.271-.714-.5-1.059-.763-.175-.129-.368-.227-.55-.343s-.369-.226-.556-.33l-.576-.286c-.1-.046-.19-.1-.289-.139l-.3-.11a6.284,6.284,0,0,0-2.479-.5c-.21.018-.426.017-.636.052a5.018,5.018,0,0,0-.629.135,4.055,4.055,0,0,0-1.19.541,3.271,3.271,0,0,1,1.095-.794,3.853,3.853,0,0,1,.646-.244c.222-.066.452-.1.68-.145.231-.013.463-.031.7-.036.231.016.464.027.7.048l.681.138a2.034,2.034,0,0,1,.334.092l.328.11.327.114c.108.041.208.1.313.143l.622.3c.2.107.389.238.584.356s.392.234.572.372.361.274.538.415.363.271.525.429c.334.3.654.621.979.93l0,0a.238.238,0,0,1,.009.336" transform="translate(-1213.635 -457.298)" fill="#ffc4a3"/>
        <path id="Trazado_1001648" data-name="Trazado 1001648" d="M1698.853,717.865c.379.446.675.809.949,1.154-.274-.345-.57-.708-.949-1.154a6.264,6.264,0,0,0-1.593-1.292,6.26,6.26,0,0,1,1.593,1.293" transform="translate(-1444.945 -610.046)" fill="#fab48a"/>
        <path id="Trazado_1001649" data-name="Trazado 1001649" d="M1643.38,739.683c.019-.076.041-.152.067-.231-.026.078-.049.155-.067.231" transform="translate(-1399.075 -629.525)" fill="#fab48a"/>
        <path id="Trazado_1001650" data-name="Trazado 1001650" d="M1653.717,716.376a4.264,4.264,0,0,1,.91-.759,4.261,4.261,0,0,0-.91.759" transform="translate(-1407.875 -609.233)" fill="#fab48a"/>
        <path id="Trazado_1001651" data-name="Trazado 1001651" d="M1773.866,727.659a13.187,13.187,0,0,0-5.341-1.39,13.185,13.185,0,0,1,5.341,1.39" transform="translate(-1505.616 -618.302)" fill="#fab48a"/>
        <path id="Trazado_1001652" data-name="Trazado 1001652" d="M1690.192,713.17c.182.07.359.149.535.234-.176-.085-.353-.164-.535-.234" transform="translate(-1438.928 -607.15)" fill="#fab48a"/>
        <path id="Trazado_1001653" data-name="Trazado 1001653" d="M1663.064,710.5a4.043,4.043,0,0,0-1.426.026,5.561,5.561,0,0,0-1.8.692,5.562,5.562,0,0,1,1.8-.692,4.044,4.044,0,0,1,1.426-.026" transform="translate(-1413.087 -604.833)" fill="#fab48a"/>
        <path id="Trazado_1001654" data-name="Trazado 1001654" d="M1642.942,743.413c0-.055,0-.107.009-.158,0,.051-.008.1-.009.158" transform="translate(-1398.702 -632.763)" fill="#fab48a"/>
        <path id="Trazado_1001655" data-name="Trazado 1001655" d="M1734.763,735.425a6.224,6.224,0,0,1,.828-.745,6.232,6.232,0,0,0-.828.745" transform="translate(-1476.873 -625.462)" fill="#fab48a"/>
        <path id="Trazado_1001656" data-name="Trazado 1001656" d="M1752.533,727.277a6.745,6.745,0,0,1,.855-.206,6.745,6.745,0,0,0-.855.206" transform="translate(-1492.001 -618.985)" fill="#fab48a"/>
        <path id="Trazado_1001657" data-name="Trazado 1001657" d="M1740.33,729.38a6.035,6.035,0,0,1,1.814-.925,6.035,6.035,0,0,0-1.814.925" transform="translate(-1481.612 -620.163)" fill="#fab48a"/>
        <path id="Trazado_1001658" data-name="Trazado 1001658" d="M1759.342,726.407a7.885,7.885,0,0,1,.859-.084,7.885,7.885,0,0,0-.859.084" transform="translate(-1497.798 -618.348)" fill="#fab48a"/>
        <path id="Trazado_1001659" data-name="Trazado 1001659" d="M1900.178,789.57c.179.462.355.934.523,1.429-.157-.5-.334-.975-.523-1.429" transform="translate(-1617.698 -672.193)" fill="#f8a87c"/>
        <path id="Trazado_1001660" data-name="Trazado 1001660" d="M1644.765,723.619h0a.539.539,0,0,1,.021-.343c-.165-1.034-.231-4.547,4.226-5.673,4.422-1.118,6.581,1.447,8.042,3.173,3.6-7.047,10.727-3.7,10.727-3.7,1.521-2.974,8.305-3.092,12.164,2.779a14.164,14.164,0,0,1,1.234,2.352c-3.1-8.015-7.89-11.073-14.23-8.02a13.185,13.185,0,0,0-5.341-1.39c-.168,0-.336,0-.506.008a7.884,7.884,0,0,0-.86.084l-.157.027a6.76,6.76,0,0,0-.855.206,6.024,6.024,0,0,0-1.814.925,6.2,6.2,0,0,0-.828.745c-.02.021-.038.045-.057.066a7.536,7.536,0,0,0-1.034,1.464c-.163-.209-.312-.4-.45-.582-.613-.8-1.016-1.339-1.492-1.939-.274-.345-.57-.708-.949-1.154a6.259,6.259,0,0,0-1.593-1.293c-.167-.1-.339-.186-.516-.271s-.353-.164-.535-.234a6.074,6.074,0,0,0-1.288-.354,4.041,4.041,0,0,0-1.426.026,5.573,5.573,0,0,0-1.8.692,4.271,4.271,0,0,0-.91.759,5.585,5.585,0,0,0-1,1.645c-.207.5-.364.837-.465,1.139q-.039.117-.067.231a2.181,2.181,0,0,0-.057.335c0,.051-.007.1-.009.158a5.269,5.269,0,0,0,.14,1.133c.017.082.035.168.055.259.259,1.178.784,3.112,1.63,6.742v0Z" transform="translate(-1398.7 -604.833)" fill="#f8a87c"/>
        <path id="Trazado_1001661" data-name="Trazado 1001661" d="M1514.772,549.513l-.185-.638a14.249,14.249,0,0,0-1.654-3.807,7.012,7.012,0,0,0-1.4-1.6,3.5,3.5,0,0,0-2.012-.853,2.632,2.632,0,0,0-1.108.184,5,5,0,0,0-.942.506,3.431,3.431,0,0,0-1.313,1.662,4.589,4.589,0,0,0-.2,2.062,12.261,12.261,0,0,0,.411,1.992,14.186,14.186,0,0,1-.214-2,4.571,4.571,0,0,1,.338-1.916,3.108,3.108,0,0,1,1.25-1.387,4.535,4.535,0,0,1,.861-.4,2.053,2.053,0,0,1,.88-.1,2.923,2.923,0,0,1,1.619.775,6.318,6.318,0,0,1,1.2,1.483,12.828,12.828,0,0,1,1.292,3,5.783,5.783,0,0,0-1.209.01,7.391,7.391,0,0,0-1.791.436,7.2,7.2,0,0,0-.835.367,6.9,6.9,0,0,0-.786.454,6.135,6.135,0,0,0-.723.549,3.71,3.71,0,0,0-.322.324,1.418,1.418,0,0,0-.138.184.325.325,0,0,0-.071.217c.046-.138.2-.2.316-.275s.255-.136.384-.2c.259-.127.527-.234.793-.342s.538-.2.807-.289.544-.164.816-.24.547-.131.821-.183a7.462,7.462,0,0,1,.822-.12,6.373,6.373,0,0,1,1.625.034Z" transform="translate(-1282.049 -461.949)" fill="#f8a87c"/>
        <path id="Trazado_1001662" data-name="Trazado 1001662" d="M1441.259,905.358c-.325-.309-.646-.627-.979-.93-.162-.157-.351-.285-.525-.429s-.357-.279-.538-.415-.382-.247-.572-.372-.382-.249-.584-.356l-.622-.3c-.1-.047-.205-.1-.313-.143l-.327-.114-.328-.11a2.03,2.03,0,0,0-.334-.092l-.681-.138c-.232-.021-.465-.033-.7-.048-.232,0-.465.023-.7.036-.229.048-.459.078-.68.145a3.845,3.845,0,0,0-.646.244,3.272,3.272,0,0,0-1.095.794,4.056,4.056,0,0,1,1.191-.541,5.009,5.009,0,0,1,.628-.135c.21-.035.426-.033.636-.052a6.284,6.284,0,0,1,2.479.5l.3.11c.1.039.193.094.29.139l.576.286c.188.1.371.221.556.33s.376.213.55.343c.345.263.717.492,1.059.763.251.211.51.414.768.619-.109.074-.212.153-.314.237a3.22,3.22,0,0,0-.521.548,2.772,2.772,0,0,0-.556,1.356,3.353,3.353,0,0,1,.327-.633,3.008,3.008,0,0,1,.446-.531,3.741,3.741,0,0,1,.538-.424,3.43,3.43,0,0,1,.591-.3.238.238,0,0,0,.077-.394Z" transform="translate(-1218.814 -767.837)" fill="#f8a87c"/>
      </g>
    </g>
  </g>
</svg>
