<svg xmlns="http://www.w3.org/2000/svg" xmlns:xlink="http://www.w3.org/1999/xlink" width="84.906" height="89" viewBox="0 0 84.906 89">
  <defs>
    <clipPath id="clip-path">
      <rect id="Rect치ngulo_431925" data-name="Rect치ngulo 431925" width="84.906" height="89" fill="none" stroke="#12263f" stroke-linecap="round" stroke-width="1"/>
    </clipPath>
    <clipPath id="clip-path-3">
      <rect id="Rect치ngulo_431923" data-name="Rect치ngulo 431923" width="47.001" height="47.001" fill="none" stroke="#12263f" stroke-linecap="round" stroke-width="1"/>
    </clipPath>
  </defs>
  <g id="Grupo_1156628" data-name="Grupo 1156628" transform="translate(-180 -1172)">
    <g id="Grupo_1156596" data-name="Grupo 1156596" transform="translate(182 1174)">
      <g id="Grupo_1156595" data-name="Grupo 1156595" transform="translate(-2 -2)" clip-path="url(#clip-path)">
        <g id="Grupo_1156594" data-name="Grupo 1156594">
          <g id="Grupo_1156593" data-name="Grupo 1156593" clip-path="url(#clip-path)">
            <path id="Trazado_1001505" data-name="Trazado 1001505" d="M181.761,24.077A24.078,24.078,0,1,1,157.683,0a24.078,24.078,0,0,1,24.078,24.078" transform="translate(-111.642 1.931)" fill="#046b72" stroke="#12263f" stroke-linecap="round" stroke-width="1"/>
            <path id="Trazado_1001506" data-name="Trazado 1001506" d="M319.544,209.231A19.744,19.744,0,1,1,299.8,189.487a19.744,19.744,0,0,1,19.744,19.744" transform="translate(-236.134 -159.145)" fill="#1b9ca2" stroke="#12263f" stroke-linecap="round" stroke-width="1"/>
            <path id="Trazado_1001507" data-name="Trazado 1001507" d="M228.914,368.177A16.181,16.181,0,1,1,212.733,352a16.181,16.181,0,0,1,16.181,16.18" transform="translate(-165.152 -297.288)" fill="#39c5cf" stroke="#12263f" stroke-linecap="round" stroke-width="1"/>
            <g id="Grupo_1156592" data-name="Grupo 1156592" transform="translate(5.397 30.053)" opacity="0.11">
              <g id="Grupo_1156591" data-name="Grupo 1156591">
                <g id="Grupo_1156590" data-name="Grupo 1156590" clip-path="url(#clip-path-3)">
                  <path id="Trazado_1001508" data-name="Trazado 1001508" d="M65.214,234.562H28.037a4.912,4.912,0,0,1-4.912-4.912V192.473a4.912,4.912,0,0,1,4.912-4.912H65.214a4.912,4.912,0,0,1,4.912,4.912V229.65a4.912,4.912,0,0,1-4.912,4.912" transform="translate(-23.125 -187.561)" fill="#13131f" stroke="#12263f" stroke-linecap="round" stroke-width="1"/>
                </g>
              </g>
            </g>
            <path id="Trazado_1001509" data-name="Trazado 1001509" d="M42.089,211.438H4.912A4.912,4.912,0,0,1,0,206.526V169.349a4.912,4.912,0,0,1,4.912-4.912H42.089A4.912,4.912,0,0,1,47,169.349v37.177a4.912,4.912,0,0,1-4.912,4.912" transform="translate(1.93 -137.851)" fill="#04858a" stroke="#12263f" stroke-linecap="round" stroke-width="1"/>
            <g id="Trazado_1001510" data-name="Trazado 1001510" transform="translate(-81.288 -185.879)" fill="#fff" stroke-linecap="round">
              <path d="M 105.3337173461914 251.4938049316406 C 102.5117492675781 251.4938049316406 99.33978271484375 250.6948699951172 97.62008666992188 249.5509490966797 L 97.31135559082031 249.3455963134766 L 97.41822814941406 248.9905395507812 L 98.36886596679688 245.8320007324219 L 98.55624389648438 245.2094116210938 L 99.10984802246094 245.5503692626953 C 100.9710235595703 246.6966400146484 103.3950653076172 247.3809661865234 105.5941696166992 247.3809661865234 C 109.0465087890625 247.3809661865234 111.1911468505859 245.6660919189453 111.1911468505859 242.9055786132812 C 111.1911468505859 241.6424713134766 110.8423538208008 240.7155151367188 110.0602188110352 239.8999938964844 C 109.2645492553711 239.0703582763672 107.9828414916992 238.3338928222656 106.0267639160156 237.5824279785156 C 103.4279861450195 236.6604461669922 101.5261764526367 235.5683135986328 100.212287902832 234.2435150146484 C 98.74605560302734 232.7651062011719 98.00261688232422 230.9513549804688 98.00261688232422 228.8526153564453 C 98.00261688232422 226.4825439453125 98.98398590087891 224.337158203125 100.7659378051758 222.8116455078125 C 102.5805969238281 221.2581176757812 105.0574645996094 220.4369812011719 107.9287796020508 220.4369812011719 C 111.4569244384766 220.4369812011719 113.6348724365234 221.3735198974609 114.6191177368164 221.9317779541016 L 114.9784469604492 222.1355895996094 L 114.8460693359375 222.5269012451172 L 113.8074035644531 225.5972900390625 L 113.6163558959961 226.1620788574219 L 113.0934829711914 225.8755493164062 C 111.9926986694336 225.2723083496094 110.1805038452148 224.55322265625 107.7984848022461 224.55322265625 C 104.3505935668945 224.55322265625 102.8072738647461 226.4950866699219 102.8072738647461 228.4195861816406 C 102.8072738647461 230.7159271240234 104.1376266479492 231.9690704345703 108.2821884155273 233.5767364501953 C 110.9701538085938 234.6135406494141 112.7997055053711 235.7312164306641 114.0390167236328 237.0938110351562 C 115.3853073120117 238.5740203857422 116.0397491455078 240.3760375976562 116.0397491455078 242.6028289794922 C 116.0397491455078 245.0623474121094 115.0850524902344 247.2831420898438 113.3515472412109 248.8561401367188 C 111.4498672485352 250.5817108154297 108.6773452758789 251.4938049316406 105.3337173461914 251.4938049316406 Z" stroke="none"/>
              <path d="M 105.3337173461914 250.9938049316406 C 112.210563659668 250.9938049316406 115.5397491455078 247.1029205322266 115.5397491455078 242.6028289794922 C 115.5397491455078 238.3210754394531 113.0308990478516 235.9443206787109 108.1013641357422 234.0428924560547 C 104.0800552368164 232.4830474853516 102.3072738647461 231.1449432373047 102.3072738647461 228.4195861816406 C 102.3072738647461 226.4299774169922 103.8212432861328 224.05322265625 107.7984848022461 224.05322265625 C 110.437629699707 224.05322265625 112.3829956054688 224.9160308837891 113.3337783813477 225.4370574951172 L 114.3724365234375 222.3666839599609 C 113.0749893188477 221.6307678222656 110.9129486083984 220.9369812011719 107.9287796020508 220.9369812011719 C 102.2631988525391 220.9369812011719 98.50261688232422 224.3103942871094 98.50261688232422 228.8526153564453 C 98.50261688232422 232.9617919921875 101.4427032470703 235.4267120361328 106.1997985839844 237.11328125 C 110.1347427368164 238.6239318847656 111.6911468505859 240.1801910400391 111.6911468505859 242.9055786132812 C 111.6911468505859 245.8458099365234 109.4429168701172 247.8809661865234 105.5941696166992 247.8809661865234 C 102.9991149902344 247.8809661865234 100.5343551635742 247.0149078369141 98.84764862060547 245.9761047363281 L 97.89700317382812 249.1346435546875 C 99.45326995849609 250.1698455810547 102.523796081543 250.9938049316406 105.3337173461914 250.9938049316406 M 105.3337173461914 251.9938049316406 C 102.4227752685547 251.9938049316406 99.13694763183594 251.1604614257812 97.34315490722656 249.9672698974609 L 96.72571563720703 249.5565490722656 L 98.26484680175781 244.4427185058594 L 99.37204742431641 245.1246337890625 C 101.15771484375 246.2243957519531 103.4837493896484 246.8809661865234 105.5941696166992 246.8809661865234 C 108.7857360839844 246.8809661865234 110.6911468505859 245.3948364257812 110.6911468505859 242.9055786132812 C 110.6911468505859 241.781494140625 110.3852691650391 240.9612731933594 109.6993560791016 240.2460784912109 C 108.9571685791016 239.4722290039062 107.734977722168 238.7747497558594 105.8532943725586 238.0514221191406 C 103.1854476928711 237.104248046875 101.2241058349609 235.9737854003906 99.85727691650391 234.5955963134766 C 98.29483795166016 233.0201873779297 97.50261688232422 231.0879669189453 97.50261688232422 228.8526153564453 C 97.50261688232422 226.3341369628906 98.54607391357422 224.0538482666016 100.4407730102539 222.4318084716797 C 102.3472671508789 220.7996826171875 104.9365768432617 219.9369812011719 107.9287796020508 219.9369812011719 C 111.5717086791992 219.9369812011719 113.8387069702148 220.9142913818359 114.8657989501953 221.4968566894531 L 115.5844573974609 221.9044799804688 L 113.89892578125 226.8870697021484 L 112.8532028198242 226.3140106201172 C 111.9939575195312 225.8431549072266 110.194709777832 225.05322265625 107.7984848022461 225.05322265625 C 104.4835052490234 225.05322265625 103.3072738647461 226.8666687011719 103.3072738647461 228.4195861816406 C 103.3072738647461 230.4819183349609 104.5118865966797 231.5779571533203 108.463005065918 233.1105804443359 C 111.2253875732422 234.1760864257812 113.1152954101562 235.3350982666016 114.4089050292969 236.7574005126953 C 115.8427429199219 238.3338470458984 116.5397491455078 240.2459106445312 116.5397491455078 242.6028289794922 C 116.5397491455078 245.2051544189453 115.5268173217773 247.5574493408203 113.6875381469727 249.2264099121094 C 111.6923370361328 251.0368499755859 108.8036346435547 251.9938049316406 105.3337173461914 251.9938049316406 Z" stroke="none" fill="#12263f"/>
            </g>
          </g>
        </g>
      </g>
    </g>
  </g>
</svg>
