<svg xmlns="http://www.w3.org/2000/svg" width="70.809" height="70.813" viewBox="0 0 70.809 70.813">
  <g id="Grupo_1156631" data-name="Grupo 1156631" transform="translate(-214.055 -3750.01)">
    <g id="Layer_2" data-name="Layer 2" transform="translate(214.019 3750.007)">
      <g id="Layer_1" data-name="Layer 1" transform="translate(0.036 0.002)">
        <g id="_30" data-name="30" transform="translate(0 0)">
          <path id="Trazado_1001515" data-name="Trazado 1001515" d="M35.438,70.816a35.407,35.407,0,1,1,25.036-10.37A35.405,35.405,0,0,1,35.438,70.816Z" transform="translate(-0.036 -0.002)" fill="#002f82"/>
          <path id="Trazado_1001519" data-name="Trazado 1001519" d="M33.447,0A33.447,33.447,0,1,1,0,33.447,33.447,33.447,0,0,1,33.447,0Z" transform="translate(1.955 1.959)" fill="#32deff"/>
          <path id="Trazado_1001516" data-name="Trazado 1001516" d="M69.182,124.8a14.334,14.334,0,0,1-10.318-4.409,13.8,13.8,0,0,1-3.857-10.262A13.984,13.984,0,0,1,69,96.784c.4,0,.8.018,1.206.054a16.853,16.853,0,0,1,32.616,5.96v.028a11.268,11.268,0,0,1,7.769,10.442,11.108,11.108,0,0,1-3.2,8.074,11.4,11.4,0,0,1-8.218,3.458Z" transform="translate(-47.39 -74.059)" fill="#002f82"/>
          <path id="Trazado_1001517" data-name="Trazado 1001517" d="M76.583,105.467q.593,0,1.173.057a1.12,1.12,0,0,0,1.149-.729,15.636,15.636,0,0,1,30.289,5.47v.079a1.14,1.14,0,0,0,.8,1.091,10.051,10.051,0,0,1-3.231,19.618h-30a12.793,12.793,0,1,1-.181-25.586Z" transform="translate(-54.971 -81.526)" fill="#3571c7" stroke="#12263f" stroke-width="1"/>
          <circle id="Elipse_13531" data-name="Elipse 13531" cx="9.433" cy="9.433" r="9.433" transform="translate(23.09 54.607) rotate(-67.486)" fill="#002f82"/>
          <path id="Trazado_1001520" data-name="Trazado 1001520" d="M8.755,0A8.755,8.755,0,1,1,0,8.755,8.755,8.755,0,0,1,8.755,0Z" transform="translate(26.647 40.737)" fill="#512189"/>
          <path id="Trazado_1001518" data-name="Trazado 1001518" d="M218.742,317.026a.209.209,0,0,0-.169-.028.368.368,0,0,0-.2.214,3.852,3.852,0,0,0-.1,3.086,7.043,7.043,0,0,0,2.307,2.932,5.894,5.894,0,0,1,.531.4l-.44.849a3.518,3.518,0,0,1-.2.386.747.747,0,0,0-.138.277.256.256,0,0,0,.113.277.376.376,0,0,0,.214.017l3.582-.423,1.777-.207c.112-.014.242-.039.29-.138a.342.342,0,0,0-.057-.3l-1.714-3.109-.527-.96c-.105-.192-.216-.38-.306-.581a.567.567,0,0,0-.156-.224.221.221,0,0,0-.335.055c-.091.138-.871,1.595-.84,1.617a17.654,17.654,0,0,1-1.6-.927,4.883,4.883,0,0,1-1.332-1.284,3.445,3.445,0,0,1-.5-1.062,2.912,2.912,0,0,1-.071-.462c-.011-.122,0-.277-.09-.368A.193.193,0,0,0,218.742,317.026Zm7.1-3.964-3.581.423-1.779.207c-.112.014-.242.039-.29.138a.346.346,0,0,0,.057.3l1.708,3.109.527.96c.105.192.216.38.306.581a.553.553,0,0,0,.158.224.22.22,0,0,0,.333-.055c.091-.138.871-1.595.84-1.617a17.443,17.443,0,0,1,1.6.927,4.861,4.861,0,0,1,1.332,1.284,3.445,3.445,0,0,1,.5,1.062,2.914,2.914,0,0,1,.071.462c.011.122,0,.277.09.368a.194.194,0,0,0,.046.037.209.209,0,0,0,.169.028.368.368,0,0,0,.2-.214,3.852,3.852,0,0,0,.1-3.086,7.043,7.043,0,0,0-2.307-2.932,6.106,6.106,0,0,1-.531-.4l.44-.849a3.521,3.521,0,0,1,.2-.386.708.708,0,0,0,.138-.277.256.256,0,0,0-.113-.277A.376.376,0,0,0,225.847,313.062Z" transform="translate(-187.852 -269.757)" fill="#fff" fill-rule="evenodd"/>
        </g>
      </g>
    </g>
  </g>
</svg>
