<svg xmlns="http://www.w3.org/2000/svg" width="85" height="84.999" viewBox="0 0 85 84.999">
  <g id="Grupo_1156634" data-name="Grupo 1156634" transform="translate(-600 -4288.763)">
    <g id="file-explorer_12660582" transform="translate(600 4288.758)">
      <g id="Grupo_1156603" data-name="Grupo 1156603" transform="translate(2.324 2.329)">
        <path id="Trazado_1001521" data-name="Trazado 1001521" d="M351.283,414.023V420.1H340.1v-7.929h2.626l.962,1.415a1,1,0,0,0,.825.436Z" transform="translate(-285.962 -346.07)" fill="#b4e6d2" fill-rule="evenodd"/>
        <path id="Trazado_1001522" data-name="Trazado 1001522" d="M351.283,286.44v6.081H340.1v-7.928h2.626l.962,1.413a1,1,0,0,0,.825.434Z" transform="translate(-285.962 -239.671)" fill="#b4e6d2" fill-rule="evenodd"/>
        <path id="Trazado_1001523" data-name="Trazado 1001523" d="M340.1,164.933V157h2.626l.962,1.414a1,1,0,0,0,.825.435h6.77v6.079Z" transform="translate(-285.962 -133.265)" fill="#b4e6d2" fill-rule="evenodd"/>
        <path id="Trazado_1001524" data-name="Trazado 1001524" d="M126.789,252.654v12.859H104.538V249.252h6.112l2.02,2.966a1,1,0,0,0,.823.436Z" transform="translate(-89.507 -210.197)" fill="#b4e6d2" fill-rule="evenodd"/>
        <path id="Trazado_1001525" data-name="Trazado 1001525" d="M14,29.434V17.99a3.988,3.988,0,0,1,3.984-3.984H90.367a3.989,3.989,0,0,1,3.984,3.984V29.434Z" transform="translate(-14 -14.006)" fill="#6c27b3" fill-rule="evenodd"/>
      </g>
      <path id="Trazado_1001526" data-name="Trazado 1001526" d="M40.6,42.461H27.012l-1.921-2.821a1.325,1.325,0,0,0-1.1-.581H16.36a1.328,1.328,0,0,0-1.328,1.328V58.641a1.328,1.328,0,0,0,1.328,1.326H40.6a1.328,1.328,0,0,0,1.328-1.326V43.789A1.328,1.328,0,0,0,40.6,42.461ZM39.274,57.313H17.687v-15.6h5.605l1.921,2.821a1.328,1.328,0,0,0,1.1.581H39.274v12.2ZM68.641,25.595H61.577l-.863-1.269a1.331,1.331,0,0,0-1.1-.581H55.466a1.328,1.328,0,0,0-1.328,1.328v9.921a1.328,1.328,0,0,0,1.328,1.328H68.641a1.328,1.328,0,0,0,1.328-1.328V26.922a1.328,1.328,0,0,0-1.328-1.328Zm-1.328,8.071H56.794V26.4h2.118l.863,1.269a1.329,1.329,0,0,0,1.1.581h6.438v5.414Zm-20.033-2.3h4.08a1.328,1.328,0,0,0,0-2.656H45.952a1.328,1.328,0,0,0-1.328,1.328V49.885H43.8a1.328,1.328,0,1,0,0,2.656h.823V72.4a1.328,1.328,0,0,0,1.328,1.328h5.408a1.327,1.327,0,0,0,0-2.654H47.28V52.542h4.08a1.328,1.328,0,0,0,0-2.656H47.28ZM68.641,46.776H61.577l-.863-1.268a1.33,1.33,0,0,0-1.1-.581H55.466a1.328,1.328,0,0,0-1.328,1.328v9.919A1.328,1.328,0,0,0,55.466,57.5H68.641a1.328,1.328,0,0,0,1.328-1.328V48.1a1.328,1.328,0,0,0-1.328-1.326Zm-1.328,8.072H56.794V47.583h2.118l.863,1.268a1.327,1.327,0,0,0,1.1.58h6.438v5.417Zm1.328,13.111H61.577l-.863-1.27a1.334,1.334,0,0,0-1.1-.581H55.466a1.329,1.329,0,0,0-1.328,1.328v9.921a1.329,1.329,0,0,0,1.328,1.33H68.641a1.329,1.329,0,0,0,1.328-1.33v-8.07a1.328,1.328,0,0,0-1.328-1.328Zm-1.328,8.07H56.794V68.763h2.118l.863,1.269a1.333,1.333,0,0,0,1.1.581h6.438v5.414ZM78.691,0A6.317,6.317,0,0,1,85,6.314V78.7A6.316,6.316,0,0,1,78.691,85H6.309A6.316,6.316,0,0,1,0,78.7V6.314A6.317,6.317,0,0,1,6.309.005ZM6.309,2.661A3.656,3.656,0,0,0,2.656,6.314V17.425H82.344V6.314a3.657,3.657,0,0,0-3.652-3.652ZM78.691,82.348H6.309A3.656,3.656,0,0,1,2.656,78.7V20.081H82.344V78.7A3.656,3.656,0,0,1,78.691,82.348ZM10.936,14.277h5.811a1.328,1.328,0,0,0,1.328-1.328V7.138A1.328,1.328,0,0,0,16.746,5.81H10.936A1.328,1.328,0,0,0,9.607,7.138v5.811A1.328,1.328,0,0,0,10.936,14.277Zm1.328-5.811V11.62h3.154V8.466Zm8.519,1.577a1.328,1.328,0,0,0,1.328,1.328h8.965a1.328,1.328,0,1,0,0-2.656H22.111A1.328,1.328,0,0,0,20.783,10.043Zm14.775,0a1.328,1.328,0,0,0,1.328,1.328h8.965a1.328,1.328,0,1,0,0-2.656H36.887A1.328,1.328,0,0,0,35.559,10.043Zm14.775,0a1.328,1.328,0,0,0,1.328,1.328h8.965a1.328,1.328,0,0,0,0-2.656H51.662A1.328,1.328,0,0,0,50.334,10.043Zm14.775,0a1.328,1.328,0,0,0,1.328,1.328H75.4a1.328,1.328,0,0,0,0-2.656H66.437a1.328,1.328,0,0,0-1.327,1.328Z" fill-rule="evenodd"/>
    </g>
  </g>
</svg>
