<svg xmlns="http://www.w3.org/2000/svg" xmlns:xlink="http://www.w3.org/1999/xlink" width="160" height="161.333" viewBox="0 0 160 161.333">
  <defs>
    <clipPath id="clip-path">
      <rect id="Rectángulo_431925" data-name="Rectángulo 431925" width="111.529" height="116.906" fill="none" stroke="#12263f" stroke-linecap="round" stroke-width="3"/>
    </clipPath>
    <clipPath id="clip-path-3">
      <rect id="Rectángulo_431923" data-name="Rectángulo 431923" width="61.738" height="61.738" fill="none" stroke="#12263f" stroke-linecap="round" stroke-width="3"/>
    </clipPath>
  </defs>
  <g id="Grupo_1156630" data-name="Grupo 1156630" transform="translate(-973.711 -2779)">
    <g id="Grupo_1147475" data-name="Grupo 1147475" transform="translate(583.383 1646.793)">
      <path id="Rectángulo_403519" data-name="Rectángulo 403519" d="M80,0h0a80,80,0,0,1,80,80v81.333a0,0,0,0,1,0,0H0a0,0,0,0,1,0,0V80A80,80,0,0,1,80,0Z" transform="translate(390.328 1132.207)" fill="#32deff"/>
    </g>
    <g id="Grupo_1156598" data-name="Grupo 1156598" transform="translate(1000.711 2803)">
      <g id="Grupo_1156595" data-name="Grupo 1156595" transform="translate(-2 -2)" clip-path="url(#clip-path)">
        <g id="Grupo_1156594" data-name="Grupo 1156594">
          <g id="Grupo_1156593" data-name="Grupo 1156593" clip-path="url(#clip-path)">
            <path id="Trazado_1001505" data-name="Trazado 1001505" d="M196.861,31.627A31.628,31.628,0,1,1,165.233,0a31.628,31.628,0,0,1,31.628,31.628" transform="translate(-104.756 2.536)" fill="#046b72" stroke="#12263f" stroke-linecap="round" stroke-width="3"/>
            <path id="Trazado_1001506" data-name="Trazado 1001506" d="M331.926,215.422a25.935,25.935,0,1,1-25.935-25.935,25.935,25.935,0,0,1,25.935,25.935" transform="translate(-222.362 -149.631)" fill="#1b9ca2" stroke="#12263f" stroke-linecap="round" stroke-width="3"/>
            <path id="Trazado_1001507" data-name="Trazado 1001507" d="M239.061,373.251A21.254,21.254,0,1,1,217.807,352a21.254,21.254,0,0,1,21.254,21.254" transform="translate(-155.306 -280.134)" fill="#39c5cf" stroke="#12263f" stroke-linecap="round" stroke-width="3"/>
            <g id="Grupo_1156592" data-name="Grupo 1156592" transform="translate(7.089 39.476)" opacity="0.11">
              <g id="Grupo_1156591" data-name="Grupo 1156591">
                <g id="Grupo_1156590" data-name="Grupo 1156590" clip-path="url(#clip-path-3)">
                  <path id="Trazado_1001508" data-name="Trazado 1001508" d="M78.411,249.3H29.577a6.452,6.452,0,0,1-6.452-6.452V194.013a6.452,6.452,0,0,1,6.452-6.452H78.411a6.452,6.452,0,0,1,6.452,6.452v48.834a6.452,6.452,0,0,1-6.452,6.452" transform="translate(-23.125 -187.561)" fill="#13131f" stroke="#12263f" stroke-linecap="round" stroke-width="3"/>
                </g>
              </g>
            </g>
            <path id="Trazado_1001509" data-name="Trazado 1001509" d="M55.286,226.175H6.452A6.452,6.452,0,0,1,0,219.723V170.889a6.452,6.452,0,0,1,6.452-6.452H55.286a6.452,6.452,0,0,1,6.452,6.452v48.834a6.452,6.452,0,0,1-6.452,6.452" transform="translate(2.535 -129.515)" fill="#04858a" stroke="#12263f" stroke-linecap="round" stroke-width="3"/>
            <g id="Trazado_1001510" data-name="Trazado 1001510" transform="translate(-76.081 -174.887)" fill="#fff" stroke-linecap="round">
              <path d="M 107.6655197143555 261.918212890625 C 103.8086853027344 261.918212890625 99.45010375976562 260.8107299804688 97.06623840332031 259.2250366210938 L 96.14006805419922 258.6089477539062 L 96.46064758300781 257.5437927246094 L 97.7093505859375 253.3948822021484 L 98.27149963378906 251.5271148681641 L 99.93230438232422 252.5499725341797 C 102.2497406005859 253.9772186279297 105.2685470581055 254.8293151855469 108.0076293945312 254.8293151855469 C 112.0831756591797 254.8293151855469 114.5163497924805 252.9469146728516 114.5163497924805 249.7938842773438 C 114.5163497924805 248.3691864013672 114.1305541992188 247.3315887451172 113.2654571533203 246.4295654296875 C 112.310546875 245.4338836669922 110.7271041870117 244.5321807861328 108.2834167480469 243.5926055908203 C 104.7534332275391 242.3390502929688 102.1546401977539 240.8397521972656 100.3395233154297 239.0095825195312 C 98.25131988525391 236.9040222167969 97.1925048828125 234.32177734375 97.1925048828125 231.3345642089844 C 97.1925048828125 227.9710693359375 98.58629608154297 224.9254913330078 101.1171188354492 222.7588653564453 C 102.3619766235352 221.6931610107422 103.8436660766602 220.8662261962891 105.5210571289062 220.3010711669922 C 107.2228240966797 219.7276763916016 109.091194152832 219.4369506835938 111.0742645263672 219.4369506835938 C 115.9021759033203 219.4369506835938 118.9132385253906 220.7359008789062 120.2783889770508 221.5102081298828 L 121.3563995361328 222.1216278076172 L 120.9592590332031 223.2956085205078 L 119.5949249267578 227.3287200927734 L 119.0217590332031 229.0230560302734 L 117.4531784057617 228.1634979248047 C 116.3401260375977 227.5535430908203 114.0091094970703 226.5303039550781 110.9031295776367 226.5303039550781 C 106.6863403320312 226.5303039550781 105.1901245117188 228.8119049072266 105.1901245117188 230.7657470703125 C 105.1901245117188 233.0743103027344 106.1857070922852 234.5591888427734 111.8434295654297 236.7537994384766 C 115.4997100830078 238.1641082763672 118.0047073364258 239.7019500732422 119.7241897583008 241.5924682617188 C 121.6402435302734 243.6991271972656 122.5716705322266 246.2517547607422 122.5716705322266 249.3962097167969 C 122.5716705322266 252.8677520751953 121.2194061279297 256.0066528320312 118.7639846801758 258.2347106933594 C 116.1083297729492 260.6444702148438 112.2705383300781 261.918212890625 107.6655197143555 261.918212890625 Z" stroke="none"/>
              <path d="M 107.6655197143555 260.418212890625 C 116.6986236572266 260.418212890625 121.0716705322266 255.3073120117188 121.0716705322266 249.3962097167969 C 121.0716705322266 243.7719116210938 117.7761688232422 240.64990234375 111.3009643554688 238.1522827148438 C 106.0187683105469 236.1033325195312 103.6901245117188 234.3456726074219 103.6901245117188 230.7657470703125 C 103.6901245117188 228.1523132324219 105.6788101196289 225.0303039550781 110.9031295776367 225.0303039550781 C 114.3697738647461 225.0303039550781 116.9251251220703 226.1636657714844 118.1740264892578 226.8480529785156 L 119.5383605957031 222.81494140625 C 117.8340759277344 221.8482971191406 114.994140625 220.9369506835938 111.0742645263672 220.9369506835938 C 103.6322174072266 220.9369506835938 98.6925048828125 225.3681335449219 98.6925048828125 231.3345642089844 C 98.6925048828125 236.732177734375 102.5544586181641 239.9700012207031 108.8031539916992 242.1853942871094 C 113.971923828125 244.1697082519531 116.0163497924805 246.2139587402344 116.0163497924805 249.7938842773438 C 116.0163497924805 253.6560363769531 113.0631637573242 256.3293151855469 108.0076293945312 256.3293151855469 C 104.5988998413086 256.3293151855469 101.3612976074219 255.1917114257812 99.14570617675781 253.8271789550781 L 97.89700317382812 257.9761047363281 C 99.94122314453125 259.3358764648438 103.9745330810547 260.418212890625 107.6655197143555 260.418212890625 M 107.6655197143555 263.418212890625 C 105.6414337158203 263.418212890625 103.4822845458984 263.1400451660156 101.4214706420898 262.6138000488281 C 99.96345520019531 262.2414855957031 97.88021850585938 261.5680236816406 96.2354736328125 260.4739685058594 L 94.38314056396484 259.2418212890625 L 97.39727783203125 249.22705078125 L 100.7189102172852 251.2727661132812 C 102.809814453125 252.5605163574219 105.5345764160156 253.3293151855469 108.0076293945312 253.3293151855469 C 109.7110366821289 253.3293151855469 111.1211242675781 252.9328155517578 111.9781494140625 252.2128601074219 C 112.6767501831055 251.6260070800781 113.0163497924805 250.8347473144531 113.0163497924805 249.7938842773438 C 113.0163497924805 248.4948272705078 113.0162124633789 247.0227661132812 107.7625961303711 244.9994201660156 C 104.0249862670898 243.6700897216797 101.248405456543 242.05615234375 99.27449798583984 240.0658416748047 C 96.89765930175781 237.6692657470703 95.6925048828125 234.7316436767578 95.6925048828125 231.3345642089844 C 95.6925048828125 227.5258178710938 97.27256774902344 224.0755767822266 100.1416244506836 221.619384765625 C 101.533073425293 220.4281768798828 103.1818389892578 219.5063781738281 105.042106628418 218.8795776367188 C 106.8985061645508 218.2541046142578 108.9280242919922 217.9369506835938 111.0742645263672 217.9369506835938 C 116.2465362548828 217.9369506835938 119.5246963500977 219.3582458496094 121.0184173583984 220.2054443359375 L 123.1744384765625 221.4283142089844 L 119.869499206543 231.1980743408203 L 116.7323303222656 229.4789276123047 C 115.7450561523438 228.9379119873047 113.6749496459961 228.0303039550781 110.9031295776367 228.0303039550781 C 109.3361053466797 228.0303039550781 108.130973815918 228.3930511474609 107.4180145263672 229.079345703125 C 106.7610549926758 229.7117309570312 106.6901245117188 230.4693756103516 106.6901245117188 230.7657470703125 C 106.6901245117188 231.9896545410156 106.6899261474609 233.1455993652344 112.3836135864258 235.3544464111328 C 116.2668762207031 236.8526153564453 118.9519348144531 238.5140838623047 120.833854675293 240.5831909179688 C 121.916633605957 241.773681640625 122.737419128418 243.1212158203125 123.2734146118164 244.58837890625 C 123.8031005859375 246.0382690429688 124.0716705322266 247.6558532714844 124.0716705322266 249.3962097167969 C 124.0716705322266 253.2961883544922 122.544677734375 256.82958984375 119.7719802856445 259.3455505371094 C 116.8357391357422 262.0099182128906 112.6493835449219 263.418212890625 107.6655197143555 263.418212890625 Z" stroke="none" fill="#12263f"/>
            </g>
          </g>
        </g>
      </g>
    </g>
  </g>
</svg>
