<svg xmlns="http://www.w3.org/2000/svg" width="190" height="112.281" viewBox="0 0 190 112.281">
  <g id="Grupo_1156617" data-name="Grupo 1156617" transform="translate(-179.711 -4079.719)">
    <g id="Grupo_1156616" data-name="Grupo 1156616">
      <g id="Grupo_1156202" data-name="Grupo 1156202">
        <path id="Rectángulo_403519" data-name="Rectángulo 403519" d="M94,0h2a94,94,0,0,1,94,94v0a0,0,0,0,1,0,0H0a0,0,0,0,1,0,0v0A94,94,0,0,1,94,0Z" transform="translate(179.711 4098)" fill="#32deff"/>
        <g id="social-network_7894245" transform="translate(208.398 4015.721)">
          <path id="Trazado_1001039" data-name="Trazado 1001039" d="M146.345,66.171A2.173,2.173,0,0,0,144.172,64H18.166a2.173,2.173,0,0,0-2.173,2.173v82.555a2.173,2.173,0,0,0,2.173,2.173H144.172a2.173,2.173,0,0,0,2.173-2.173V66.171ZM142,68.344v78.209H20.338V68.344Z" transform="translate(-11.65 0)" fill="#0b489b" fill-rule="evenodd"/>
          <path id="Trazado_1001040" data-name="Trazado 1001040" d="M157.311,90.175A2.171,2.171,0,0,0,155.139,88H42.168A2.171,2.171,0,0,0,40,90.175V159.7a2.171,2.171,0,0,0,2.172,2.172H155.139a2.171,2.171,0,0,0,2.172-2.172V90.175Zm-4.344,2.172v65.176H44.34V92.347Z" transform="translate(-29.135 -17.486)" fill="#0b489b" fill-rule="evenodd"/>
          <path id="Trazado_1001041" data-name="Trazado 1001041" d="M82.642,120.965a8.661,8.661,0,0,0-2.648,6.244,2.173,2.173,0,0,0,2.173,2.173H95.2a2.173,2.173,0,0,0,2.173-2.173,8.661,8.661,0,0,0-2.648-6.244,6.518,6.518,0,1,0-12.083,0Zm3.941,2.439a2.173,2.173,0,0,0,.524-3.393,2.173,2.173,0,1,1,3.154,0,2.173,2.173,0,0,0,.524,3.393,4.39,4.39,0,0,1,1.662,1.632H84.921A4.392,4.392,0,0,1,86.583,123.4Z" transform="translate(-58.271 -34.967)" fill="#0b489b" fill-rule="evenodd"/>
          <path id="Trazado_1001042" data-name="Trazado 1001042" d="M370.645,120.965A8.661,8.661,0,0,0,368,127.209a2.173,2.173,0,0,0,2.173,2.173H383.2a2.173,2.173,0,0,0,2.172-2.173,8.661,8.661,0,0,0-2.648-6.244,6.517,6.517,0,1,0-12.083,0Zm3.941,2.439a2.173,2.173,0,0,0,.524-3.393,2.173,2.173,0,1,1,3.154,0,2.173,2.173,0,0,0,.524,3.393,4.39,4.39,0,0,1,1.662,1.632h-7.526A4.392,4.392,0,0,1,374.586,123.4Z" transform="translate(-268.063 -34.967)" fill="#0b489b" fill-rule="evenodd"/>
          <path id="Trazado_1001043" data-name="Trazado 1001043" d="M82.642,200.965a8.661,8.661,0,0,0-2.648,6.244,2.173,2.173,0,0,0,2.173,2.172H95.2a2.173,2.173,0,0,0,2.173-2.172,8.661,8.661,0,0,0-2.648-6.244,6.518,6.518,0,1,0-12.083,0Zm3.941,2.439a2.173,2.173,0,0,0,.524-3.393,2.173,2.173,0,1,1,3.154,0,2.173,2.173,0,0,0,.524,3.393,4.39,4.39,0,0,1,1.662,1.632H84.921A4.392,4.392,0,0,1,86.583,203.4Z" transform="translate(-58.271 -93.242)" fill="#0b489b" fill-rule="evenodd"/>
          <path id="Trazado_1001044" data-name="Trazado 1001044" d="M370.645,200.965A8.661,8.661,0,0,0,368,207.209a2.173,2.173,0,0,0,2.173,2.172H383.2a2.173,2.173,0,0,0,2.172-2.172,8.661,8.661,0,0,0-2.648-6.244,6.517,6.517,0,1,0-12.083,0Zm3.941,2.439a2.173,2.173,0,0,0,.524-3.393,2.173,2.173,0,1,1,3.154,0,2.173,2.173,0,0,0,.524,3.393,4.39,4.39,0,0,1,1.662,1.632h-7.526A4.392,4.392,0,0,1,374.586,203.4Z" transform="translate(-268.063 -93.242)" fill="#0b489b" fill-rule="evenodd"/>
          <path id="Trazado_1001045" data-name="Trazado 1001045" d="M82.642,280.965a8.661,8.661,0,0,0-2.648,6.244,2.173,2.173,0,0,0,2.173,2.173H95.2a2.173,2.173,0,0,0,2.173-2.173,8.661,8.661,0,0,0-2.648-6.244,6.518,6.518,0,1,0-12.083,0Zm3.941,2.439a2.173,2.173,0,0,0,.524-3.393,2.173,2.173,0,1,1,3.154,0,2.173,2.173,0,0,0,.524,3.393,4.389,4.389,0,0,1,1.662,1.632H84.921A4.391,4.391,0,0,1,86.583,283.4Z" transform="translate(-58.271 -151.517)" fill="#0b489b" fill-rule="evenodd"/>
          <path id="Trazado_1001046" data-name="Trazado 1001046" d="M370.645,280.965A8.661,8.661,0,0,0,368,287.209a2.173,2.173,0,0,0,2.173,2.173H383.2a2.173,2.173,0,0,0,2.172-2.173,8.661,8.661,0,0,0-2.648-6.244,6.517,6.517,0,1,0-12.083,0Zm3.941,2.439a2.173,2.173,0,0,0,.524-3.393,2.173,2.173,0,1,1,3.154,0,2.173,2.173,0,0,0,.524,3.393,4.389,4.389,0,0,1,1.662,1.632h-7.526A4.392,4.392,0,0,1,374.586,283.4Z" transform="translate(-268.063 -151.517)" fill="#0b489b" fill-rule="evenodd"/>
          <path id="Trazado_1001047" data-name="Trazado 1001047" d="M202.652,216H146.167a2.173,2.173,0,1,0,0,4.345h56.486a2.173,2.173,0,0,0,0-4.345Z" transform="translate(-104.891 -110.725)" fill="#0b489b" fill-rule="evenodd"/>
          <path id="Trazado_1001048" data-name="Trazado 1001048" d="M301.722,136H290.86a2.169,2.169,0,0,0-2.016,1.366l-8.69,21.725a2.171,2.171,0,1,0,4.032,1.612l8.145-20.359h9.392a2.173,2.173,0,1,0,0-4.345Z" transform="translate(-203.961 -52.45)" fill="#0b489b" fill-rule="evenodd"/>
          <path id="Trazado_1001049" data-name="Trazado 1001049" d="M294.969,188.346h5.214a2.173,2.173,0,0,0,0-4.345h-5.214a2.173,2.173,0,0,0,0,4.345Z" transform="translate(-213.283 -87.415)" fill="#0b489b" fill-rule="evenodd"/>
          <path id="Trazado_1001050" data-name="Trazado 1001050" d="M284.24,237.727H270.375L260.112,217.2a2.171,2.171,0,0,0-3.884,1.942l10.863,21.725a2.169,2.169,0,0,0,1.942,1.2H284.24a2.173,2.173,0,1,0,0-4.345Z" transform="translate(-186.478 -110.726)" fill="#0b489b" fill-rule="evenodd"/>
          <path id="Trazado_1001051" data-name="Trazado 1001051" d="M146.167,242.072h6.517a2.169,2.169,0,0,0,2.016-1.366l8.69-21.725a2.171,2.171,0,1,0-4.032-1.612l-8.145,20.359h-5.047a2.173,2.173,0,1,0,0,4.345Z" transform="translate(-104.891 -110.726)" fill="#0b489b" fill-rule="evenodd"/>
          <path id="Trazado_1001052" data-name="Trazado 1001052" d="M146.167,140.346h11.692l10.263,20.524a2.171,2.171,0,0,0,3.884-1.942L161.144,137.2A2.169,2.169,0,0,0,159.2,136H146.167a2.173,2.173,0,0,0,0,4.345Z" transform="translate(-104.891 -52.45)" fill="#0b489b" fill-rule="evenodd"/>
          <path id="Trazado_1001053" data-name="Trazado 1001053" d="M206.161,164.346h7.6a2.172,2.172,0,0,0,0-4.345h-7.6a2.172,2.172,0,0,0,0,4.345Z" transform="translate(-148.593 -69.932)" fill="#0b489b" fill-rule="evenodd"/>
          <path id="Trazado_1001054" data-name="Trazado 1001054" d="M186.16,268.346h10.863a2.172,2.172,0,1,0,0-4.345H186.16a2.172,2.172,0,1,0,0,4.345Z" transform="translate(-134.023 -145.69)" fill="#0b489b" fill-rule="evenodd"/>
          <path id="Trazado_1001055" data-name="Trazado 1001055" d="M274.17,252.346h4.345a2.173,2.173,0,1,0,0-4.345H274.17a2.173,2.173,0,0,0,0,4.345Z" transform="translate(-198.133 -134.035)" fill="#0b489b" fill-rule="evenodd"/>
          <path id="Trazado_1001056" data-name="Trazado 1001056" d="M314.17,252.346h4.345a2.173,2.173,0,0,0,0-4.345H314.17a2.173,2.173,0,0,0,0,4.345Z" transform="translate(-227.271 -134.035)" fill="#0b489b" fill-rule="evenodd"/>
          <path id="Trazado_1001057" data-name="Trazado 1001057" d="M258.167,164.346h2.173a2.172,2.172,0,0,0,0-4.345h-2.173a2.172,2.172,0,1,0,0,4.345Z" transform="translate(-186.475 -69.932)" fill="#0b489b" fill-rule="evenodd"/>
          <path id="Trazado_1001058" data-name="Trazado 1001058" d="M139.04,370.173A2.171,2.171,0,0,0,136.869,368H2.171A2.171,2.171,0,0,0,0,370.173v4.345a15.206,15.206,0,0,0,15.207,15.208H123.833a15.206,15.206,0,0,0,15.207-15.208v-4.345Zm-4.343,2.173v2.172a10.864,10.864,0,0,1-10.864,10.863H15.207A10.865,10.865,0,0,1,4.343,374.519v-2.172Z" transform="translate(0 -221.447)" fill="#0b489b" fill-rule="evenodd"/>
          <path id="Trazado_1001059" data-name="Trazado 1001059" d="M428.342,416.691v-6.518a2.172,2.172,0,1,0-4.345,0v6.518a2.172,2.172,0,1,0,4.345,0Z" transform="translate(-308.855 -250.585)" fill="#0b489b" fill-rule="evenodd"/>
          <path id="Trazado_1001060" data-name="Trazado 1001060" d="M404.342,416.691v-6.518a2.173,2.173,0,1,0-4.345,0v6.518a2.173,2.173,0,1,0,4.345,0Z" transform="translate(-291.373 -250.585)" fill="#0b489b" fill-rule="evenodd"/>
          <path id="Trazado_1001061" data-name="Trazado 1001061" d="M380.342,416.691v-6.518a2.173,2.173,0,1,0-4.345,0v6.518a2.173,2.173,0,1,0,4.345,0Z" transform="translate(-273.89 -250.585)" fill="#0b489b" fill-rule="evenodd"/>
        </g>
      </g>
    </g>
  </g>
</svg>
