<svg xmlns="http://www.w3.org/2000/svg" width="105.23" height="115.347" viewBox="0 0 105.23 115.347">
  <g id="Grupo_1156189" data-name="Grupo 1156189" transform="translate(-753.822 -2060.31)">
    <g id="Grupo_1150935" data-name="Grupo 1150935" transform="translate(765.09 2060.31)">
      <path id="Trazado_987198" data-name="Trazado 987198" d="M80.71,155.347h-62.6C6.794,155.347,0,151.815,0,136.764V42c0-1.1.672-2,1.5-2H64.183C75.5,40,82.212,46.545,82.212,61.6V153.35c0,1.1-.672,2-1.5,2" transform="translate(0 -40)" fill="#3571c7"/>
    </g>
    <g id="software_7187431" transform="translate(747.822 2053.511)">
      <path id="Trazado_1000880" data-name="Trazado 1000880" d="M103.389,145.943H13.841A6.341,6.341,0,0,1,7.5,139.6V89.341A6.341,6.341,0,0,1,13.841,83h89.549a6.341,6.341,0,0,1,6.341,6.341V139.6A6.341,6.341,0,0,1,103.389,145.943Z" transform="translate(0 -54.012)" fill="#cbbfda"/>
      <path id="Trazado_1000881" data-name="Trazado 1000881" d="M449.844,83h-6.171a6.341,6.341,0,0,1,6.341,6.341V139.6a6.341,6.341,0,0,1-6.341,6.341h6.171a6.341,6.341,0,0,0,6.341-6.341V89.341A6.341,6.341,0,0,0,449.844,83Z" transform="translate(-346.454 -54.012)" fill="#512189"/>
      <path id="Trazado_1000882" data-name="Trazado 1000882" d="M37.5,161.152v-45.7A2.449,2.449,0,0,1,39.949,113H124.94a2.449,2.449,0,0,1,2.449,2.449v45.7a2.449,2.449,0,0,1-2.449,2.449H39.949A2.449,2.449,0,0,1,37.5,161.152Z" transform="translate(-23.829 -77.841)" fill="#b4e6d2"/>
      <path id="Trazado_1000883" data-name="Trazado 1000883" d="M438.767,113H432.6a2.449,2.449,0,0,1,2.449,2.449v45.7A2.449,2.449,0,0,1,432.6,163.6h6.171a2.449,2.449,0,0,0,2.449-2.449v-45.7A2.449,2.449,0,0,0,438.767,113Z" transform="translate(-337.656 -77.841)" fill="#a6e7f0"/>
      <path id="Trazado_1000884" data-name="Trazado 1000884" d="M196.906,468.4H157.822a.822.822,0,0,1-.822-.822v-5.761a.822.822,0,0,1,.822-.822h39.084a.822.822,0,0,1,.822.822v5.761A.822.822,0,0,1,196.906,468.4Z" transform="translate(-118.749 -354.258)" fill="#512189"/>
      <path id="Trazado_1000885" data-name="Trazado 1000885" d="M327.175,461H321a.822.822,0,0,1,.822.822v5.761a.822.822,0,0,1-.822.822h6.171a.822.822,0,0,0,.822-.822v-5.761A.822.822,0,0,0,327.175,461Z" transform="translate(-249.018 -354.259)" fill="#c5d3dd"/>
      <rect id="Rectángulo_431713" data-name="Rectángulo 431713" width="23.861" height="14.81" transform="translate(46.685 91.931)" fill="#7a4bb0"/>
      <path id="Trazado_1000886" data-name="Trazado 1000886" d="M244.228,427.639H236v-4.525A4.114,4.114,0,0,1,240.114,419h0a4.114,4.114,0,0,1,4.114,4.114Z" transform="translate(-181.499 -320.898)" fill="#678d98"/>
      <path id="Trazado_1000887" data-name="Trazado 1000887" d="M184.778,43.08V36.7a1.463,1.463,0,0,0-1.157-1.431l-5.879-1.255a.688.688,0,0,1-.5-.44q-.277-.76-.615-1.489a.688.688,0,0,1,.043-.666l3.269-5.042a1.463,1.463,0,0,0-.193-1.83l-4.512-4.512a1.463,1.463,0,0,0-1.83-.193l-5.042,3.268a.688.688,0,0,1-.666.043q-.729-.339-1.489-.615a.688.688,0,0,1-.44-.5l-1.255-5.879A1.463,1.463,0,0,0,163.08,15H156.7a1.463,1.463,0,0,0-1.431,1.157l-1.255,5.879a.688.688,0,0,1-.44.5q-.76.277-1.489.615a.688.688,0,0,1-.666-.043l-5.042-3.268a1.463,1.463,0,0,0-1.83.193l-4.512,4.512a1.463,1.463,0,0,0-.193,1.83l3.268,5.042a.688.688,0,0,1,.043.666q-.339.729-.615,1.489a.688.688,0,0,1-.5.44l-5.879,1.255A1.463,1.463,0,0,0,135,36.7v6.38a1.463,1.463,0,0,0,1.157,1.431l5.879,1.255a.688.688,0,0,1,.5.44q.277.76.615,1.489a.688.688,0,0,1-.043.666L139.842,53.4a1.463,1.463,0,0,0,.193,1.83l4.512,4.512a1.463,1.463,0,0,0,1.83.193l5.042-3.268a.688.688,0,0,1,.666-.043q.729.339,1.489.615a.688.688,0,0,1,.44.5l1.255,5.879a1.463,1.463,0,0,0,1.431,1.157h6.38a1.463,1.463,0,0,0,1.431-1.157l1.255-5.879a.688.688,0,0,1,.44-.5q.76-.277,1.489-.615a.688.688,0,0,1,.666.043l5.042,3.268a1.463,1.463,0,0,0,1.83-.193l4.512-4.512a1.463,1.463,0,0,0,.193-1.83l-3.268-5.042a.688.688,0,0,1-.043-.666q.339-.729.615-1.489a.688.688,0,0,1,.5-.44l5.879-1.255A1.462,1.462,0,0,0,184.778,43.08Z" transform="translate(-101.275)" fill="#fedba6"/>
      <g id="Grupo_1156163" data-name="Grupo 1156163" transform="translate(69.091 19.607)">
        <path id="Trazado_1000888" data-name="Trazado 1000888" d="M320.185,53.055l-5.88-1.255a.688.688,0,0,1-.5-.44c-.185-.507-.39-1-.616-1.49a.687.687,0,0,1,.042-.665l3.269-5.041a1.464,1.464,0,0,0-.192-1.83L311.8,37.821a1.461,1.461,0,0,0-1.829-.194L307.2,39.42l2.914,2.913a1.464,1.464,0,0,1,.192,1.83L307.039,49.2a.687.687,0,0,0-.042.665q.339.728.616,1.49a.688.688,0,0,0,.5.44l5.88,1.255a1.464,1.464,0,0,1,1.158,1.43v6.381a1.462,1.462,0,0,1-1.158,1.43l-5.88,1.255a.686.686,0,0,0-.5.441q-.278.76-.616,1.488a.69.69,0,0,0,.042.667l3.269,5.041a1.464,1.464,0,0,1-.192,1.83L307.2,75.931l2.765,1.792a1.461,1.461,0,0,0,1.829-.193l4.514-4.512a1.464,1.464,0,0,0,.192-1.83l-3.269-5.041a.69.69,0,0,1-.042-.667q.339-.728.616-1.488a.686.686,0,0,1,.5-.441l5.88-1.255a1.462,1.462,0,0,0,1.158-1.43V54.484A1.463,1.463,0,0,0,320.185,53.055Z" transform="translate(-306.93 -37.392)" fill="#fece85"/>
      </g>
      <path id="Trazado_1000889" data-name="Trazado 1000889" d="M232.171,112.842h0A6.171,6.171,0,0,1,226,106.671v-4.525a6.171,6.171,0,0,1,6.171-6.171h0a6.171,6.171,0,0,1,6.171,6.171v4.525A6.171,6.171,0,0,1,232.171,112.842Z" transform="translate(-173.556 -64.318)" fill="#fe646f"/>
      <path id="Trazado_1000890" data-name="Trazado 1000890" d="M244.085,95.975A6.141,6.141,0,0,0,241,96.8a6.167,6.167,0,0,1,3.085,5.343v4.525A6.167,6.167,0,0,1,241,112.014a6.17,6.17,0,0,0,9.256-5.343v-4.525A6.171,6.171,0,0,0,244.085,95.975Z" transform="translate(-185.47 -64.318)" fill="#fb5415"/>
      <path id="Trazado_1000891" data-name="Trazado 1000891" d="M352.147,250.052v30.019a2.56,2.56,0,0,1-2.56,2.56H323.03a2.56,2.56,0,0,1-2.56-2.56V269.438a.661.661,0,0,0-.372-.6l-7.139-3.466a.35.35,0,0,1,0-.629l7.139-3.466a.661.661,0,0,0,.372-.6V250.053a2.56,2.56,0,0,1,2.56-2.56h26.557A2.559,2.559,0,0,1,352.147,250.052Z" transform="translate(-242.471 -184.669)" fill="#f9f3f1"/>
      <path id="Trazado_1000892" data-name="Trazado 1000892" d="M467.965,247.492h-6.171a2.56,2.56,0,0,1,2.56,2.56v30.019a2.56,2.56,0,0,1-2.56,2.56h6.171a2.56,2.56,0,0,0,2.56-2.56V250.052A2.559,2.559,0,0,0,467.965,247.492Z" transform="translate(-360.848 -184.669)" fill="#f3eae6"/>
      <path id="Trazado_1000893" data-name="Trazado 1000893" d="M397.776,307.2H382.335a1.93,1.93,0,0,1-1.93-1.93V289.834a1.93,1.93,0,0,1,1.93-1.93h15.441a1.93,1.93,0,0,1,1.93,1.93v15.441A1.93,1.93,0,0,1,397.776,307.2Z" transform="translate(-296.2 -216.768)" fill="#fe646f"/>
      <path id="Trazado_1000894" data-name="Trazado 1000894" d="M441.027,287.9h-6.171a1.93,1.93,0,0,1,1.93,1.93v15.441a1.93,1.93,0,0,1-1.93,1.93h6.171a1.93,1.93,0,0,0,1.93-1.93V289.833A1.93,1.93,0,0,0,441.027,287.9Z" transform="translate(-339.451 -216.767)" fill="#fb5415"/>
      <path id="Trazado_1000895" data-name="Trazado 1000895" d="M87.3,294.153H71.862a1.93,1.93,0,0,1-1.93-1.93v-4.95a1.93,1.93,0,0,1,1.93-1.93H87.3a1.93,1.93,0,0,1,1.93,1.93v4.95A1.93,1.93,0,0,1,87.3,294.153Z" transform="translate(-49.59 -214.734)" fill="#fea95c"/>
      <path id="Trazado_1000896" data-name="Trazado 1000896" d="M130.553,285.342h-6.171a1.93,1.93,0,0,1,1.93,1.93v4.95a1.93,1.93,0,0,1-1.93,1.93h6.171a1.93,1.93,0,0,0,1.93-1.93v-4.95A1.93,1.93,0,0,0,130.553,285.342Z" transform="translate(-92.84 -214.733)" fill="#fe9738"/>
      <g id="Grupo_1156171" data-name="Grupo 1156171" transform="translate(7.5 15.001)">
        <path id="Trazado_1000897" data-name="Trazado 1000897" d="M7.5,93.536v-4.2A6.341,6.341,0,0,1,13.841,83H39.965" transform="translate(-7.5 -69.013)" fill="none" stroke="#000" stroke-linecap="round" stroke-linejoin="round" stroke-miterlimit="10" stroke-width="3"/>
        <path id="Trazado_1000898" data-name="Trazado 1000898" d="M77.608,216.131H13.841A6.341,6.341,0,0,1,7.5,209.79V171.364" transform="translate(-7.5 -139.201)" fill="none" stroke="#000" stroke-linecap="round" stroke-linejoin="round" stroke-miterlimit="10" stroke-width="3"/>
        <path id="Trazado_1000899" data-name="Trazado 1000899" d="M346.833,83h26.09a6.341,6.341,0,0,1,6.341,6.341v36.787" transform="translate(-277.034 -69.013)" fill="none" stroke="#000" stroke-linecap="round" stroke-linejoin="round" stroke-miterlimit="10" stroke-width="3"/>
        <path id="Trazado_1000900" data-name="Trazado 1000900" d="M101.437,163.6H39.949a2.449,2.449,0,0,1-2.449-2.449v-45.7A2.449,2.449,0,0,1,39.949,113H58.966" transform="translate(-31.329 -92.842)" fill="none" stroke="#000" stroke-linecap="round" stroke-linejoin="round" stroke-miterlimit="10" stroke-width="3"/>
        <path id="Trazado_1000901" data-name="Trazado 1000901" d="M370.111,113h19.024a2.449,2.449,0,0,1,2.449,2.449V140.22" transform="translate(-295.524 -92.842)" fill="none" stroke="#000" stroke-linecap="round" stroke-linejoin="round" stroke-miterlimit="10" stroke-width="3"/>
        <path id="Trazado_1000902" data-name="Trazado 1000902" d="M196.906,468.4H157.822a.822.822,0,0,1-.822-.822v-5.761a.822.822,0,0,1,.822-.822h39.084a.822.822,0,0,1,.822.822v5.761A.822.822,0,0,1,196.906,468.4Z" transform="translate(-126.249 -369.259)" fill="none" stroke="#000" stroke-linecap="round" stroke-linejoin="round" stroke-miterlimit="10" stroke-width="3"/>
        <rect id="Rectángulo_431714" data-name="Rectángulo 431714" width="23.861" height="14.81" transform="translate(39.185 76.93)" fill="none" stroke="#000" stroke-linecap="round" stroke-linejoin="round" stroke-miterlimit="10" stroke-width="3"/>
        <path id="Trazado_1000903" data-name="Trazado 1000903" d="M244.228,427.639H236v-4.525A4.114,4.114,0,0,1,240.114,419h0a4.114,4.114,0,0,1,4.114,4.114Z" transform="translate(-188.999 -335.899)" fill="none" stroke="#000" stroke-linecap="round" stroke-linejoin="round" stroke-miterlimit="10" stroke-width="3"/>
        <path id="Trazado_1000904" data-name="Trazado 1000904" d="M184.778,43.08V36.7a1.463,1.463,0,0,0-1.157-1.431l-5.879-1.255a.688.688,0,0,1-.5-.44q-.277-.76-.615-1.489a.688.688,0,0,1,.043-.666l3.269-5.042a1.463,1.463,0,0,0-.193-1.83l-4.512-4.512a1.463,1.463,0,0,0-1.83-.193l-5.042,3.268a.688.688,0,0,1-.666.043q-.729-.339-1.489-.615a.688.688,0,0,1-.44-.5l-1.255-5.879A1.463,1.463,0,0,0,163.08,15H156.7a1.463,1.463,0,0,0-1.431,1.157l-1.255,5.879a.688.688,0,0,1-.44.5q-.76.277-1.489.615a.688.688,0,0,1-.666-.043l-5.042-3.268a1.463,1.463,0,0,0-1.83.193l-4.512,4.512a1.463,1.463,0,0,0-.193,1.83l3.268,5.042a.688.688,0,0,1,.043.666q-.339.729-.615,1.489a.688.688,0,0,1-.5.44l-5.879,1.255A1.463,1.463,0,0,0,135,36.7v6.38a1.463,1.463,0,0,0,1.157,1.431l5.879,1.255a.688.688,0,0,1,.5.44q.277.76.615,1.489a.688.688,0,0,1-.043.666L139.842,53.4a1.463,1.463,0,0,0,.193,1.83l4.512,4.512a1.463,1.463,0,0,0,1.83.193l5.042-3.268a.688.688,0,0,1,.666-.043q.729.339,1.489.615a.688.688,0,0,1,.44.5l1.255,5.879a1.463,1.463,0,0,0,1.431,1.157h6.38a1.463,1.463,0,0,0,1.431-1.157l1.255-5.879a.688.688,0,0,1,.44-.5q.76-.277,1.489-.615a.688.688,0,0,1,.666.043l5.042,3.268a1.463,1.463,0,0,0,1.83-.193l4.512-4.512a1.463,1.463,0,0,0,.193-1.83l-3.268-5.042a.688.688,0,0,1-.043-.666q.339-.729.615-1.489a.688.688,0,0,1,.5-.44l5.879-1.255A1.462,1.462,0,0,0,184.778,43.08Z" transform="translate(-108.775 -15.001)" fill="none" stroke="#000" stroke-linecap="round" stroke-linejoin="round" stroke-miterlimit="10" stroke-width="3"/>
        <path id="Trazado_1000905" data-name="Trazado 1000905" d="M232.171,112.842h0A6.171,6.171,0,0,1,226,106.671v-4.525a6.171,6.171,0,0,1,6.171-6.171h0a6.171,6.171,0,0,1,6.171,6.171v4.525A6.171,6.171,0,0,1,232.171,112.842Z" transform="translate(-181.056 -79.319)" fill="none" stroke="#000" stroke-linecap="round" stroke-linejoin="round" stroke-miterlimit="10" stroke-width="3"/>
        <path id="Trazado_1000910" data-name="Trazado 1000910" d="M335.713,282.632H323.291a2.56,2.56,0,0,1-2.56-2.56V269.439a.661.661,0,0,0-.372-.6l-7.139-3.466a.35.35,0,0,1,0-.629l7.139-3.466a.661.661,0,0,0,.372-.6V250.054a2.56,2.56,0,0,1,2.56-2.56h26.557a2.56,2.56,0,0,1,2.56,2.56v30.019a2.56,2.56,0,0,1-2.56,2.56h-6.731" transform="translate(-250.178 -199.671)" fill="none" stroke="#000" stroke-linecap="round" stroke-linejoin="round" stroke-miterlimit="10" stroke-width="3"/>
        <path id="Trazado_1000911" data-name="Trazado 1000911" d="M398.038,307.2H382.6a1.93,1.93,0,0,1-1.93-1.93V289.834a1.93,1.93,0,0,1,1.93-1.93h15.441a1.93,1.93,0,0,1,1.93,1.93v15.441A1.93,1.93,0,0,1,398.038,307.2Z" transform="translate(-303.908 -231.769)" fill="none" stroke="#000" stroke-linecap="round" stroke-linejoin="round" stroke-miterlimit="10" stroke-width="3"/>
        <g id="Grupo_1156169" data-name="Grupo 1156169" transform="translate(83.103 62.479)">
          <line id="Línea_4318" data-name="Línea 4318" x1="6.612" y2="6.613" fill="none" stroke="#000" stroke-linecap="round" stroke-linejoin="round" stroke-miterlimit="10" stroke-width="3"/>
          <line id="Línea_4319" data-name="Línea 4319" x1="6.612" y1="6.613" fill="none" stroke="#000" stroke-linecap="round" stroke-linejoin="round" stroke-miterlimit="10" stroke-width="3"/>
        </g>
        <g id="Grupo_1156170" data-name="Grupo 1156170" transform="translate(14.757 38.403)">
          <line id="Línea_4320" data-name="Línea 4320" x2="3.26" fill="none" stroke="#000" stroke-linecap="round" stroke-linejoin="round" stroke-miterlimit="10" stroke-width="3"/>
          <line id="Línea_4321" data-name="Línea 4321" x2="8.059" transform="translate(0 5.577)" fill="none" stroke="#000" stroke-linecap="round" stroke-linejoin="round" stroke-miterlimit="10" stroke-width="3"/>
          <line id="Línea_4322" data-name="Línea 4322" x2="8.059" transform="translate(0 11.153)" fill="none" stroke="#000" stroke-linecap="round" stroke-linejoin="round" stroke-miterlimit="10" stroke-width="3"/>
        </g>
        <path id="Trazado_1000912" data-name="Trazado 1000912" d="M87.3,294.153H71.862a1.93,1.93,0,0,1-1.93-1.93v-4.95a1.93,1.93,0,0,1,1.93-1.93H87.3a1.93,1.93,0,0,1,1.93,1.93v4.95A1.93,1.93,0,0,1,87.3,294.153Z" transform="translate(-57.09 -229.735)" fill="none" stroke="#000" stroke-linecap="round" stroke-linejoin="round" stroke-miterlimit="10" stroke-width="3"/>
      </g>
    </g>
  </g>
</svg>
