<svg xmlns="http://www.w3.org/2000/svg" width="102.23" height="115.347" viewBox="0 0 102.23 115.347">
  <g id="Grupo_1156188" data-name="Grupo 1156188" transform="translate(-1107.379 -2060.31)">
    <g id="Grupo_1150935" data-name="Grupo 1150935" transform="translate(1117.146 2060.31)">
      <path id="Trazado_987198" data-name="Trazado 987198" d="M80.71,155.347h-62.6C6.794,155.347,0,151.815,0,136.764V42c0-1.1.672-2,1.5-2H64.183C75.5,40,82.212,46.545,82.212,61.6V153.35c0,1.1-.672,2-1.5,2" transform="translate(0 -40)" fill="#3571c7"/>
    </g>
    <g id="Conference-Work_From_Home-Meeting-Video_Call-Laptop" data-name="Conference-Work From Home-Meeting-Video Call-Laptop" transform="translate(1105.379 2064.77)">
      <path id="Trazado_1000953" data-name="Trazado 1000953" d="M101.823,51v6.815a3.418,3.418,0,0,1-3.408,3.408H6.408A3.418,3.418,0,0,1,3,57.815V51Z" transform="translate(0.704 34.488)" fill="#512189"/>
      <path id="Trazado_1000954" data-name="Trazado 1000954" d="M91.6,39H13.223L3,59.446h98.823Z" transform="translate(0.704 26.042)" fill="#7a4bb0"/>
      <path id="Trazado_1000955" data-name="Trazado 1000955" d="M87.377,6.408V64.338H9V6.408A3.418,3.418,0,0,1,12.408,3H83.969a3.418,3.418,0,0,1,3.408,3.408Z" transform="translate(4.927 0.704)" fill="#cbbfda"/>
      <path id="Trazado_1000956" data-name="Trazado 1000956" d="M13,7H77.746V54.708H13Z" transform="translate(7.742 3.519)" fill="#32deff"/>
      <path id="Trazado_1000957" data-name="Trazado 1000957" d="M67.669,54.408a3.418,3.418,0,0,0-3.408,3.408V51H43.815v8.519a3.408,3.408,0,1,0-6.815,0v1.7H71.077V57.815A3.433,3.433,0,0,0,67.669,54.408Z" transform="translate(24.634 34.488)" fill="#787680"/>
      <path id="Trazado_1000958" data-name="Trazado 1000958" d="M54.81,50.005A3.331,3.331,0,0,0,52.408,49,3.418,3.418,0,0,0,49,52.408h6.815A3.331,3.331,0,0,0,54.81,50.005Z" transform="translate(33.081 33.081)" fill="#898890"/>
      <path id="Trazado_1000959" data-name="Trazado 1000959" d="M41.669,56.112a3.433,3.433,0,0,0-3.408,3.408V51H17.815v6.815a3.408,3.408,0,0,0-6.815,0v3.408H45.077v-1.7A3.418,3.418,0,0,0,41.669,56.112Z" transform="translate(6.335 34.488)" fill="#787680"/>
      <path id="Trazado_1000960" data-name="Trazado 1000960" d="M26.408,49A3.433,3.433,0,0,0,23,52.408h6.815A3.418,3.418,0,0,0,26.408,49Z" transform="translate(14.781 33.081)" fill="#898890"/>
      <path id="Trazado_1000961" data-name="Trazado 1000961" d="M68.072,55.524a3.331,3.331,0,0,0-2.4-1.005,3.418,3.418,0,0,0-3.408,3.408V51.112a3.408,3.408,0,1,0-6.815,0v-1.7a3.408,3.408,0,0,0-6.815,0v1.7a3.408,3.408,0,1,0-6.815,0v8.519a3.408,3.408,0,0,0-6.815,0V71.558H69.077V57.927A3.331,3.331,0,0,0,68.072,55.524Z" transform="translate(23.227 30.969)" fill="#ffc4a3"/>
      <path id="Trazado_1000962" data-name="Trazado 1000962" d="M39.669,56.223a3.433,3.433,0,0,0-3.408,3.408V51.112a3.408,3.408,0,1,0-6.815,0v-1.7a3.408,3.408,0,1,0-6.815,0v1.7a3.408,3.408,0,1,0-6.815,0v6.815a3.408,3.408,0,1,0-6.815,0V71.558H43.077V59.631A3.418,3.418,0,0,0,39.669,56.223Z" transform="translate(4.927 30.969)" fill="#ffc4a3"/>
      <path id="Trazado_1000963" data-name="Trazado 1000963" d="M53.261,43.465v7.02H26v-7.02a6.8,6.8,0,0,1,4.651-6.458l5.572-1.857V30.805a6.815,6.815,0,0,1-3.408-5.878V19.815a6.815,6.815,0,1,1,13.631,0v5.112a6.815,6.815,0,0,1-3.408,5.878V35.15l5.572,1.857a6.8,6.8,0,0,1,4.651,6.458Z" transform="translate(16.892 7.742)" fill="#3d9ae2"/>
      <path id="Trazado_1000964" data-name="Trazado 1000964" d="M51.261,32.315V42.742H24V32.315a6.8,6.8,0,0,1,4.651-6.458L34.223,24a3.408,3.408,0,0,0,6.815,0l5.572,1.857a6.8,6.8,0,0,1,4.651,6.458Z" transform="translate(15.484 15.485)" fill="#3571c7"/>
      <path id="Trazado_1000965" data-name="Trazado 1000965" d="M30,21v5.112a3.408,3.408,0,0,0,6.815,0V21Z" transform="translate(19.708 13.373)" fill="#ffc477"/>
      <path id="Trazado_1000966" data-name="Trazado 1000966" d="M41.631,17.815v3.408H40.336a3.389,3.389,0,0,1-3.05-1.891l-.767-1.516-.409.409a10.211,10.211,0,0,1-7.241,3H28V17.815a6.815,6.815,0,1,1,13.631,0Z" transform="translate(18.3 6.335)" fill="#12263f"/>
      <path id="Trazado_1000967" data-name="Trazado 1000967" d="M36.815,21v2.488a6.771,6.771,0,0,1-6.815,0V21Z" transform="translate(19.708 13.373)" fill="#ffb655"/>
      <path id="Trazado_1000968" data-name="Trazado 1000968" d="M40.336,18.408a3.389,3.389,0,0,1-3.05-1.891L36.519,15l-.409.409a10.211,10.211,0,0,1-7.241,3H28v1.7a6.815,6.815,0,1,0,13.631,0v-1.7Z" transform="translate(18.3 9.15)" fill="#ffc477"/>
      <path id="Trazado_1000969" data-name="Trazado 1000969" d="M104.043,84.721,94.007,64.633V7.112A5.127,5.127,0,0,0,88.9,2H17.335a5.127,5.127,0,0,0-5.112,5.112V64.633L2.187,84.721A1.7,1.7,0,0,0,2,85.488V92.3a5.127,5.127,0,0,0,5.112,5.112h5.112v5.112a1.7,1.7,0,0,0,1.7,1.7H48a1.7,1.7,0,0,0,1.7-1.7V97.415h6.815v5.112a1.7,1.7,0,0,0,1.7,1.7H92.3a1.7,1.7,0,0,0,1.7-1.7V97.415h5.112A5.127,5.127,0,0,0,104.23,92.3V85.488A1.7,1.7,0,0,0,104.043,84.721ZM15.631,7.112a1.7,1.7,0,0,1,1.7-1.7H88.9a1.7,1.7,0,0,1,1.7,1.7V63.338H15.631ZM12.223,88.9v5.112H7.112a1.7,1.7,0,0,1-1.7-1.7V87.192H12.53A5.112,5.112,0,0,0,12.223,88.9ZM46.3,100.823H15.631V88.9a1.7,1.7,0,1,1,3.408,0V92.3a1.7,1.7,0,1,0,3.408,0V82.081a1.7,1.7,0,1,1,3.408,0V92.3a1.7,1.7,0,1,0,3.408,0V80.377a1.7,1.7,0,1,1,3.408,0V92.3a1.7,1.7,0,1,0,3.408,0V82.081a1.7,1.7,0,0,1,3.408,0V95.711a1.7,1.7,0,1,0,3.408,0V90.6a1.7,1.7,0,0,1,3.408,0ZM56.523,90.6v3.408H49.708V90.6a5.067,5.067,0,0,0-1.329-3.408h9.473A5.067,5.067,0,0,0,56.523,90.6ZM90.6,100.823H59.931V90.6a1.7,1.7,0,0,1,3.408,0v5.112a1.7,1.7,0,1,0,3.408,0V82.081a1.7,1.7,0,1,1,3.408,0V92.3a1.7,1.7,0,0,0,3.408,0V80.377a1.7,1.7,0,0,1,3.408,0V92.3a1.7,1.7,0,0,0,3.408,0V82.081a1.7,1.7,0,1,1,3.408,0V92.3a1.7,1.7,0,1,0,3.408,0V88.9a1.7,1.7,0,1,1,3.408,0ZM88.9,83.784a5.112,5.112,0,0,0-1.7.29V82.081a5.127,5.127,0,0,0-5.112-5.112,5,5,0,0,0-2.5.664,5.112,5.112,0,0,0-8.621,0,5,5,0,0,0-2.5-.664,5.127,5.127,0,0,0-5.112,5.112v1.7H42.892v-1.7a5.127,5.127,0,0,0-5.112-5.112,5,5,0,0,0-2.5.664,5.112,5.112,0,0,0-8.621,0,5,5,0,0,0-2.5-.664,5.127,5.127,0,0,0-5.112,5.112v1.993a5.112,5.112,0,0,0-1.7-.29H6.464l8.519-17.038H91.247l8.519,17.038ZM100.823,92.3a1.7,1.7,0,0,1-1.7,1.7H94.007V88.9a5.112,5.112,0,0,0-.307-1.7h7.122Z" transform="translate(0)"/>
      <path id="Trazado_1000970" data-name="Trazado 1000970" d="M15,42h3.408v3.408H15Z" transform="translate(9.15 28.154)"/>
      <path id="Trazado_1000971" data-name="Trazado 1000971" d="M11,42h3.408v3.408H11Z" transform="translate(6.335 28.154)"/>
      <path id="Trazado_1000972" data-name="Trazado 1000972" d="M19,42h3.408v3.408H19Z" transform="translate(11.965 28.154)"/>
      <path id="Trazado_1000973" data-name="Trazado 1000973" d="M23,42h3.408v3.408H23Z" transform="translate(14.781 28.154)"/>
      <path id="Trazado_1000974" data-name="Trazado 1000974" d="M27,42h3.408v3.408H27Z" transform="translate(17.596 28.154)"/>
      <path id="Trazado_1000975" data-name="Trazado 1000975" d="M31,42h3.408v3.408H31Z" transform="translate(20.411 28.154)"/>
      <path id="Trazado_1000976" data-name="Trazado 1000976" d="M35,42h3.408v3.408H35Z" transform="translate(23.227 28.154)"/>
      <path id="Trazado_1000977" data-name="Trazado 1000977" d="M39,42h3.408v3.408H39Z" transform="translate(26.042 28.154)"/>
      <path id="Trazado_1000978" data-name="Trazado 1000978" d="M43,42h3.408v3.408H43Z" transform="translate(28.857 28.154)"/>
      <path id="Trazado_1000979" data-name="Trazado 1000979" d="M47,42h3.408v3.408H47Z" transform="translate(31.673 28.154)"/>
      <path id="Trazado_1000980" data-name="Trazado 1000980" d="M51,42h3.408v3.408H51Z" transform="translate(34.488 28.154)"/>
      <path id="Trazado_1000981" data-name="Trazado 1000981" d="M28,46H41.631v3.408H28Z" transform="translate(18.3 30.969)"/>
      <path id="Trazado_1000982" data-name="Trazado 1000982" d="M78.45,6H13.7A1.7,1.7,0,0,0,12,7.7V55.411a1.7,1.7,0,0,0,1.7,1.7H78.45a1.7,1.7,0,0,0,1.7-1.7V7.7A1.7,1.7,0,0,0,78.45,6ZM58,53.708H34.15V44.984a5.074,5.074,0,0,1,3.493-4.839l3.834-1.278a5.089,5.089,0,0,0,9.2,0l3.851,1.278A5.081,5.081,0,0,1,58,44.984ZM47.27,24.078a5.057,5.057,0,0,0,3.919,2.317v.051a5.112,5.112,0,1,1-10.223,0v-.068a11.654,11.654,0,0,0,6.3-2.3Zm-6.3-1.125V21.335a5.112,5.112,0,1,1,10.223,0v1.653a1.683,1.683,0,0,1-1.125-.886l-.75-1.533a1.758,1.758,0,0,0-1.261-.92,1.723,1.723,0,0,0-1.482.477l-.409.426a8.483,8.483,0,0,1-5.2,2.4Zm6.815,11.842v1.874a1.7,1.7,0,1,1-3.408,0V34.795A8.6,8.6,0,0,0,47.781,34.795ZM76.746,53.708H61.411V44.984a8.489,8.489,0,0,0-5.81-8.076l-4.413-1.465V33.21A8.437,8.437,0,0,0,54.6,26.446V21.335a8.519,8.519,0,1,0-17.038,0v5.112a8.437,8.437,0,0,0,3.408,6.764v2.232l-4.4,1.465a8.482,8.482,0,0,0-5.827,8.076v8.724H15.408V9.408H76.746Z" transform="translate(7.038 2.815)"/>
      <path id="Trazado_1000983" data-name="Trazado 1000983" d="M42,12h6.815v3.408H42Z" transform="translate(28.154 7.038)"/>
      <path id="Trazado_1000984" data-name="Trazado 1000984" d="M42,16h6.815v3.408H42Z" transform="translate(28.154 9.854)"/>
      <path id="Trazado_1000985" data-name="Trazado 1000985" d="M18,12h6.815v3.408H18Z" transform="translate(11.261 7.038)"/>
      <path id="Trazado_1000986" data-name="Trazado 1000986" d="M18,16h6.815v3.408H18Z" transform="translate(11.261 9.854)"/>
      <path id="Trazado_1000987" data-name="Trazado 1000987" d="M47.11,24.612a1.7,1.7,0,0,0,.5-1.2V20H44.2v2.7l-2.908,2.908L43.7,28.02Z" transform="translate(27.656 12.669)"/>
      <path id="Trazado_1000988" data-name="Trazado 1000988" d="M22.408,20H19v3.408a1.7,1.7,0,0,0,.5,1.2l3.408,3.408,2.409-2.409L22.408,22.7Z" transform="translate(11.965 12.669)"/>
    </g>
  </g>
</svg>
