<svg xmlns="http://www.w3.org/2000/svg" width="102.23" height="115.347" viewBox="0 0 102.23 115.347">
  <g id="Grupo_1156161" data-name="Grupo 1156161" transform="translate(-404.324 -2577.31)">
    <g id="Grupo_1150935" data-name="Grupo 1150935" transform="translate(414.092 2577.31)">
      <path id="Trazado_987198" data-name="Trazado 987198" d="M80.71,155.347h-62.6C6.794,155.347,0,151.815,0,136.764V42c0-1.1.672-2,1.5-2H64.183C75.5,40,82.212,46.545,82.212,61.6V153.35c0,1.1-.672,2-1.5,2" transform="translate(0 -40)" fill="#3571c7"/>
    </g>
    <g id="time-management_4098324" transform="translate(404.324 2583.426)">
      <g id="Grupo_1156159" data-name="Grupo 1156159" transform="translate(1.649 1.649)">
        <g id="Grupo_1156150" data-name="Grupo 1156150" transform="translate(41.222 92.337)">
          <path id="Trazado_1000861" data-name="Trazado 1000861" d="M72.169,60.3v3.3H26V60.3A3.307,3.307,0,0,1,29.3,57H68.871A3.307,3.307,0,0,1,72.169,60.3Z" transform="translate(-26 -57)" fill="#7a4bb0"/>
        </g>
        <g id="Grupo_1156151" data-name="Grupo 1156151" transform="translate(8.244 85.742)">
          <path id="Trazado_1000862" data-name="Trazado 1000862" d="M22.489,61.244v1.649a3.307,3.307,0,0,1-3.3,3.3H9.3a3.307,3.307,0,0,1-3.3-3.3V61.244a8.244,8.244,0,1,1,16.489,0Z" transform="translate(-6 -53)" fill="#ffc4a3"/>
        </g>
        <g id="Grupo_1156152" data-name="Grupo 1156152" transform="translate(47.817 82.444)">
          <path id="Trazado_1000863" data-name="Trazado 1000863" d="M30,51H62.978v9.893H30Z" transform="translate(-30 -51)" fill="#cbbfda"/>
        </g>
        <g id="Grupo_1156153" data-name="Grupo 1156153" transform="translate(29.68 69.253)">
          <path id="Trazado_1000864" data-name="Trazado 1000864" d="M88.253,43v6.6a6.594,6.594,0,0,1-6.6,6.6H25.6A6.594,6.594,0,0,1,19,49.6V43Z" transform="translate(-19 -43)" fill="#512189"/>
        </g>
        <g id="Grupo_1156154" data-name="Grupo 1156154" transform="translate(29.68 32.978)">
          <path id="Trazado_1000865" data-name="Trazado 1000865" d="M19,57.275V36.994A24.77,24.77,0,0,0,37.369,21H81.657a6.594,6.594,0,0,1,6.6,6.6v29.68Z" transform="translate(-19 -21)" fill="#c5d7f4"/>
        </g>
        <g id="Grupo_1156155" data-name="Grupo 1156155">
          <path id="Trazado_1000866" data-name="Trazado 1000866" d="M50.466,25.733a24.467,24.467,0,0,1-1.418,8.244A24.77,24.77,0,0,1,30.68,49.972a24.435,24.435,0,0,1-4.947.495A24.733,24.733,0,1,1,50.466,25.733Z" transform="translate(-1 -1)" fill="#b4e6d2"/>
        </g>
        <g id="Grupo_1156156" data-name="Grupo 1156156" transform="translate(6.596 6.596)">
          <path id="Trazado_1000867" data-name="Trazado 1000867" d="M41.275,23.138a18.127,18.127,0,1,1-5.309-12.828A18.081,18.081,0,0,1,41.275,23.138Z" transform="translate(-5 -5)" fill="#c5d7f4"/>
        </g>
        <g id="Grupo_1156157" data-name="Grupo 1156157" transform="translate(69.253 46.169)">
          <path id="Trazado_1000868" data-name="Trazado 1000868" d="M66.084,29V45.489H43v-6.6h9.893V29Z" transform="translate(-43 -29)" fill="#4db593"/>
        </g>
        <g id="Grupo_1156158" data-name="Grupo 1156158" transform="translate(56.062 39.573)">
          <path id="Trazado_1000869" data-name="Trazado 1000869" d="M58.084,31.6v9.893H35V25H58.084Z" transform="translate(-35 -25)" fill="#fb5415"/>
        </g>
      </g>
      <g id="Grupo_1156160" data-name="Grupo 1156160">
        <path id="Trazado_1000870" data-name="Trazado 1000870" d="M93.986,32.978H51.9A26.364,26.364,0,1,0,26.382,52.764a26.222,26.222,0,0,0,3.3-.229V77.5a8.254,8.254,0,0,0,8.244,8.244h9.893v6.6H46.169a4.953,4.953,0,0,0-4.947,4.947v4.947H90.688V97.284a4.953,4.953,0,0,0-4.947-4.947H84.093v-6.6h9.893A8.254,8.254,0,0,0,102.23,77.5V41.222A8.254,8.254,0,0,0,93.986,32.978ZM3.3,26.382A23.084,23.084,0,1,1,26.382,49.466,23.11,23.11,0,0,1,3.3,26.382Zm47.524,9.893H93.986a4.953,4.953,0,0,1,4.947,4.947V69.253H32.978V51.9a26.458,26.458,0,0,0,17.844-15.62ZM87.391,97.284v1.649H44.52V97.284a1.652,1.652,0,0,1,1.649-1.649H85.742A1.652,1.652,0,0,1,87.391,97.284Zm-6.6-4.947H51.115v-6.6H80.8Zm13.191-9.893H37.924A4.953,4.953,0,0,1,32.978,77.5V72.551H98.933V77.5A4.953,4.953,0,0,1,93.986,82.444Z"/>
        <circle id="Elipse_13521" data-name="Elipse 13521" cx="2.058" cy="2.058" r="2.058" transform="translate(91.942 75.48)" fill="#f3f9ff"/>
        <ellipse id="Elipse_13522" data-name="Elipse 13522" cx="1.543" cy="2.058" rx="1.543" ry="2.058" transform="translate(85.768 75.48)" fill="#f3f9ff"/>
        <ellipse id="Elipse_13523" data-name="Elipse 13523" cx="1.543" cy="2.058" rx="1.543" ry="2.058" transform="translate(79.595 75.48)" fill="#f3f9ff"/>
        <path id="Trazado_1000871" data-name="Trazado 1000871" d="M14.893,52A9.9,9.9,0,0,0,5,61.893v1.649a4.953,4.953,0,0,0,4.947,4.947H19.84a4.953,4.953,0,0,0,4.947-4.947V61.893A9.9,9.9,0,0,0,14.893,52Zm6.6,11.542a1.652,1.652,0,0,1-1.649,1.649H9.947A1.652,1.652,0,0,1,8.3,63.542V61.893a6.6,6.6,0,0,1,13.191,0Z" transform="translate(3.244 33.742)"/>
        <path id="Trazado_1000872" data-name="Trazado 1000872" d="M23.787,4A19.787,19.787,0,1,0,43.573,23.787,19.809,19.809,0,0,0,23.787,4Zm16.4,21.435a16.41,16.41,0,0,1-3.646,8.779l-2.267-2.267-2.332,2.332,2.267,2.267a16.41,16.41,0,0,1-8.779,3.646V36.978h-3.3v3.214a16.41,16.41,0,0,1-8.779-3.646l2.267-2.267-2.333-2.33-2.267,2.267a16.419,16.419,0,0,1-3.644-8.78H10.6v-3.3H7.382a16.41,16.41,0,0,1,3.646-8.779l2.267,2.267,2.332-2.332-2.267-2.267a16.4,16.4,0,0,1,8.779-3.646V10.6h3.3V7.382a16.41,16.41,0,0,1,8.779,3.646l-2.266,2.266,2.332,2.332,2.267-2.267a16.41,16.41,0,0,1,3.646,8.779H36.978v3.3h3.214Z" transform="translate(2.596 2.596)"/>
        <path id="Trazado_1000873" data-name="Trazado 1000873" d="M47.191,50.382H73.573V30.6H60.382V24H34V43.787H47.191ZM70.275,33.893V47.084H50.489v-3.3h9.893V33.893ZM37.3,27.3H57.084V40.489H37.3Z" transform="translate(22.062 15.573)"/>
        <path id="Trazado_1000874" data-name="Trazado 1000874" d="M22,34H38.489v3.3H22Z" transform="translate(14.275 22.062)"/>
        <path id="Trazado_1000875" data-name="Trazado 1000875" d="M22,38H38.489v3.3H22Z" transform="translate(14.275 24.657)"/>
        <path id="Trazado_1000876" data-name="Trazado 1000876" d="M52.113,10.625,49.782,8.293,37.757,20.318l-2.132-2.132-2.332,2.332,4.464,4.464Z" transform="translate(21.603 5.381)"/>
        <path id="Trazado_1000877" data-name="Trazado 1000877" d="M43.625,18.186l-2.332,2.332,4.464,4.464L60.113,10.625,57.782,8.293,45.757,20.318Z" transform="translate(26.794 5.381)"/>
        <path id="Trazado_1000878" data-name="Trazado 1000878" d="M51.625,18.186l-2.332,2.332,4.464,4.464L68.113,10.625,65.782,8.293,53.757,20.318Z" transform="translate(31.985 5.381)"/>
        <path id="Trazado_1000879" data-name="Trazado 1000879" d="M18.3,10H15V20.576l3.781,3.781,2.332-2.332L18.3,19.211Z" transform="translate(9.733 6.489)"/>
      </g>
    </g>
  </g>
</svg>
