<svg xmlns="http://www.w3.org/2000/svg" xmlns:xlink="http://www.w3.org/1999/xlink" width="127" height="127" viewBox="0 0 127 127">
  <defs>
    <linearGradient id="linear-gradient" x1="0.5" x2="0.5" y2="1" gradientUnits="objectBoundingBox">
      <stop offset="0" stop-color="#42bdd8"/>
      <stop offset="1" stop-color="#9c32fe"/>
    </linearGradient>
  </defs>
  <g id="Grupo_1150929" data-name="Grupo 1150929" transform="translate(-935.5 -271.833)">
    <circle id="Elipse_13442" data-name="Elipse 13442" cx="63.5" cy="63.5" r="63.5" transform="translate(935.5 271.833)" fill="#391760"/>
    <path id="integracion-de-sistema" d="M81.983,19.955H6.15A5.156,5.156,0,0,0,1,25.105V77.482a5.156,5.156,0,0,0,5.15,5.15H32.882l-4.366,8.88H22.744a4.086,4.086,0,0,0,0,8.172H65.389a4.086,4.086,0,0,0,0-8.172H59.617l-4.366-8.88H81.983a5.156,5.156,0,0,0,5.15-5.15V25.105a5.156,5.156,0,0,0-5.15-5.15ZM66.941,95.6a1.555,1.555,0,0,1-1.553,1.553H22.744a1.553,1.553,0,0,1,0-3.106H65.389A1.555,1.555,0,0,1,66.941,95.6ZM56.794,91.513H31.339l4.366-8.88H52.428ZM84.6,77.482A2.62,2.62,0,0,1,81.983,80.1H6.15a2.62,2.62,0,0,1-2.617-2.617V25.105A2.62,2.62,0,0,1,6.15,22.488H81.983A2.62,2.62,0,0,1,84.6,25.105ZM80.748,25.073H7.385A1.267,1.267,0,0,0,6.118,26.34V76.248a1.267,1.267,0,0,0,1.267,1.267H80.748a1.267,1.267,0,0,0,1.267-1.267V26.34A1.267,1.267,0,0,0,80.748,25.073ZM79.481,74.981H8.652V27.607h70.83Zm-63.726-19.1a4.594,4.594,0,0,0,4.408-3.32h4.4v.889a2.386,2.386,0,0,0,2.383,2.383h2.034a1.711,1.711,0,0,1,1.21,2.921L28.75,60.192a2.386,2.386,0,0,0,0,3.37l.507.507-.876.945H23.54a4.587,4.587,0,1,0,0,2.533h5.393a1.267,1.267,0,0,0,.929-.405l1.187-1.28.749.749a2.386,2.386,0,0,0,3.37,0l1.438-1.438a1.711,1.711,0,0,1,2.921,1.21v2.034A2.386,2.386,0,0,0,41.911,70.8h4.311A2.386,2.386,0,0,0,48.6,68.416V66.382a1.711,1.711,0,0,1,2.921-1.21l1.438,1.438a2.386,2.386,0,0,0,3.37,0l.749-.749,1.187,1.28a1.267,1.267,0,0,0,.929.405h5.393a4.587,4.587,0,1,0,0-2.533h-4.84l-.876-.945.507-.507a2.387,2.387,0,0,0,0-3.371l-1.438-1.438a1.711,1.711,0,0,1,1.21-2.921h2.034a2.386,2.386,0,0,0,2.383-2.383V52.56h4.4a4.587,4.587,0,1,0,0-2.533h-4.4v-.889a2.386,2.386,0,0,0-2.383-2.383H59.155a1.711,1.711,0,0,1-1.21-2.921L59.383,42.4a2.387,2.387,0,0,0,0-3.371l-.507-.507.876-.945h4.84a4.587,4.587,0,1,0,0-2.533H59.2a1.268,1.268,0,0,0-.929.405l-1.187,1.28-.749-.749a2.387,2.387,0,0,0-3.371,0l-1.438,1.438a1.711,1.711,0,0,1-2.921-1.21V34.171a2.386,2.386,0,0,0-2.383-2.383H41.911a2.386,2.386,0,0,0-2.383,2.383V36.2a1.711,1.711,0,0,1-2.921,1.21l-1.438-1.438a2.386,2.386,0,0,0-3.37,0l-.749.749-1.187-1.28a1.267,1.267,0,0,0-.929-.405H23.54a4.587,4.587,0,1,0,0,2.533h4.84l.876.945-.507.507a2.387,2.387,0,0,0,0,3.371l1.438,1.438a1.711,1.711,0,0,1-1.21,2.921H26.944a2.386,2.386,0,0,0-2.383,2.383v.889h-4.4a4.587,4.587,0,1,0-4.408,5.854Zm3.378,12.453a2.054,2.054,0,1,1,2.054-2.054A2.056,2.056,0,0,1,19.132,68.334ZM69,64.227a2.054,2.054,0,1,1-2.054,2.054A2.056,2.056,0,0,1,69,64.227ZM72.378,49.24a2.054,2.054,0,1,1-2.054,2.054A2.056,2.056,0,0,1,72.378,49.24ZM69,34.254a2.054,2.054,0,1,1-2.054,2.054A2.056,2.056,0,0,1,69,34.254ZM19.132,38.361a2.054,2.054,0,1,1,2.054-2.054A2.056,2.056,0,0,1,19.132,38.361Zm9.845,10.927a4.244,4.244,0,0,0,3-7.246l-1.332-1.332,2.836-2.836,1.332,1.332a4.244,4.244,0,0,0,7.246-3V34.321h4.011v1.884a4.244,4.244,0,0,0,7.246,3l1.332-1.332,2.836,2.836-1.332,1.332a4.244,4.244,0,0,0,3,7.246h1.884V53.3H59.155a4.245,4.245,0,0,0-3,7.246l1.332,1.332L54.65,64.713l-1.332-1.332a4.245,4.245,0,0,0-7.246,3v1.884H42.061V66.383a4.244,4.244,0,0,0-7.246-3l-1.332,1.332-2.836-2.836,1.332-1.332a4.244,4.244,0,0,0-3-7.246H27.094V49.288h1.884ZM15.755,49.24A2.054,2.054,0,1,1,13.7,51.294,2.056,2.056,0,0,1,15.755,49.24ZM44.066,60.45a9.156,9.156,0,1,0-9.156-9.156A9.166,9.166,0,0,0,44.066,60.45Zm0-15.779a6.623,6.623,0,1,1-6.623,6.622A6.63,6.63,0,0,1,44.066,44.671Z" transform="translate(954.692 281.807)" fill="url(#linear-gradient)"/>
  </g>
</svg>
