<svg xmlns="http://www.w3.org/2000/svg" xmlns:xlink="http://www.w3.org/1999/xlink" width="127" height="127" viewBox="0 0 127 127">
  <defs>
    <linearGradient id="linear-gradient" x1="0.5" y1="1" x2="0.5" gradientUnits="objectBoundingBox">
      <stop offset="0" stop-color="#7c4ef5"/>
      <stop offset="1" stop-color="#0db0d4"/>
    </linearGradient>
  </defs>
  <g id="Grupo_1150931" data-name="Grupo 1150931" transform="translate(-935.5 -271.833)">
    <circle id="Elipse_13442" data-name="Elipse 13442" cx="63.5" cy="63.5" r="63.5" transform="translate(935.5 271.833)" fill="#391760"/>
    <path id="sistema-operativo" d="M54.81,18.158a4.517,4.517,0,1,1-.054,3.457A4.517,4.517,0,0,1,54.81,18.158Zm1.46,8.005a6.767,6.767,0,1,0-3.606-3.719,6.767,6.767,0,0,0,3.606,3.719ZM49.032,18.5a1.127,1.127,0,0,1-.8.917l-2.567.744.305,2.635,2.672.137a1.125,1.125,0,0,1,.989.71,10.031,10.031,0,0,0,3.1,4.179,1.124,1.124,0,0,1,.394,1.152l-.639,2.595,2.434,1.053,1.453-2.242a1.127,1.127,0,0,1,1.111-.5,10.027,10.027,0,0,0,5.169-.6,1.125,1.125,0,0,1,1.194.234l1.929,1.853,2.129-1.582L66.693,27.4a1.126,1.126,0,0,1,.12-1.211,10.087,10.087,0,0,0,2.067-4.779,1.127,1.127,0,0,1,.8-.917l2.568-.744-.307-2.635-2.673-.137a1.126,1.126,0,0,1-.988-.71,10.026,10.026,0,0,0-3.1-4.178,1.126,1.126,0,0,1-.4-1.152l.638-2.595L62.989,7.285,61.537,9.528a1.124,1.124,0,0,1-1.11.5,10.041,10.041,0,0,0-5.169.6,1.123,1.123,0,0,1-1.193-.234L52.133,8.544,50,10.125l1.217,2.38a1.125,1.125,0,0,1-.121,1.211,10.092,10.092,0,0,0-2.067,4.78Zm-2.1-1.05-2.81.814a1.124,1.124,0,0,0-.8,1.209l.525,4.525a1.125,1.125,0,0,0,1.059.994l2.925.151a12.266,12.266,0,0,0,2.946,3.97l-.7,2.841a1.122,1.122,0,0,0,.645,1.3L54.9,35.06a1.124,1.124,0,0,0,1.391-.421l1.591-2.454a12.3,12.3,0,0,0,4.912-.572l2.111,2.027a1.124,1.124,0,0,0,1.449.092l3.658-2.717a1.124,1.124,0,0,0,.33-1.414L69.015,27a12.371,12.371,0,0,0,1.963-4.539l2.81-.815a1.125,1.125,0,0,0,.8-1.209l-.525-4.525a1.127,1.127,0,0,0-1.06-.994l-2.924-.15a12.294,12.294,0,0,0-2.947-3.971l.7-2.839a1.126,1.126,0,0,0-.645-1.3L63.009,4.842a1.127,1.127,0,0,0-1.391.422L60.027,7.718a12.287,12.287,0,0,0-4.91.571L53,6.261a1.125,1.125,0,0,0-1.449-.091L47.9,8.887a1.125,1.125,0,0,0-.332,1.415L48.9,12.907A12.305,12.305,0,0,0,46.936,17.446ZM50.843,55.7a5.9,5.9,0,1,1,.07-4.513,5.9,5.9,0,0,1-.07,4.513Zm-2.178-9.818a8.144,8.144,0,1,0,4.342,4.477,8.144,8.144,0,0,0-4.342-4.477Zm9.388,9.327a1.122,1.122,0,0,1,.8-.916l3.419-.99-.434-3.741-3.557-.183a1.125,1.125,0,0,1-.988-.708,12.749,12.749,0,0,0-3.944-5.316,1.125,1.125,0,0,1-.4-1.152l.85-3.455-3.456-1.495-1.935,2.986a1.123,1.123,0,0,1-1.11.5,12.76,12.76,0,0,0-6.574.765,1.125,1.125,0,0,1-1.194-.234L36.964,38.8,33.94,41.05l1.619,3.168a1.124,1.124,0,0,1-.119,1.211,12.822,12.822,0,0,0-2.63,6.079,1.124,1.124,0,0,1-.8.916l-3.417.99.435,3.741,3.557.183a1.126,1.126,0,0,1,.988.71,12.751,12.751,0,0,0,3.944,5.314,1.125,1.125,0,0,1,.4,1.152l-.851,3.455,3.457,1.5,1.934-2.986a1.128,1.128,0,0,1,1.111-.5,12.747,12.747,0,0,0,6.574-.765,1.128,1.128,0,0,1,1.2.234L53.9,67.913l3.023-2.245L55.3,62.5a1.122,1.122,0,0,1,.12-1.211,12.822,12.822,0,0,0,2.63-6.079Zm2.1,1.049A15.1,15.1,0,0,1,57.627,62.1l1.731,3.39a1.123,1.123,0,0,1-.33,1.415l-4.551,3.381a1.126,1.126,0,0,1-1.45-.092L50.28,67.558a15.015,15.015,0,0,1-6.323.736l-2.068,3.193a1.128,1.128,0,0,1-.945.513,1.109,1.109,0,0,1-.445-.093l-5.2-2.25a1.124,1.124,0,0,1-.645-1.3l.909-3.695a15.022,15.022,0,0,1-3.794-5.111l-3.8-.2a1.125,1.125,0,0,1-1.06-.994l-.653-5.631a1.125,1.125,0,0,1,.8-1.209l3.656-1.059a15.094,15.094,0,0,1,2.527-5.843L31.5,41.227a1.123,1.123,0,0,1,.33-1.415l4.551-3.38a1.125,1.125,0,0,1,1.449.091l2.748,2.64a15,15,0,0,1,6.322-.736l2.069-3.194a1.125,1.125,0,0,1,1.39-.421l5.2,2.25a1.123,1.123,0,0,1,.645,1.3l-.91,3.695A15.025,15.025,0,0,1,59.1,47.168l3.8.2a1.125,1.125,0,0,1,1.06.994l.653,5.631a1.125,1.125,0,0,1-.8,1.209l-3.656,1.06ZM24.426,14.884a7.061,7.061,0,1,1-7.062,7.062,7.061,7.061,0,0,1,7.062-7.062Zm0,16.373a9.312,9.312,0,1,0-9.313-9.312,9.312,9.312,0,0,0,9.313,9.312ZM9.512,27.013a1.124,1.124,0,0,0,.37-1.159,15.154,15.154,0,0,1,0-7.819,1.124,1.124,0,0,0-.37-1.159l-3.32-2.742L8.545,10.06l4.04,1.506a1.123,1.123,0,0,0,1.188-.259A15.055,15.055,0,0,1,20.537,7.4a1.124,1.124,0,0,0,.82-.9l.714-4.247h4.707L27.493,6.5a1.125,1.125,0,0,0,.819.9,15.05,15.05,0,0,1,6.764,3.911,1.128,1.128,0,0,0,1.19.259L40.3,10.06l2.353,4.076-3.32,2.742a1.126,1.126,0,0,0-.37,1.158,15.138,15.138,0,0,1,0,7.819,1.125,1.125,0,0,0,.37,1.158l3.32,2.742L40.3,33.832l-4.037-1.506a1.128,1.128,0,0,0-1.19.259,15.055,15.055,0,0,1-6.765,3.91,1.125,1.125,0,0,0-.819.9l-.714,4.245H22.072l-.714-4.247a1.125,1.125,0,0,0-.82-.9,15.064,15.064,0,0,1-6.764-3.909,1.124,1.124,0,0,0-1.188-.259l-4.04,1.506L6.192,29.755l3.32-2.742ZM3.768,30.056a1.125,1.125,0,0,1,.257-1.43l3.51-2.9a17.381,17.381,0,0,1,0-7.565l-3.51-2.9a1.125,1.125,0,0,1-.257-1.43l3.3-5.723a1.123,1.123,0,0,1,1.367-.492l4.269,1.592a17.311,17.311,0,0,1,6.548-3.784L20.011.938A1.125,1.125,0,0,1,21.121,0H27.73a1.125,1.125,0,0,1,1.109.938l.755,4.488a17.3,17.3,0,0,1,6.547,3.785L40.41,7.62a1.123,1.123,0,0,1,1.367.492l3.3,5.723a1.125,1.125,0,0,1-.257,1.43l-3.51,2.9a17.381,17.381,0,0,1,0,7.565l3.51,2.9a1.124,1.124,0,0,1,.257,1.43l-3.3,5.723a1.125,1.125,0,0,1-1.367.492l-4.267-1.591a17.322,17.322,0,0,1-6.55,3.785l-.754,4.487a1.125,1.125,0,0,1-1.109.939H21.121a1.125,1.125,0,0,1-1.11-.939l-.755-4.488a17.317,17.317,0,0,1-6.548-3.784l-4.269,1.59a1.124,1.124,0,0,1-1.367-.492Z" transform="translate(959.892 299.333)" fill-rule="evenodd" fill="url(#linear-gradient)"/>
  </g>
</svg>
