<svg xmlns="http://www.w3.org/2000/svg" xmlns:xlink="http://www.w3.org/1999/xlink" width="127" height="127" viewBox="0 0 127 127">
  <defs>
    <linearGradient id="linear-gradient" x1="0.5" y1="1" x2="0.5" gradientUnits="objectBoundingBox">
      <stop offset="0" stop-color="#9f2fff"/>
      <stop offset="1" stop-color="#0bb1d3"/>
    </linearGradient>
  </defs>
  <g id="Grupo_1150930" data-name="Grupo 1150930" transform="translate(-935.5 -271.833)">
    <circle id="Elipse_13442" data-name="Elipse 13442" cx="63.5" cy="63.5" r="63.5" transform="translate(935.5 271.833)" fill="#391760"/>
    <path id="operando" d="M49.537,37.731H12.806a2.626,2.626,0,0,0-2.624,2.624V63.967a2.626,2.626,0,0,0,2.624,2.624H49.537a2.626,2.626,0,0,0,2.624-2.624V40.355A2.626,2.626,0,0,0,49.537,37.731ZM12.806,63.967V40.355H49.537V63.967ZM39.5,48.289a9.189,9.189,0,0,0-16.66,0,6.556,6.556,0,1,0-.853,13.055H40.355A6.556,6.556,0,1,0,39.5,48.289Zm.853,10.432H21.989a3.935,3.935,0,1,1,0-7.871,3.886,3.886,0,0,1,1.245.226l1.274.43.4-1.284a6.561,6.561,0,0,1,12.533,0l.4,1.286,1.274-.429a3.855,3.855,0,0,1,1.245-.227,3.935,3.935,0,0,1,0,7.871ZM63.967,11.495H50.849V1H32.484V11.495H19.366V1H1V24.613H19.366V14.118H32.484V24.613H45.051a4.022,4.022,0,0,0,.4,2.258,1.349,1.349,0,0,1,.05,1.147c-.073.169-.144.341-.211.512a1.343,1.343,0,0,1-.85.782,4.026,4.026,0,0,0-2.719,3.173H11.495a6.567,6.567,0,0,0-6.559,6.559V69.215A3.94,3.94,0,0,0,1,73.15a9.193,9.193,0,0,0,9.183,9.183H52.161a9.193,9.193,0,0,0,9.183-9.183,3.94,3.94,0,0,0-3.935-3.935V50.781a3.948,3.948,0,0,0,.659.068h1.307a4.026,4.026,0,0,0,3.832-2.776,1.344,1.344,0,0,1,.779-.847c.173-.067.345-.136.516-.211a1.346,1.346,0,0,1,1.145.05,4.024,4.024,0,0,0,4.671-.748l.925-.924a4.024,4.024,0,0,0,.748-4.671,1.349,1.349,0,0,1-.05-1.147c.073-.169.144-.341.211-.512a1.343,1.343,0,0,1,.85-.782,4.03,4.03,0,0,0,2.773-3.833V33.142A4.026,4.026,0,0,0,73,29.31a1.344,1.344,0,0,1-.847-.779c-.067-.173-.136-.345-.211-.516a1.351,1.351,0,0,1,.05-1.145,4.02,4.02,0,0,0,.4-2.258h9.942V1H63.967ZM16.742,21.989H3.624V3.624H16.742Zm47.226-7.871v6.234a1.345,1.345,0,0,1-.762-.837,4.027,4.027,0,0,0-3.832-2.773H58.067a4.026,4.026,0,0,0-3.832,2.776,1.342,1.342,0,0,1-.782.847c-.172.067-.342.136-.513.211a1.346,1.346,0,0,1-1.145-.05,4.043,4.043,0,0,0-.946-.327V14.118ZM35.107,3.624H48.226V20.5a4,4,0,0,0-1.1.778l-.715.715h-11.3ZM58.72,73.15a6.567,6.567,0,0,1-6.559,6.559H10.183A6.567,6.567,0,0,1,3.624,73.15a1.314,1.314,0,0,1,1.312-1.312H21.989V73.15a3.94,3.94,0,0,0,3.935,3.935H36.419a3.94,3.94,0,0,0,3.935-3.935V71.838H57.408A1.314,1.314,0,0,1,58.72,73.15ZM24.613,71.838H37.731V73.15a1.314,1.314,0,0,1-1.312,1.312H25.925a1.314,1.314,0,0,1-1.312-1.312ZM7.559,69.215V39.043a3.94,3.94,0,0,1,3.935-3.935H50.849a3.94,3.94,0,0,1,3.935,3.935V69.215Zm49.62-31.8A3.935,3.935,0,1,0,54.785,33.8c0,.013,0,.024,0,.037a6.514,6.514,0,0,0-2.512-1.182,6.6,6.6,0,1,1,5.132,7.559V39.043a6.467,6.467,0,0,0-.23-1.627Zm.23-3.621a1.312,1.312,0,1,1,1.312,1.312A1.314,1.314,0,0,1,57.408,33.8ZM72.181,31.8a1.407,1.407,0,0,1,.969,1.339v1.307a1.408,1.408,0,0,1-.971,1.339,3.957,3.957,0,0,0-2.474,2.325c-.055.14-.113.281-.172.417a3.961,3.961,0,0,0,.114,3.374,1.406,1.406,0,0,1-.261,1.632l-.925.925a1.4,1.4,0,0,1-1.632.261,3.963,3.963,0,0,0-3.373-.114q-.207.089-.421.173a3.961,3.961,0,0,0-2.323,2.475,1.407,1.407,0,0,1-1.339.969H58.067a1.388,1.388,0,0,1-.659-.186V42.868a9.3,9.3,0,0,0,1.312.11,9.183,9.183,0,1,0-9.078-10.495h-5.17a1.4,1.4,0,0,1,.788-.681,3.956,3.956,0,0,0,2.475-2.325c.055-.14.113-.281.172-.417a3.961,3.961,0,0,0-.114-3.374,1.408,1.408,0,0,1,.261-1.633l.924-.924a1.4,1.4,0,0,1,1.633-.261,3.958,3.958,0,0,0,3.373.114c.139-.06.279-.118.42-.172a3.969,3.969,0,0,0,2.325-2.475,1.4,1.4,0,0,1,1.338-.971h1.307a1.408,1.408,0,0,1,1.339.971,3.962,3.962,0,0,0,2.323,2.474c.14.055.281.113.418.172a3.966,3.966,0,0,0,3.374-.114,1.406,1.406,0,0,1,1.633.261l.924.924a1.408,1.408,0,0,1,.261,1.633,3.958,3.958,0,0,0-.114,3.373q.089.207.173.421A3.957,3.957,0,0,0,72.181,31.8ZM79.709,3.624V21.989H71.032l-.714-.714A4.013,4.013,0,0,0,66.592,20.2V3.624ZM14.118,8.871H6.247V6.247h7.871Zm0,5.247H6.247V11.495h7.871Zm0,5.247H6.247V16.742h7.871ZM45.6,6.247V8.871H37.731V6.247Zm-7.871,5.247H45.6v2.624H37.731Zm0,5.247H45.6v2.624H37.731ZM77.086,8.871H69.215V6.247h7.871Zm0,5.247H69.215V11.495h7.871Zm0,5.247H69.215V16.742h7.871Z" transform="translate(958.333 294.667)" fill="url(#linear-gradient)"/>
  </g>
</svg>
