<svg xmlns="http://www.w3.org/2000/svg" width="102.23" height="115.347" viewBox="0 0 102.23 115.347">
  <g id="Grupo_1156173" data-name="Grupo 1156173" transform="translate(-1107.379 -2577.31)">
    <g id="Grupo_1150935" data-name="Grupo 1150935" transform="translate(1117.146 2577.31)">
      <path id="Trazado_987198" data-name="Trazado 987198" d="M80.71,155.347h-62.6C6.794,155.347,0,151.815,0,136.764V42c0-1.1.672-2,1.5-2H64.183C75.5,40,82.212,46.545,82.212,61.6V153.35c0,1.1-.672,2-1.5,2" transform="translate(0 -40)" fill="#3571c7"/>
    </g>
    <g id="_x34_8_x2C__Communication_x2C__meeting_x2C__online_x2C__sharing" transform="translate(1086.379 2562.414)">
      <g id="XMLID_982_" transform="translate(21 20.625)">
        <g id="XMLID_983_" transform="translate(0 0)">
          <path id="XMLID_1871_" d="M134.084,119.431a5.58,5.58,0,0,1,3.271,5.081v59.524a5.583,5.583,0,0,1-5.584,5.584H51.584A5.583,5.583,0,0,1,46,184.036V124.512a5.58,5.58,0,0,1,3.271-5.081c.11,3.128.3-2.632,2.311-.213,0,2.15.943-2.405.943-.29h78.509l1.318.145Z" transform="translate(-40.562 -96.79)" fill="#7a4bb0"/>
          <path id="XMLID_1870_" d="M76,151v51.115h78.509V151Z" transform="translate(-64.037 -122.337)" fill="#fff"/>
          <path id="XMLID_1869_" d="M450.35,26A4.35,4.35,0,1,1,446,30.35,4.349,4.349,0,0,1,450.35,26Z" transform="translate(-353.558 -24.526)" fill="#ff5987"/>
          <path id="XMLID_1868_" d="M29.263,56A3.263,3.263,0,1,1,26,59.263,3.264,3.264,0,0,1,29.263,56Z" transform="translate(-24.912 -48)" fill="#ff5987"/>
          <path id="XMLID_1867_" d="M204.594,327.313H191l1.644-8.218a10.07,10.07,0,0,1,9.875-8.1h8.5a10.074,10.074,0,0,1,9.877,8.1l1.642,8.218Z" transform="translate(-154.023 -247.535)" fill="#3571c7"/>
          <path id="XMLID_1866_" d="M192.578,447.275A4.35,4.35,0,0,1,189.5,454.7H150.35a4.35,4.35,0,1,1,0-8.7H189.5A4.337,4.337,0,0,1,192.578,447.275Z" transform="translate(-118.811 -353.171)" fill="#512189"/>
          <path id="XMLID_1766_" d="M205.138,26a14.14,14.14,0,1,0,14.138,14.138A14.138,14.138,0,0,0,205.138,26Z" transform="translate(-154.023 -24.526)" fill="#32438c"/>
          <path id="XMLID_1864_" d="M335.138,56a14.138,14.138,0,1,0,14.138,14.138A14.139,14.139,0,0,0,335.138,56Z" transform="translate(-255.747 -48)" fill="#57606f"/>
          <path id="XMLID_1863_" d="M75.131,56A14.138,14.138,0,1,0,89.269,70.138,14.142,14.142,0,0,0,75.131,56Z" transform="translate(-52.292 -48)" fill="#57606f"/>
          <path id="XMLID_1862_" d="M344.458,131A14.121,14.121,0,0,1,356,136.982l0,0c-.15.211-.3.418-.467.62a14.137,14.137,0,0,1-22.628-.62l0,0A14.121,14.121,0,0,1,344.458,131Z" transform="translate(-265.066 -106.687)" fill="#32deff"/>
          <path id="XMLID_1861_" d="M226,106.982l0,0a14.136,14.136,0,0,1-23.1,0l0,0a14.133,14.133,0,0,1,23.091,0Z" transform="translate(-163.343 -83.212)" fill="#fb5415"/>
          <path id="XMLID_1860_" d="M96,136.982l0,0a14.139,14.139,0,0,1-22.423.874q-.352-.424-.672-.874l0,0a14.133,14.133,0,0,1,23.091,0Z" transform="translate(-61.619 -106.687)" fill="#b4e6d2"/>
          <g id="Grupo_1156172" data-name="Grupo 1156172" transform="translate(17.401 6.912)">
            <path id="XMLID_1859_" d="M366.438,81A5.438,5.438,0,1,1,361,86.438,5.437,5.437,0,0,1,366.438,81Z" transform="translate(-304.447 -74.475)" fill="#ffc4a3"/>
            <path id="XMLID_1858_" d="M236.438,51A5.438,5.438,0,1,1,231,56.438,5.437,5.437,0,0,1,236.438,51Z" transform="translate(-202.723 -51)" fill="#ffc4a3"/>
            <path id="XMLID_1857_" d="M106.438,81A5.438,5.438,0,1,1,101,86.438,5.437,5.437,0,0,1,106.438,81Z" transform="translate(-101 -74.475)" fill="#ffc4a3"/>
            <path id="XMLID_1856_" d="M7.269,0A7.269,7.269,0,1,1,0,7.269,7.269,7.269,0,0,1,7.269,0Z" transform="translate(27.933 42.015)" fill="#ffc4a3"/>
          </g>
          <g id="XMLID_984_">
            <ellipse id="XMLID_1855_" cx="2.06" cy="1.545" rx="2.06" ry="1.545" transform="translate(96.437 16.48)"/>
            <ellipse id="XMLID_1854_" cx="1.545" cy="2.06" rx="1.545" ry="2.06" transform="translate(87.166 97.853)"/>
            <ellipse id="XMLID_1853_" cx="1.545" cy="2.06" rx="1.545" ry="2.06" transform="translate(68.626 1.03)"/>
            <path id="XMLID_1852_" d="M246.637,406.637a2.175,2.175,0,1,0,3.076,0,2.169,2.169,0,0,0-3.076,0Z" transform="translate(-197.06 -321.871)"/>
            <circle id="XMLID_1851_" cx="1.545" cy="1.545" r="1.545" transform="translate(32.575 4.12)"/>
            <circle id="XMLID_1850_" cx="1.545" cy="1.545" r="1.545" transform="translate(13.004 95.793)"/>
            <ellipse id="XMLID_1849_" cx="1.545" cy="2.06" rx="1.545" ry="2.06" transform="translate(8.884)"/>
            <path id="XMLID_991_" d="M131.263,42.6a15.22,15.22,0,0,0-28.326-7.6,15.221,15.221,0,0,0-30.345,0,15.22,15.22,0,0,0-28.326,7.6A6.681,6.681,0,0,0,41,48.335v59.524a6.679,6.679,0,0,0,6.671,6.671H63.842a5.437,5.437,0,0,0,4.347,8.7h39.152a5.437,5.437,0,0,0,4.35-8.7h16.168a6.679,6.679,0,0,0,6.671-6.671V48.335a6.682,6.682,0,0,0-3.267-5.731ZM116.042,29.7a13.067,13.067,0,0,1,13.043,13.5c0,.017-.005.033-.005.051s0,.015,0,.023a12.993,12.993,0,0,1-1.6,5.754,15.29,15.29,0,0,0-7.206-4.584,6.525,6.525,0,1,0-8.474,0,15.29,15.29,0,0,0-7.205,4.582c-.046-.084-.093-.169-.138-.254A13.05,13.05,0,0,1,116.042,29.7ZM87.75,93.907l-3.517-4.02A1.088,1.088,0,1,0,82.6,91.32l2.228,2.546H80.152a1.088,1.088,0,1,0,0,2.175h7.069a1.631,1.631,0,1,1,0,3.263H74.954l1.384-6.917a9,9,0,0,1,8.808-7.221h8.5a9.009,9.009,0,0,1,8.811,7.221l1.382,6.917H90.655a3.793,3.793,0,0,0-2.9-5.4Zm1.5-10.916a6.182,6.182,0,1,1,6.182-6.182A6.189,6.189,0,0,1,89.253,82.991Zm16.8,16.313-1.468-7.344A11.194,11.194,0,0,0,94.8,83.053a8.357,8.357,0,1,0-11.059.028A11.189,11.189,0,0,0,74.2,91.961L72.735,99.3H49.7V91.691H62.751a1.088,1.088,0,1,0,0-2.175H49.7V54.41a15.166,15.166,0,0,0,9.325,3.554L70.683,69.621a1.088,1.088,0,1,0,1.538-1.538l-10.3-10.3a15.246,15.246,0,0,0,10.757-7.416h9.444a15.071,15.071,0,0,0,4.56,1.045v8.743a1.088,1.088,0,0,0,2.175,0V51.409a15.066,15.066,0,0,0,4.56-1.045h9.444c.233.4.483.8.75,1.174a15.266,15.266,0,0,0,10.007,6.242l-10.3,10.3a1.087,1.087,0,0,0,1.538,1.538L116.5,57.964a15.112,15.112,0,0,0,9.529-3.726V89.516H112.779a1.088,1.088,0,1,0,0,2.175h13.255V99.3ZM55.138,39.488a4.35,4.35,0,1,1,4.35,4.35A4.355,4.355,0,0,1,55.138,39.488Zm19.525,4.491c.209.352.429.7.667,1.034a15.3,15.3,0,0,0,3.017,3.176H73.711A15.3,15.3,0,0,0,74.663,43.979Zm8.752-11.016a4.35,4.35,0,1,1,4.35,4.35A4.355,4.355,0,0,1,83.415,32.963Zm17.452,11.016a15.3,15.3,0,0,0,.952,4.21H97.183a15.3,15.3,0,0,0,3.017-3.176C100.439,44.676,100.658,44.33,100.867,43.979Zm10.824-4.491a4.35,4.35,0,1,1,4.35,4.35A4.355,4.355,0,0,1,111.691,39.488Zm4.35,16.313a13.081,13.081,0,0,1-10.186-4.891,13.042,13.042,0,0,1,20.369,0A12.976,12.976,0,0,1,116.042,55.8ZM92.79,48.273h0l0,0a13.057,13.057,0,0,1-15.2-3.891,13.042,13.042,0,0,1,20.37,0,13.047,13.047,0,0,1-5.16,3.889ZM59.488,55.8A13.008,13.008,0,0,1,49.3,50.908a13.042,13.042,0,0,1,20.37,0A13.082,13.082,0,0,1,59.488,55.8ZM87.765,23.175A13.05,13.05,0,0,1,99.207,42.5,15.286,15.286,0,0,0,92,37.92a6.525,6.525,0,1,0-8.474,0,15.29,15.29,0,0,0-7.2,4.582A13.05,13.05,0,0,1,87.765,23.175ZM59.488,29.7A13.048,13.048,0,0,1,70.93,49.028a15.288,15.288,0,0,0-7.2-4.582,6.525,6.525,0,1,0-8.474,0,15.288,15.288,0,0,0-7.206,4.584,13,13,0,0,1-1.6-5.754c0-.008,0-.016,0-.024s0-.036-.005-.054A13.067,13.067,0,0,1,59.488,29.7ZM110.6,117.793a3.266,3.266,0,0,1-3.263,3.263H68.189a3.263,3.263,0,1,1,0-6.525h39.152A3.263,3.263,0,0,1,110.6,117.793Zm21.751-9.934a4.5,4.5,0,0,1-4.5,4.5H47.671a4.5,4.5,0,0,1-4.5-4.5V48.335a4.5,4.5,0,0,1,1.285-3.143,15.115,15.115,0,0,0,3.065,6.974v48.226a1.088,1.088,0,0,0,1.088,1.088h78.509a1.087,1.087,0,0,0,1.088-1.088V51.9a15.149,15.149,0,0,0,2.861-6.712,4.5,4.5,0,0,1,1.285,3.143v59.524Z" transform="translate(-36.65 -20.613)"/>
            <path id="XMLID_988_" d="M446.438,21a5.438,5.438,0,1,0,5.438,5.438A5.444,5.444,0,0,0,446.438,21Zm0,8.7a3.263,3.263,0,1,1,3.263-3.263A3.266,3.266,0,0,1,446.438,29.7Z" transform="translate(-349.645 -20.613)"/>
            <path id="XMLID_985_" d="M29.7,55.35a4.35,4.35,0,1,0-4.35,4.35A4.355,4.355,0,0,0,29.7,55.35Zm-6.525,0a2.175,2.175,0,1,1,2.175,2.175A2.178,2.178,0,0,1,23.175,55.35Z" transform="translate(-21 -44.088)"/>
          </g>
        </g>
      </g>
    </g>
  </g>
</svg>
