<svg xmlns="http://www.w3.org/2000/svg" width="102.231" height="115.347" viewBox="0 0 102.231 115.347">
  <g id="Grupo_1156162" data-name="Grupo 1156162" transform="translate(-404.324 -2060.31)">
    <g id="Grupo_1150935" data-name="Grupo 1150935" transform="translate(414.092 2060.31)">
      <path id="Trazado_987198" data-name="Trazado 987198" d="M80.71,155.347h-62.6C6.794,155.347,0,151.815,0,136.764V42c0-1.1.672-2,1.5-2H64.183C75.5,40,82.212,46.545,82.212,61.6V153.35c0,1.1-.672,2-1.5,2" transform="translate(0 -40)" fill="#3571c7"/>
    </g>
    <g id="Laptop-Lightbulb-Education-Idea-Elearning" transform="translate(402.324 2064.426)">
      <path id="Trazado_1000813" data-name="Trazado 1000813" d="M87.377,12.408V66.931H9V12.408A3.418,3.418,0,0,1,12.408,9H83.969a3.418,3.418,0,0,1,3.408,3.408Z" transform="translate(4.927 4.927)" fill="#5aaae7"/>
      <path id="Trazado_1000814" data-name="Trazado 1000814" d="M83.154,12.408V66.931H15L72.931,9h6.815a3.418,3.418,0,0,1,3.408,3.408Z" transform="translate(9.15 4.927)" fill="#3d9ae2"/>
      <path id="Trazado_1000815" data-name="Trazado 1000815" d="M101.823,63.446H3L13.223,43H91.6Z" transform="translate(0.704 28.857)" fill="#cbbfda"/>
      <path id="Trazado_1000816" data-name="Trazado 1000816" d="M101.823,55v6.815a3.418,3.418,0,0,1-3.408,3.408H6.408A3.418,3.418,0,0,1,3,61.815V55Z" transform="translate(0.704 37.304)" fill="#c5d7f4"/>
      <ellipse id="Elipse_13515" data-name="Elipse 13515" cx="3.627" cy="3.109" rx="3.627" ry="3.109" transform="translate(95.261 4.072)" fill="#ffc4a3"/>
      <circle id="Elipse_13516" data-name="Elipse 13516" cx="3.627" cy="3.627" r="3.627" transform="translate(95.261 28.942)" fill="#ffc4a3"/>
      <circle id="Elipse_13517" data-name="Elipse 13517" cx="3.627" cy="3.627" r="3.627" transform="translate(95.261 54.848)" fill="#ffc4a3"/>
      <path id="Trazado_1000817" data-name="Trazado 1000817" d="M72.931,31.965A28.965,28.965,0,1,1,21.9,13.222c.239-.307.494-.579.75-.869a28.965,28.965,0,0,1,42.63,0c.256.29.511.562.75.869A28.73,28.73,0,0,1,72.931,31.965Z" transform="translate(9.15 0.704)" fill="#fb5415"/>
      <path id="Trazado_1000818" data-name="Trazado 1000818" d="M47.854,51l3.408,6.815H24L27.408,51Z" transform="translate(15.485 34.488)" fill="#c6c5ca"/>
      <path id="Trazado_1000819" data-name="Trazado 1000819" d="M48.857,23.928a11.884,11.884,0,0,1-3.68,8.6,10.114,10.114,0,0,0-3.135,7.344v1.09H31.819v-1.09a10.489,10.489,0,0,0-3.254-7.463A11.85,11.85,0,0,1,25,23.485,12.1,12.1,0,0,1,36.726,12,11.927,11.927,0,0,1,48.857,23.928Z" transform="translate(16.185 7.038)" fill="#ffd422"/>
      <g id="Grupo_1156149" data-name="Grupo 1156149" transform="translate(4.072 4.072)">
        <path id="Trazado_1000820" data-name="Trazado 1000820" d="M39.223,29v5.112a1.7,1.7,0,0,1-1.7,1.7H30.7a1.7,1.7,0,0,1-1.7-1.7V29Z" transform="translate(14.932 14.932)" fill="#ff9811"/>
        <circle id="Elipse_13518" data-name="Elipse 13518" cx="3.109" cy="3.109" r="3.109" transform="translate(0 0)" fill="#ffc4a3"/>
        <ellipse id="Elipse_13519" data-name="Elipse 13519" cx="3.109" cy="3.627" rx="3.109" ry="3.627" transform="translate(0 24.869)" fill="#ffc4a3"/>
        <ellipse id="Elipse_13520" data-name="Elipse 13520" cx="3.109" cy="3.627" rx="3.109" ry="3.627" transform="translate(0 50.775)" fill="#ffc4a3"/>
      </g>
      <path id="Trazado_1000821" data-name="Trazado 1000821" d="M94.007,46.117V38H90.6v6.815H15.631V38H12.223v8.117L2.179,66.2A1.7,1.7,0,0,0,2,66.965v6.815a5.112,5.112,0,0,0,5.112,5.112H99.119a5.112,5.112,0,0,0,5.112-5.112V66.965a1.7,1.7,0,0,0-.17-.762Zm-2.757,2.106L99.77,65.261H67.8l-2.927-5.873a1.7,1.7,0,0,0-1.533-.942H42.892a1.7,1.7,0,0,0-1.525.942l-2.936,5.873H6.461L14.98,48.223ZM63.989,65.261H42.241l1.7-3.408h18.34Zm35.13,10.223H7.112a1.7,1.7,0,0,1-1.7-1.7V68.669h95.415v5.112A1.7,1.7,0,0,1,99.119,75.485Z" transform="translate(0 25.338)"/>
      <path id="Trazado_1000822" data-name="Trazado 1000822" d="M10,50h3.408v3.408H10Z" transform="translate(5.631 33.784)"/>
      <path id="Trazado_1000823" data-name="Trazado 1000823" d="M14,50h3.408v3.408H14Z" transform="translate(8.446 33.784)"/>
      <path id="Trazado_1000824" data-name="Trazado 1000824" d="M48,50h3.408v3.408H48Z" transform="translate(32.377 33.784)"/>
      <path id="Trazado_1000825" data-name="Trazado 1000825" d="M52,50h3.408v3.408H52Z" transform="translate(35.192 33.784)"/>
      <path id="Trazado_1000826" data-name="Trazado 1000826" d="M15,46h3.408v3.408H15Z" transform="translate(9.15 30.969)"/>
      <path id="Trazado_1000827" data-name="Trazado 1000827" d="M11,46h3.408v3.408H11Z" transform="translate(6.335 30.969)"/>
      <path id="Trazado_1000828" data-name="Trazado 1000828" d="M19,46h3.408v3.408H19Z" transform="translate(11.965 30.969)"/>
      <path id="Trazado_1000829" data-name="Trazado 1000829" d="M23,46h3.408v3.408H23Z" transform="translate(14.781 30.969)"/>
      <path id="Trazado_1000830" data-name="Trazado 1000830" d="M27,46h3.408v3.408H27Z" transform="translate(17.596 30.969)"/>
      <path id="Trazado_1000831" data-name="Trazado 1000831" d="M31,46h3.408v3.408H31Z" transform="translate(20.411 30.969)"/>
      <path id="Trazado_1000832" data-name="Trazado 1000832" d="M35,46h3.408v3.408H35Z" transform="translate(23.227 30.969)"/>
      <path id="Trazado_1000833" data-name="Trazado 1000833" d="M39,46h3.408v3.408H39Z" transform="translate(26.042 30.969)"/>
      <path id="Trazado_1000834" data-name="Trazado 1000834" d="M43,46h3.408v3.408H43Z" transform="translate(28.857 30.969)"/>
      <path id="Trazado_1000835" data-name="Trazado 1000835" d="M47,46h3.408v3.408H47Z" transform="translate(31.673 30.969)"/>
      <path id="Trazado_1000836" data-name="Trazado 1000836" d="M51,46h3.408v3.408H51Z" transform="translate(34.488 30.969)"/>
      <path id="Trazado_1000837" data-name="Trazado 1000837" d="M49,8v3.408h6.815a1.7,1.7,0,0,1,1.7,1.7V23.335h3.408V13.112A5.112,5.112,0,0,0,55.815,8Z" transform="translate(33.081 4.223)"/>
      <path id="Trazado_1000838" data-name="Trazado 1000838" d="M54,23h3.408V38.335H54Z" transform="translate(36.6 14.781)"/>
      <path id="Trazado_1000839" data-name="Trazado 1000839" d="M8,23h3.408V38.335H8Z" transform="translate(4.223 14.781)"/>
      <path id="Trazado_1000840" data-name="Trazado 1000840" d="M8,23.335h3.408V13.112a1.7,1.7,0,0,1,1.7-1.7h6.815V8H13.112A5.112,5.112,0,0,0,8,13.112Z" transform="translate(4.223 4.223)"/>
      <path id="Trazado_1000841" data-name="Trazado 1000841" d="M18,50h6.815v3.408H18Z" transform="translate(11.261 33.784)"/>
      <path id="Trazado_1000842" data-name="Trazado 1000842" d="M42,50h6.815v3.408H42Z" transform="translate(28.154 33.784)"/>
      <path id="Trazado_1000843" data-name="Trazado 1000843" d="M30.86,40.075H27.518v3.408h3.408V46.89A3.408,3.408,0,0,0,34.334,50.3h6.815a3.408,3.408,0,0,0,3.408-3.408V43.483h3.408V40.075H44.62a8.487,8.487,0,0,1,2.556-5.505A13.614,13.614,0,0,0,47.3,15.028,13.631,13.631,0,1,0,28.186,34.452a8.809,8.809,0,0,1,2.673,5.623Zm3.474,6.815V43.483h6.815V46.89Zm3.237-32.373a10.211,10.211,0,0,1,7.241,17.59,11.946,11.946,0,0,0-3.646,7.967H34.317a12.2,12.2,0,0,0-3.748-8.061,10.1,10.1,0,0,1-3.05-7.652,10.341,10.341,0,0,1,10.053-9.845Z" transform="translate(15.374 6.225)"/>
      <path id="Trazado_1000844" data-name="Trazado 1000844" d="M32.408,23.8v7.129h3.408V23.8A5.112,5.112,0,0,0,39.223,19H35.815a1.7,1.7,0,0,1-3.408,0H29a5.112,5.112,0,0,0,3.408,4.8Z" transform="translate(19.004 11.965)"/>
      <path id="Trazado_1000845" data-name="Trazado 1000845" d="M31,7h3.408v3.408H31Z" transform="translate(20.411 3.519)"/>
      <path id="Trazado_1000846" data-name="Trazado 1000846" d="M0,0H3.408V3.408H0Z" transform="matrix(0.866, -0.5, 0.5, 0.866, 41.417, 14.112)"/>
      <path id="Trazado_1000847" data-name="Trazado 1000847" d="M0,0H3.408V3.408H0Z" transform="matrix(0.5, -0.866, 0.866, 0.5, 34.555, 22.217)"/>
      <path id="Trazado_1000848" data-name="Trazado 1000848" d="M20,18h3.408v3.408H20Z" transform="translate(12.669 11.261)"/>
      <path id="Trazado_1000849" data-name="Trazado 1000849" d="M0,0H3.408V3.408H0Z" transform="matrix(0.866, -0.5, 0.5, 0.866, 34.558, 39.706)"/>
      <path id="Trazado_1000850" data-name="Trazado 1000850" d="M0,0H3.408V3.408H0Z" transform="matrix(0.5, -0.866, 0.866, 0.5, 67.017, 40.959)"/>
      <path id="Trazado_1000851" data-name="Trazado 1000851" d="M42,18h3.408v3.408H42Z" transform="translate(28.154 11.261)"/>
      <path id="Trazado_1000852" data-name="Trazado 1000852" d="M0,0H3.408V3.408H0Z" transform="matrix(0.866, -0.5, 0.5, 0.866, 67.016, 20.964)"/>
      <path id="Trazado_1000853" data-name="Trazado 1000853" d="M0,0H3.408V3.408H0Z" transform="matrix(0.5, -0.866, 0.866, 0.5, 60.163, 15.363)"/>
      <path id="Trazado_1000854" data-name="Trazado 1000854" d="M61.112,12.223A5.112,5.112,0,1,0,56,7.112a5.112,5.112,0,0,0,5.112,5.112Zm0-6.815a1.7,1.7,0,1,1-1.7,1.7A1.7,1.7,0,0,1,61.112,5.408Z" transform="translate(38.007)"/>
      <path id="Trazado_1000855" data-name="Trazado 1000855" d="M61.112,32a5.112,5.112,0,1,0,5.112,5.112A5.112,5.112,0,0,0,61.112,32Zm0,6.815a1.7,1.7,0,1,1,1.7-1.7A1.7,1.7,0,0,1,61.112,38.815Z" transform="translate(38.007 21.115)"/>
      <path id="Trazado_1000856" data-name="Trazado 1000856" d="M61.112,17a5.112,5.112,0,1,0,5.112,5.112A5.112,5.112,0,0,0,61.112,17Zm0,6.815a1.7,1.7,0,1,1,1.7-1.7A1.7,1.7,0,0,1,61.112,23.815Z" transform="translate(38.007 10.558)"/>
      <path id="Trazado_1000857" data-name="Trazado 1000857" d="M7.112,42.223A5.112,5.112,0,1,0,2,37.112,5.112,5.112,0,0,0,7.112,42.223Zm0-6.815a1.7,1.7,0,1,1-1.7,1.7A1.7,1.7,0,0,1,7.112,35.408Z" transform="translate(0 21.115)"/>
      <path id="Trazado_1000858" data-name="Trazado 1000858" d="M23.849,13.148A30.514,30.514,0,0,0,16.9,30.965H10v3.408h6.9A30.514,30.514,0,0,0,23.849,52.19l-4.331,4.333H10v3.408H20.223a1.7,1.7,0,0,0,1.2-.5l4.759-4.751a30.548,30.548,0,0,0,42.613,0l4.75,4.75a1.7,1.7,0,0,0,1.2.5H84.969V56.523H75.451L71.12,52.19a30.514,30.514,0,0,0,6.947-17.817h6.9V30.965h-6.9A30.514,30.514,0,0,0,71.12,13.148l4.331-4.333h9.518V5.408H74.746a1.7,1.7,0,0,0-1.2.5l-4.751,4.751a30.548,30.548,0,0,0-42.613,0l-4.75-4.75a1.7,1.7,0,0,0-1.2-.5H10V8.815h9.518ZM47.485,5.408A27.261,27.261,0,1,1,20.223,32.669,27.261,27.261,0,0,1,47.485,5.408Z" transform="translate(5.631 0)"/>
      <path id="Trazado_1000859" data-name="Trazado 1000859" d="M7.112,12.223A5.112,5.112,0,1,0,2,7.112,5.112,5.112,0,0,0,7.112,12.223Zm0-6.815a1.7,1.7,0,1,1-1.7,1.7A1.7,1.7,0,0,1,7.112,5.408Z"/>
      <path id="Trazado_1000860" data-name="Trazado 1000860" d="M7.112,27.223A5.112,5.112,0,1,0,2,22.112,5.112,5.112,0,0,0,7.112,27.223Zm0-6.815a1.7,1.7,0,1,1-1.7,1.7A1.7,1.7,0,0,1,7.112,20.408Z" transform="translate(0 10.558)"/>
    </g>
  </g>
</svg>
